<svg width="393" height="87" viewBox="0 0 393 87" fill="none" xmlns="http://www.w3.org/2000/svg">
<path d="M31.179 22V19.7841L36.3565 14.9901C36.7969 14.5639 37.1662 14.1804 37.4645 13.8395C37.7675 13.4986 37.9972 13.1648 38.1534 12.8381C38.3097 12.5066 38.3878 12.1491 38.3878 11.7656C38.3878 11.3395 38.2907 10.9725 38.0966 10.6648C37.9025 10.3523 37.6373 10.1132 37.3011 9.94744C36.965 9.77699 36.5838 9.69176 36.1577 9.69176C35.7126 9.69176 35.3243 9.78172 34.9929 9.96165C34.6615 10.1416 34.4058 10.3996 34.2259 10.7358C34.0459 11.072 33.956 11.4721 33.956 11.9361H31.0369C31.0369 10.9844 31.2524 10.1581 31.6832 9.45739C32.1141 8.75663 32.7178 8.21449 33.4943 7.83097C34.2708 7.44744 35.1657 7.25568 36.179 7.25568C37.2206 7.25568 38.1274 7.44034 38.8991 7.80966C39.6757 8.17424 40.2794 8.68087 40.7102 9.32955C41.1411 9.97822 41.3565 10.7216 41.3565 11.5597C41.3565 12.1089 41.2476 12.651 41.0298 13.1861C40.8168 13.7211 40.4356 14.3153 39.8864 14.9688C39.3371 15.6174 38.563 16.3963 37.5639 17.3054L35.4403 19.3864V19.4858H41.5483V22H31.179ZM49.4798 22.3196C48.2582 22.3149 47.207 22.0142 46.3263 21.4176C45.4504 20.821 44.7757 19.9569 44.3022 18.8253C43.8335 17.6937 43.6014 16.3324 43.6062 14.7415C43.6062 13.1553 43.8406 11.8035 44.3093 10.6861C44.7828 9.56865 45.4575 8.71875 46.3335 8.13636C47.2141 7.54924 48.2629 7.25568 49.4798 7.25568C50.6966 7.25568 51.743 7.54924 52.619 8.13636C53.4996 8.72348 54.1767 9.57576 54.6502 10.6932C55.1237 11.8059 55.3581 13.1553 55.3533 14.7415C55.3533 16.3371 55.1166 17.7008 54.6431 18.8324C54.1744 19.964 53.502 20.8281 52.6261 21.4247C51.7501 22.0213 50.7013 22.3196 49.4798 22.3196ZM49.4798 19.7699C50.3131 19.7699 50.9783 19.3509 51.4755 18.5128C51.9727 17.6747 52.2189 16.4176 52.2141 14.7415C52.2141 13.6383 52.1005 12.7197 51.8732 11.9858C51.6507 11.2519 51.3335 10.7003 50.9215 10.331C50.5143 9.96165 50.0337 9.77699 49.4798 9.77699C48.6512 9.77699 47.9883 10.1913 47.4911 11.0199C46.994 11.8485 46.743 13.089 46.7383 14.7415C46.7383 15.8589 46.8496 16.7917 47.0721 17.5398C47.2994 18.2831 47.619 18.8419 48.0309 19.2159C48.4428 19.5852 48.9258 19.7699 49.4798 19.7699ZM57.5462 22V19.7841L62.7237 14.9901C63.1641 14.5639 63.5334 14.1804 63.8317 13.8395C64.1347 13.4986 64.3643 13.1648 64.5206 12.8381C64.6768 12.5066 64.755 12.1491 64.755 11.7656C64.755 11.3395 64.6579 10.9725 64.4638 10.6648C64.2696 10.3523 64.0045 10.1132 63.6683 9.94744C63.3321 9.77699 62.951 9.69176 62.5249 9.69176C62.0798 9.69176 61.6915 9.78172 61.3601 9.96165C61.0286 10.1416 60.773 10.3996 60.593 10.7358C60.4131 11.072 60.3232 11.4721 60.3232 11.9361H57.4041C57.4041 10.9844 57.6196 10.1581 58.0504 9.45739C58.4813 8.75663 59.085 8.21449 59.8615 7.83097C60.638 7.44744 61.5329 7.25568 62.5462 7.25568C63.5878 7.25568 64.4946 7.44034 65.2663 7.80966C66.0429 8.17424 66.6465 8.68087 67.0774 9.32955C67.5083 9.97822 67.7237 10.7216 67.7237 11.5597C67.7237 12.1089 67.6148 12.651 67.397 13.1861C67.1839 13.7211 66.8028 14.3153 66.2536 14.9688C65.7043 15.6174 64.9302 16.3963 63.9311 17.3054L61.8075 19.3864V19.4858H67.9155V22H57.5462ZM75.5202 22.1989C74.4596 22.1989 73.515 22.0166 72.6864 21.652C71.8626 21.2827 71.2115 20.776 70.7333 20.1321C70.2598 19.4834 70.016 18.7353 70.0018 17.8878H73.0984C73.1173 18.2429 73.2333 18.5554 73.4464 18.8253C73.6642 19.0904 73.953 19.2964 74.3129 19.4432C74.6727 19.59 75.0775 19.6634 75.5273 19.6634C75.9961 19.6634 76.4104 19.5805 76.7702 19.4148C77.1301 19.2491 77.4118 19.0194 77.6154 18.7259C77.819 18.4323 77.9208 18.0937 77.9208 17.7102C77.9208 17.322 77.8119 16.9787 77.5941 16.6804C77.381 16.3774 77.0733 16.1406 76.6708 15.9702C76.2731 15.7997 75.7996 15.7145 75.2504 15.7145H73.8938V13.456H75.2504C75.7144 13.456 76.1239 13.3755 76.479 13.2145C76.8389 13.0535 77.1183 12.831 77.3171 12.5469C77.516 12.258 77.6154 11.9219 77.6154 11.5384C77.6154 11.1738 77.5278 10.8542 77.3526 10.5795C77.1822 10.3002 76.9407 10.0824 76.6282 9.92614C76.3204 9.76989 75.9606 9.69176 75.5487 9.69176C75.132 9.69176 74.7508 9.76752 74.4052 9.91903C74.0595 10.0658 73.7826 10.2765 73.5742 10.5511C73.3659 10.8258 73.2546 11.1477 73.2404 11.517H70.293C70.3072 10.679 70.5463 9.94034 71.0103 9.30114C71.4743 8.66193 72.0993 8.1624 72.8853 7.80256C73.676 7.43797 74.5685 7.25568 75.5629 7.25568C76.5666 7.25568 77.445 7.43797 78.1978 7.80256C78.9506 8.16714 79.5354 8.65956 79.9521 9.27983C80.3735 9.89536 80.5818 10.5866 80.5771 11.3537C80.5818 12.1681 80.3285 12.8475 79.8171 13.392C79.3105 13.9366 78.65 14.2822 77.8356 14.429V14.5426C78.9057 14.6799 79.7201 15.0516 80.2788 15.6577C80.8422 16.259 81.1216 17.0118 81.1168 17.9162C81.1216 18.7448 80.8825 19.4811 80.3995 20.125C79.9213 20.7689 79.2608 21.2756 78.418 21.6449C77.5752 22.0142 76.6093 22.1989 75.5202 22.1989ZM87.1084 4.94L89.5484 5.56C88.4884 8.54 86.7284 11.42 84.9484 13.22C84.4884 12.8 83.4684 12 82.8884 11.66C84.6884 10.1 86.2484 7.54 87.1084 4.94ZM87.5284 7.22H100.248V9.54H86.3684L87.5284 7.22ZM86.1084 11.94H99.7884V14.18H88.5284V18.38H86.1084V11.94ZM82.9484 17.2H101.348V19.52H82.9484V17.2ZM91.9884 8.42H94.4684V23.8H91.9884V8.42ZM109.031 22.3196C107.809 22.3149 106.758 22.0142 105.877 21.4176C105.001 20.821 104.326 19.9569 103.853 18.8253C103.384 17.6937 103.152 16.3324 103.157 14.7415C103.157 13.1553 103.391 11.8035 103.86 10.6861C104.334 9.56865 105.008 8.71875 105.884 8.13636C106.765 7.54924 107.814 7.25568 109.031 7.25568C110.247 7.25568 111.294 7.54924 112.17 8.13636C113.05 8.72348 113.728 9.57576 114.201 10.6932C114.674 11.8059 114.909 13.1553 114.904 14.7415C114.904 16.3371 114.667 17.7008 114.194 18.8324C113.725 19.964 113.053 20.8281 112.177 21.4247C111.301 22.0213 110.252 22.3196 109.031 22.3196ZM109.031 19.7699C109.864 19.7699 110.529 19.3509 111.026 18.5128C111.523 17.6747 111.77 16.4176 111.765 14.7415C111.765 13.6383 111.651 12.7197 111.424 11.9858C111.201 11.2519 110.884 10.7003 110.472 10.331C110.065 9.96165 109.585 9.77699 109.031 9.77699C108.202 9.77699 107.539 10.1913 107.042 11.0199C106.545 11.8485 106.294 13.089 106.289 14.7415C106.289 15.8589 106.4 16.7917 106.623 17.5398C106.85 18.2831 107.17 18.8419 107.582 19.2159C107.994 19.5852 108.477 19.7699 109.031 19.7699ZM122.409 22.1989C121.406 22.1989 120.511 22.0142 119.725 21.6449C118.944 21.2756 118.323 20.7666 117.864 20.1179C117.405 19.4692 117.166 18.7259 117.147 17.8878H120.13C120.163 18.4512 120.4 18.9081 120.84 19.2585C121.28 19.6089 121.803 19.7841 122.409 19.7841C122.892 19.7841 123.319 19.6776 123.688 19.4645C124.062 19.2467 124.353 18.946 124.561 18.5625C124.775 18.1742 124.881 17.7292 124.881 17.2273C124.881 16.7159 124.772 16.2661 124.554 15.8778C124.341 15.4896 124.045 15.1866 123.667 14.9688C123.288 14.7509 122.855 14.6397 122.367 14.6349C121.941 14.6349 121.526 14.7225 121.124 14.8977C120.726 15.0729 120.416 15.312 120.194 15.6151L117.459 15.125L118.148 7.45455H127.04V9.96875H120.684L120.307 13.6122H120.392C120.648 13.2524 121.034 12.9541 121.55 12.7173C122.066 12.4806 122.644 12.3622 123.283 12.3622C124.159 12.3622 124.94 12.5682 125.627 12.9801C126.313 13.392 126.855 13.9579 127.253 14.6776C127.651 15.3925 127.847 16.2164 127.843 17.1491C127.847 18.1293 127.62 19.0005 127.161 19.7628C126.706 20.5204 126.069 21.117 125.25 21.5526C124.436 21.9834 123.489 22.1989 122.409 22.1989ZM134.189 5.96H144.189V8.3H134.189V5.96ZM134.209 10.74H144.289V13.02H134.209V10.74ZM134.109 15.48H144.149V17.8H134.109V15.48ZM132.549 5.96H135.009V12.58C135.009 16.06 134.469 20.96 131.089 23.8C130.729 23.3 129.749 22.4 129.229 22.08C132.269 19.5 132.549 15.64 132.549 12.58V5.96ZM143.069 5.96H145.609V20.76C145.609 22.18 145.269 22.9 144.349 23.3C143.389 23.72 141.969 23.76 139.889 23.76C139.749 23.04 139.289 21.88 138.889 21.24C140.309 21.32 141.969 21.3 142.449 21.3C142.909 21.28 143.069 21.14 143.069 20.72V5.96ZM155.364 22.1989C154.303 22.1989 153.359 22.0166 152.53 21.652C151.706 21.2827 151.055 20.776 150.577 20.1321C150.104 19.4834 149.86 18.7353 149.846 17.8878H152.942C152.961 18.2429 153.077 18.5554 153.29 18.8253C153.508 19.0904 153.797 19.2964 154.157 19.4432C154.516 19.59 154.921 19.6634 155.371 19.6634C155.84 19.6634 156.254 19.5805 156.614 19.4148C156.974 19.2491 157.256 19.0194 157.459 18.7259C157.663 18.4323 157.765 18.0937 157.765 17.7102C157.765 17.322 157.656 16.9787 157.438 16.6804C157.225 16.3774 156.917 16.1406 156.515 15.9702C156.117 15.7997 155.643 15.7145 155.094 15.7145H153.738V13.456H155.094C155.558 13.456 155.968 13.3755 156.323 13.2145C156.683 13.0535 156.962 12.831 157.161 12.5469C157.36 12.258 157.459 11.9219 157.459 11.5384C157.459 11.1738 157.372 10.8542 157.196 10.5795C157.026 10.3002 156.784 10.0824 156.472 9.92614C156.164 9.76989 155.804 9.69176 155.392 9.69176C154.976 9.69176 154.595 9.76752 154.249 9.91903C153.903 10.0658 153.626 10.2765 153.418 10.5511C153.21 10.8258 153.098 11.1477 153.084 11.517H150.137C150.151 10.679 150.39 9.94034 150.854 9.30114C151.318 8.66193 151.943 8.1624 152.729 7.80256C153.52 7.43797 154.412 7.25568 155.407 7.25568C156.41 7.25568 157.289 7.43797 158.042 7.80256C158.794 8.16714 159.379 8.65956 159.796 9.27983C160.217 9.89536 160.426 10.5866 160.421 11.3537C160.426 12.1681 160.172 12.8475 159.661 13.392C159.154 13.9366 158.494 14.2822 157.679 14.429V14.5426C158.749 14.6799 159.564 15.0516 160.123 15.6577C160.686 16.259 160.965 17.0118 160.961 17.9162C160.965 18.7448 160.726 19.4811 160.243 20.125C159.765 20.7689 159.105 21.2756 158.262 21.6449C157.419 22.0142 156.453 22.1989 155.364 22.1989ZM168.874 22.3196C167.653 22.3149 166.602 22.0142 165.721 21.4176C164.845 20.821 164.17 19.9569 163.697 18.8253C163.228 17.6937 162.996 16.3324 163.001 14.7415C163.001 13.1553 163.235 11.8035 163.704 10.6861C164.177 9.56865 164.852 8.71875 165.728 8.13636C166.609 7.54924 167.657 7.25568 168.874 7.25568C170.091 7.25568 171.138 7.54924 172.013 8.13636C172.894 8.72348 173.571 9.57576 174.045 10.6932C174.518 11.8059 174.753 13.1553 174.748 14.7415C174.748 16.3371 174.511 17.7008 174.038 18.8324C173.569 19.964 172.897 20.8281 172.021 21.4247C171.145 22.0213 170.096 22.3196 168.874 22.3196ZM168.874 19.7699C169.708 19.7699 170.373 19.3509 170.87 18.5128C171.367 17.6747 171.613 16.4176 171.609 14.7415C171.609 13.6383 171.495 12.7197 171.268 11.9858C171.045 11.2519 170.728 10.7003 170.316 10.331C169.909 9.96165 169.428 9.77699 168.874 9.77699C168.046 9.77699 167.383 10.1913 166.886 11.0199C166.388 11.8485 166.138 13.089 166.133 14.7415C166.133 15.8589 166.244 16.7917 166.467 17.5398C166.694 18.2831 167.013 18.8419 167.425 19.2159C167.837 19.5852 168.32 19.7699 168.874 19.7699ZM178.822 6.22H192.782V23.54H190.202V8.64H181.302V23.56H178.822V6.22ZM180.522 12.94H191.282V15.32H180.522V12.94ZM180.502 19.84H191.282V22.26H180.502V19.84Z" fill="black"/>
<g filter="url(#filter0_i_652_694)">
<rect x="303" width="60" height="30" rx="15" fill="white"/>
</g>
<circle cx="318" cy="15" r="10" fill="#D9D9D9"/>
<path d="M30.4226 79.4973C29.4577 81.1641 30.6603 83.25 32.5861 83.25H51.4139C53.3398 83.25 54.5424 81.1641 53.5775 79.4973L44.1636 63.237C43.2006 61.5738 40.7994 61.5738 39.8364 63.237L30.4226 79.4973ZM43.25 78.25C43.25 78.9403 42.6904 79.5 42 79.5C41.3096 79.5 40.75 78.9403 40.75 78.25C40.75 77.5596 41.3096 77 42 77C42.6904 77 43.25 77.5596 43.25 78.25ZM43.25 73.25C43.25 73.9403 42.6904 74.5 42 74.5C41.3096 74.5 40.75 73.9403 40.75 73.25V70.75C40.75 70.0596 41.3096 69.5 42 69.5C42.6904 69.5 43.25 70.0596 43.25 70.75V73.25Z" fill="#EB3223"/>
<path d="M75.604 60.288C76.492 60.384 77.608 60.432 78.88 60.432C80.056 60.432 81.436 60.36 82.348 60.264V61.86C81.508 61.932 80.032 62.004 78.88 62.004C77.632 62.004 76.588 61.944 75.604 61.872V60.288ZM76.612 65.364C76.504 65.796 76.408 66.18 76.408 66.588C76.408 67.344 77.152 67.908 78.88 67.908C80.488 67.908 82.024 67.728 83.092 67.428L83.104 69.12C82.048 69.36 80.608 69.516 78.928 69.516C76.192 69.516 74.8 68.604 74.8 66.948C74.8 66.264 74.956 65.676 75.04 65.22L76.612 65.364ZM92.092 60.78C91.924 62.004 91.684 63.408 91.264 64.824C90.544 67.248 89.512 68.736 88.204 68.736C86.86 68.736 85.756 67.26 85.756 65.232C85.756 62.472 88.168 60.096 91.276 60.096C94.24 60.096 96.124 62.16 96.124 64.788C96.124 67.308 94.576 69.096 91.552 69.564L90.64 68.148C91.108 68.088 91.444 68.028 91.768 67.956C93.292 67.584 94.492 66.492 94.492 64.728C94.492 62.844 93.316 61.5 91.24 61.5C88.696 61.5 87.304 63.576 87.304 65.088C87.304 66.3 87.784 66.888 88.24 66.888C88.756 66.888 89.212 66.12 89.716 64.5C90.064 63.372 90.328 61.992 90.448 60.732L92.092 60.78ZM98.836 59.532H107.212V69.924H105.664V60.984H100.324V69.936H98.836V59.532ZM99.856 63.564H106.312V64.992H99.856V63.564ZM99.844 67.704H106.312V69.156H99.844V67.704ZM113.68 61.632C114.376 61.704 115.06 61.74 115.792 61.74C117.256 61.74 118.756 61.62 120.004 61.356V62.844C118.744 63.036 117.232 63.132 115.792 63.144C115.084 63.144 114.4 63.12 113.692 63.072L113.68 61.632ZM118.252 59.616C118.216 59.844 118.192 60.132 118.18 60.384C118.156 60.78 118.132 61.608 118.132 62.472C118.132 64.68 118.324 66.24 118.324 67.38C118.324 68.64 117.7 69.552 115.972 69.552C114.304 69.552 113.272 68.868 113.272 67.608C113.272 66.384 114.304 65.544 115.948 65.544C118.204 65.544 119.656 66.672 120.592 67.536L119.776 68.796C118.396 67.512 117.184 66.708 115.828 66.708C115.144 66.708 114.676 66.984 114.676 67.44C114.676 67.932 115.156 68.148 115.804 68.148C116.536 68.148 116.788 67.764 116.788 67.056C116.788 66.228 116.632 64.212 116.632 62.484C116.632 61.572 116.62 60.768 116.608 60.408C116.608 60.216 116.572 59.844 116.536 59.616H118.252ZM112.396 59.736C112.3 59.976 112.156 60.6 112.108 60.816C111.928 61.62 111.532 64.26 111.532 65.46C111.532 65.688 111.544 66 111.58 66.24C111.748 65.82 111.952 65.412 112.12 65.004L112.864 65.592C112.528 66.588 112.132 67.8 112 68.46C111.964 68.628 111.928 68.892 111.94 69.012C111.94 69.144 111.94 69.348 111.952 69.516L110.596 69.612C110.356 68.784 110.116 67.404 110.116 65.784C110.116 63.972 110.476 61.704 110.62 60.78C110.668 60.444 110.716 59.976 110.728 59.604L112.396 59.736ZM124.288 63.492V67.908H122.92V64.824H121.384V63.492H124.288ZM124.288 67.344C124.768 68.148 125.596 68.484 126.832 68.532C128.26 68.604 131.116 68.568 132.772 68.436C132.616 68.76 132.4 69.42 132.328 69.84C130.84 69.912 128.284 69.936 126.808 69.864C125.368 69.804 124.408 69.456 123.688 68.532C123.136 69 122.572 69.468 121.888 69.972L121.228 68.544C121.792 68.22 122.464 67.788 123.04 67.344H124.288ZM121.552 59.988L122.548 59.064C123.292 59.568 124.228 60.348 124.66 60.924L123.58 61.956C123.196 61.38 122.296 60.54 121.552 59.988ZM126.412 61.14L127.324 60.372C128.392 60.744 129.904 61.392 130.72 61.86L129.736 62.712C129.004 62.256 127.516 61.572 126.412 61.14ZM125.32 61.824H131.428V62.868H126.676V68.04H125.32V61.824ZM130.756 61.824H132.124V66.792C132.124 67.38 132.028 67.68 131.632 67.872C131.26 68.076 130.732 68.076 130.012 68.076C129.964 67.728 129.808 67.26 129.652 66.948C130.036 66.96 130.456 66.96 130.576 66.96C130.72 66.96 130.756 66.912 130.756 66.78V61.824ZM125.428 59.208H131.152V60.3H125.428V59.208ZM126.076 63.516H131.224V64.512H126.076V63.516ZM126.076 65.196H131.224V66.24H126.076V65.196ZM128.056 62.316H129.34V67.992H128.056V62.316ZM130.636 59.208H130.96L131.248 59.136L132.1 59.832C131.248 60.624 130.06 61.476 128.956 62.004C128.788 61.764 128.44 61.392 128.236 61.2C129.136 60.768 130.18 60.012 130.636 59.46V59.208ZM140.212 58.872H141.616V60.756H140.212V58.872ZM137.548 60.132H144.496V62.496H143.164V61.356H138.82V62.508H137.548V60.132ZM138.436 62.328H143.572V63.564H138.436V62.328ZM137.716 64.428H144.448V65.712H137.716V64.428ZM139.072 65.052H140.44C140.332 67.632 139.972 69.216 137.392 70.08C137.272 69.732 136.912 69.204 136.636 68.94C138.808 68.292 139 67.14 139.072 65.052ZM141.28 64.908H142.636V68.316C142.636 68.664 142.66 68.712 142.816 68.712C142.888 68.712 143.14 68.712 143.224 68.712C143.416 68.712 143.452 68.52 143.476 67.296C143.74 67.512 144.316 67.74 144.676 67.824C144.556 69.516 144.22 69.972 143.38 69.972C143.164 69.972 142.768 69.972 142.576 69.972C141.52 69.972 141.28 69.564 141.28 68.328V64.908ZM133.852 59.328H136.684V60.612H135.112V70.092H133.852V59.328ZM136.24 59.328H136.48L136.684 59.28L137.62 59.808C137.308 60.84 136.912 62.148 136.564 63.084C137.308 64.02 137.452 64.824 137.452 65.52C137.452 66.3 137.296 66.804 136.912 67.068C136.72 67.2 136.492 67.284 136.228 67.32C136.012 67.344 135.724 67.356 135.448 67.356C135.436 67.008 135.328 66.468 135.136 66.12C135.352 66.132 135.508 66.144 135.652 66.132C135.784 66.132 135.904 66.108 135.988 66.036C136.132 65.928 136.192 65.688 136.192 65.352C136.192 64.788 136.036 64.044 135.352 63.24C135.688 62.16 136.072 60.504 136.24 59.736V59.328ZM148.108 60.432C148.024 60.852 147.964 61.56 147.964 61.896C147.964 62.676 147.964 63.564 148.036 64.44C148.204 66.168 148.564 67.356 149.32 67.356C149.896 67.356 150.364 65.94 150.592 64.992L151.804 66.444C151 68.544 150.256 69.264 149.296 69.264C147.964 69.264 146.824 68.088 146.488 64.872C146.368 63.768 146.356 62.352 146.356 61.62C146.356 61.296 146.344 60.78 146.26 60.408L148.108 60.432ZM154.108 60.696C155.248 62.076 156.172 65.076 156.304 66.912L154.72 67.536C154.54 65.592 153.892 62.688 152.584 61.2L154.108 60.696ZM161.452 59.484C161.38 59.988 161.32 60.612 161.296 61.092C161.236 62.388 161.152 65.064 161.152 66.552C161.152 67.764 161.872 68.16 162.808 68.16C164.788 68.16 166.036 67.02 166.912 65.712L168.004 67.044C167.224 68.196 165.52 69.792 162.784 69.792C160.816 69.792 159.556 68.928 159.556 66.876C159.556 65.268 159.664 62.124 159.664 61.092C159.664 60.516 159.616 59.94 159.52 59.472L161.452 59.484ZM176.164 59.304C176.128 59.544 176.092 59.844 176.08 60.156C176.056 60.768 176.044 62.472 176.044 63.48C176.044 64.8 176.236 66.972 176.236 67.92C176.236 68.952 175.456 69.744 173.884 69.744C171.964 69.744 170.956 69.012 170.956 67.74C170.956 66.528 172.072 65.676 173.908 65.676C176.548 65.676 178.516 66.972 179.512 67.812L178.648 69.156C177.508 68.076 175.768 66.912 173.716 66.912C172.876 66.912 172.408 67.236 172.408 67.656C172.408 68.112 172.828 68.388 173.656 68.388C174.292 68.388 174.724 68.208 174.724 67.512C174.724 66.792 174.592 64.644 174.592 63.48C174.592 62.328 174.604 60.804 174.604 60.12C174.604 59.904 174.58 59.532 174.532 59.304H176.164ZM171.184 60.42C172.036 60.564 173.416 60.684 174.148 60.684C175.78 60.684 177.352 60.6 179.104 60.324L179.092 61.692C177.868 61.86 175.96 62.004 174.16 62.004C173.392 62.004 172 61.896 171.208 61.8L171.184 60.42ZM171.112 63.012C171.904 63.156 173.368 63.24 174.004 63.24C176.224 63.24 177.772 63.096 179.248 62.904L179.236 64.32C177.58 64.512 176.272 64.584 173.992 64.584C173.284 64.584 171.928 64.524 171.136 64.428L171.112 63.012ZM189.817 59.592C189.781 59.784 189.757 60.312 189.745 60.624C189.721 61.44 189.721 62.124 189.697 62.736C189.673 63.804 189.637 65.1 189.517 65.712C189.385 66.348 189.073 66.504 188.461 66.504C188.041 66.504 187.069 66.396 186.661 66.324L186.685 65.004C187.057 65.088 187.561 65.148 187.801 65.148C188.029 65.148 188.137 65.112 188.173 64.872C188.233 64.416 188.257 63.552 188.281 62.724C188.281 62.1 188.281 61.404 188.281 60.696C188.281 60.384 188.233 59.82 188.197 59.592H189.817ZM185.089 59.952C185.041 60.348 185.017 60.684 185.017 61.2C185.017 62.292 184.969 65.46 184.993 66.444C185.029 67.632 185.125 67.896 186.925 67.896C188.101 67.896 189.625 67.752 190.513 67.584L190.453 69.228C189.649 69.312 188.185 69.42 187.033 69.42C183.937 69.42 183.553 68.76 183.505 66.684C183.481 65.652 183.493 62.004 183.493 61.284C183.493 60.78 183.457 60.372 183.397 59.952H185.089ZM181.081 62.664C181.417 62.664 181.969 62.64 182.581 62.568C183.793 62.46 188.305 62.016 190.621 61.872C190.945 61.848 191.413 61.812 191.773 61.788V63.252C191.557 63.24 190.921 63.264 190.609 63.264C188.737 63.324 184.069 63.828 182.677 63.984C182.305 64.032 181.561 64.14 181.237 64.188L181.081 62.664ZM199.561 60.096C199.429 60.252 199.309 60.456 199.177 60.66C198.577 61.512 197.737 63.048 197.149 64.116C197.593 63.852 198.061 63.744 198.517 63.744C199.417 63.744 199.957 64.308 200.005 65.316C200.029 65.844 200.005 66.804 200.065 67.308C200.113 67.776 200.437 67.968 200.833 67.968C201.877 67.968 202.525 66.612 202.861 65.124L204.169 66.18C203.533 68.244 202.429 69.612 200.581 69.612C199.249 69.612 198.637 68.808 198.577 67.944C198.541 67.296 198.541 66.324 198.505 65.832C198.469 65.412 198.241 65.16 197.809 65.16C196.993 65.16 196.309 66 195.889 66.972C195.565 67.668 195.157 69.012 194.977 69.648L193.285 69.072C194.161 66.672 196.621 61.776 197.269 60.624C197.413 60.312 197.641 59.916 197.857 59.412L199.561 60.096ZM206.953 66.036C208.033 66.036 208.897 66.9 208.897 67.968C208.897 69.048 208.033 69.912 206.953 69.912C205.885 69.912 205.009 69.048 205.009 67.968C205.009 66.9 205.885 66.036 206.953 66.036ZM206.953 69.048C207.553 69.048 208.033 68.568 208.033 67.968C208.033 67.38 207.553 66.9 206.953 66.9C206.365 66.9 205.873 67.38 205.873 67.968C205.873 68.568 206.365 69.048 206.953 69.048ZM76.288 78.492V82.908H74.92V79.824H73.384V78.492H76.288ZM76.288 82.344C76.768 83.148 77.596 83.484 78.832 83.532C80.26 83.604 83.116 83.568 84.772 83.436C84.616 83.76 84.4 84.42 84.328 84.84C82.84 84.912 80.284 84.936 78.808 84.864C77.368 84.804 76.408 84.456 75.688 83.532C75.136 84 74.572 84.468 73.888 84.972L73.228 83.544C73.792 83.22 74.464 82.788 75.04 82.344H76.288ZM73.552 74.988L74.548 74.064C75.292 74.568 76.228 75.348 76.66 75.924L75.58 76.956C75.196 76.38 74.296 75.54 73.552 74.988ZM78.412 76.14L79.324 75.372C80.392 75.744 81.904 76.392 82.72 76.86L81.736 77.712C81.004 77.256 79.516 76.572 78.412 76.14ZM77.32 76.824H83.428V77.868H78.676V83.04H77.32V76.824ZM82.756 76.824H84.124V81.792C84.124 82.38 84.028 82.68 83.632 82.872C83.26 83.076 82.732 83.076 82.012 83.076C81.964 82.728 81.808 82.26 81.652 81.948C82.036 81.96 82.456 81.96 82.576 81.96C82.72 81.96 82.756 81.912 82.756 81.78V76.824ZM77.428 74.208H83.152V75.3H77.428V74.208ZM78.076 78.516H83.224V79.512H78.076V78.516ZM78.076 80.196H83.224V81.24H78.076V80.196ZM80.056 77.316H81.34V82.992H80.056V77.316ZM82.636 74.208H82.96L83.248 74.136L84.1 74.832C83.248 75.624 82.06 76.476 80.956 77.004C80.788 76.764 80.44 76.392 80.236 76.2C81.136 75.768 82.18 75.012 82.636 74.46V74.208ZM92.212 73.872H93.616V75.756H92.212V73.872ZM89.548 75.132H96.496V77.496H95.164V76.356H90.82V77.508H89.548V75.132ZM90.436 77.328H95.572V78.564H90.436V77.328ZM89.716 79.428H96.448V80.712H89.716V79.428ZM91.072 80.052H92.44C92.332 82.632 91.972 84.216 89.392 85.08C89.272 84.732 88.912 84.204 88.636 83.94C90.808 83.292 91 82.14 91.072 80.052ZM93.28 79.908H94.636V83.316C94.636 83.664 94.66 83.712 94.816 83.712C94.888 83.712 95.14 83.712 95.224 83.712C95.416 83.712 95.452 83.52 95.476 82.296C95.74 82.512 96.316 82.74 96.676 82.824C96.556 84.516 96.22 84.972 95.38 84.972C95.164 84.972 94.768 84.972 94.576 84.972C93.52 84.972 93.28 84.564 93.28 83.328V79.908ZM85.852 74.328H88.684V75.612H87.112V85.092H85.852V74.328ZM88.24 74.328H88.48L88.684 74.28L89.62 74.808C89.308 75.84 88.912 77.148 88.564 78.084C89.308 79.02 89.452 79.824 89.452 80.52C89.452 81.3 89.296 81.804 88.912 82.068C88.72 82.2 88.492 82.284 88.228 82.32C88.012 82.344 87.724 82.356 87.448 82.356C87.436 82.008 87.328 81.468 87.136 81.12C87.352 81.132 87.508 81.144 87.652 81.132C87.784 81.132 87.904 81.108 87.988 81.036C88.132 80.928 88.192 80.688 88.192 80.352C88.192 79.788 88.036 79.044 87.352 78.24C87.688 77.16 88.072 75.504 88.24 74.736V74.328ZM104.836 74.328C104.8 74.532 104.764 75.168 104.752 75.36C104.716 76.152 104.74 78.6 104.752 79.56L103.252 79.056C103.252 78.312 103.252 76.008 103.204 75.372C103.168 74.892 103.12 74.484 103.096 74.328H104.836ZM98.044 75.828C99.832 75.828 103 75.732 104.5 75.732C105.724 75.732 107.548 75.72 108.22 75.732L108.196 77.148C107.452 77.112 106.228 77.076 104.464 77.076C102.28 77.076 99.892 77.172 98.08 77.268L98.044 75.828ZM104.548 79.38C104.548 81.336 103.828 82.308 102.448 82.308C101.524 82.308 100.372 81.576 100.372 80.112C100.372 78.756 101.476 77.868 102.772 77.868C104.356 77.868 105.184 79.032 105.184 80.52C105.184 82.092 104.26 84.072 101.332 84.9L100.06 83.628C102.1 83.184 103.696 82.38 103.696 80.28C103.696 79.5 103.276 79.128 102.748 79.128C102.28 79.128 101.812 79.452 101.812 80.088C101.812 80.628 102.256 80.976 102.748 80.976C103.312 80.976 103.804 80.496 103.42 79.068L104.548 79.38ZM111.64 74.868C111.976 74.904 112.384 74.928 112.72 74.928C113.368 74.928 115.924 74.868 116.608 74.808C117.112 74.772 117.388 74.724 117.532 74.676L118.3 75.756C118.024 75.936 117.736 76.104 117.472 76.308C116.824 76.764 115.564 77.82 114.796 78.42C115.204 78.312 115.564 78.288 115.936 78.288C117.976 78.288 119.524 79.56 119.524 81.3C119.524 83.196 118.084 84.696 115.18 84.696C113.512 84.696 112.252 83.94 112.252 82.728C112.252 81.756 113.14 80.868 114.412 80.868C116.056 80.868 116.968 81.972 117.004 83.292L115.6 83.472C115.576 82.608 115.12 82.008 114.412 82.008C113.968 82.008 113.668 82.284 113.668 82.596C113.668 83.04 114.16 83.34 114.892 83.34C116.92 83.34 117.952 82.572 117.952 81.288C117.952 80.196 116.872 79.464 115.468 79.464C113.62 79.464 112.432 80.448 111.148 81.9L110.056 80.772C110.908 80.1 112.36 78.876 113.056 78.288C113.728 77.736 114.988 76.728 115.576 76.2C114.964 76.224 113.308 76.284 112.66 76.332C112.336 76.356 111.964 76.38 111.688 76.428L111.64 74.868ZM128.092 75.78C127.924 77.004 127.684 78.408 127.264 79.824C126.544 82.248 125.512 83.736 124.204 83.736C122.86 83.736 121.756 82.26 121.756 80.232C121.756 77.472 124.168 75.096 127.276 75.096C130.24 75.096 132.124 77.16 132.124 79.788C132.124 82.308 130.576 84.096 127.552 84.564L126.64 83.148C127.108 83.088 127.444 83.028 127.768 82.956C129.292 82.584 130.492 81.492 130.492 79.728C130.492 77.844 129.316 76.5 127.24 76.5C124.696 76.5 123.304 78.576 123.304 80.088C123.304 81.3 123.784 81.888 124.24 81.888C124.756 81.888 125.212 81.12 125.716 79.5C126.064 78.372 126.328 76.992 126.448 75.732L128.092 75.78ZM133.828 75.78C134.296 75.768 134.776 75.744 135.004 75.72C136 75.624 137.98 75.456 140.176 75.264C141.424 75.168 142.732 75.084 143.584 75.048L143.596 76.596C142.948 76.596 141.916 76.608 141.268 76.752C139.828 77.136 138.736 78.696 138.736 80.124C138.736 82.092 140.584 82.812 142.612 82.908L142.048 84.552C139.54 84.396 137.164 83.04 137.164 80.436C137.164 78.72 138.136 77.352 138.94 76.74C137.824 76.86 135.364 77.124 133.984 77.424L133.828 75.78ZM141.88 77.772C142.168 78.192 142.6 78.924 142.828 79.404L141.928 79.8C141.616 79.152 141.364 78.672 140.992 78.144L141.88 77.772ZM143.212 77.22C143.524 77.64 143.98 78.348 144.232 78.816L143.332 79.248C143.008 78.6 142.732 78.144 142.348 77.616L143.212 77.22ZM150.835 74.352C150.763 74.58 150.715 74.796 150.667 74.988C150.439 76.104 150.235 77.832 150.235 79.32C150.235 81.216 150.583 82.56 150.979 83.772L149.599 84.18C149.239 83.1 148.891 81.324 148.891 79.56C148.891 77.988 149.107 76.224 149.239 75.036C149.263 74.796 149.287 74.52 149.275 74.304L150.835 74.352ZM148.687 75.672C150.967 75.672 152.779 75.564 154.615 75.12L154.627 76.5C152.983 76.8 150.463 76.98 148.651 76.98C148.015 76.98 147.079 76.92 146.515 76.896L146.479 75.516C146.911 75.576 147.955 75.672 148.687 75.672ZM153.871 77.436C153.775 77.652 153.595 78.204 153.511 78.456C152.827 80.616 151.591 82.236 150.451 83.076C149.671 83.652 148.627 84.18 147.583 84.18C146.707 84.18 145.975 83.652 145.975 82.428C145.975 80.736 147.487 78.972 149.395 78.276C150.187 77.988 151.171 77.808 152.071 77.808C154.315 77.808 155.971 79.104 155.971 80.976C155.971 82.68 154.963 84.324 152.023 84.78L151.219 83.508C153.535 83.256 154.483 82.092 154.483 80.904C154.483 79.884 153.607 79.02 151.987 79.02C150.895 79.02 150.031 79.332 149.443 79.596C148.243 80.16 147.391 81.312 147.391 82.116C147.391 82.512 147.547 82.716 147.943 82.716C148.507 82.716 149.311 82.32 150.043 81.636C150.919 80.832 151.735 79.764 152.215 78.108C152.299 77.856 152.383 77.34 152.395 77.076L153.871 77.436ZM168.583 83.376C168.019 83.892 167.299 84.276 166.315 84.276C165.415 84.276 164.815 83.628 164.815 82.464C164.815 81.156 165.247 79.404 165.247 78.3C165.247 77.712 164.947 77.424 164.431 77.424C163.315 77.424 161.527 79.188 160.567 80.412L160.555 78.564C161.287 77.796 163.291 75.996 164.875 75.996C166.171 75.996 166.759 76.764 166.759 77.772C166.759 79.008 166.363 80.772 166.363 82.02C166.363 82.332 166.531 82.548 166.831 82.548C167.275 82.548 167.839 82.236 168.379 81.696L168.583 83.376ZM160.291 77.664C159.751 77.724 158.611 77.868 157.819 77.988L157.663 76.44C157.999 76.452 158.275 76.452 158.707 76.428C159.463 76.392 160.999 76.164 161.539 75.984L162.019 76.608C161.815 76.884 161.443 77.472 161.239 77.784L160.543 80.04C160.015 80.808 158.947 82.416 158.311 83.292L157.375 81.972C158.131 81.036 159.571 79.14 160.171 78.192L160.195 77.88L160.291 77.664ZM160.147 75.348C160.147 75.012 160.159 74.652 160.087 74.28L161.839 74.328C161.635 75.288 161.239 78.432 161.239 80.58C161.239 81.552 161.239 82.572 161.311 83.688C161.323 83.904 161.371 84.348 161.395 84.612H159.751C159.775 84.336 159.787 83.916 159.787 83.724C159.799 82.56 159.811 81.756 159.847 80.256C159.883 79.188 160.147 75.828 160.147 75.348ZM173.227 76.776C173.923 76.848 174.619 76.884 175.327 76.884C176.803 76.884 178.303 76.752 179.551 76.5V77.988C178.291 78.18 176.791 78.276 175.327 78.276C174.631 78.276 173.947 78.252 173.239 78.204L173.227 76.776ZM177.799 74.748C177.751 74.988 177.727 75.276 177.715 75.528C177.691 75.924 177.679 76.74 177.679 77.616C177.679 79.824 177.871 81.372 177.871 82.512C177.871 83.772 177.247 84.708 175.519 84.708C173.863 84.708 172.831 84 172.831 82.74C172.831 81.528 173.851 80.688 175.483 80.688C177.739 80.688 179.203 81.816 180.127 82.68L179.323 83.94C177.931 82.644 176.731 81.852 175.363 81.852C174.691 81.852 174.223 82.128 174.223 82.584C174.223 83.076 174.715 83.28 175.339 83.28C176.083 83.28 176.335 82.896 176.335 82.188C176.335 81.36 176.179 79.344 176.179 77.616C176.179 76.704 176.167 75.9 176.167 75.54C176.167 75.36 176.119 74.988 176.083 74.748H177.799ZM171.943 74.88C171.847 75.132 171.691 75.732 171.655 75.948C171.475 76.752 171.079 79.404 171.079 80.592C171.079 80.832 171.091 81.132 171.139 81.372C171.295 80.952 171.487 80.544 171.667 80.148L172.411 80.736C172.075 81.72 171.679 82.944 171.535 83.604C171.499 83.772 171.475 84.024 171.475 84.156C171.475 84.276 171.487 84.48 171.499 84.66L170.143 84.756C169.903 83.916 169.675 82.548 169.675 80.916C169.675 79.104 170.035 76.836 170.167 75.912C170.215 75.588 170.275 75.12 170.275 74.736L171.943 74.88ZM178.783 74.268C178.999 74.748 179.275 75.444 179.407 75.912L178.579 76.188C178.399 75.66 178.195 75.012 177.955 74.52L178.783 74.268ZM180.019 73.884C180.247 74.364 180.523 75.06 180.667 75.516L179.839 75.792C179.671 75.264 179.443 74.628 179.203 74.148L180.019 73.884ZM186.535 77.412H191.527V78.864H186.535V77.412ZM181.399 83.04H192.367V84.492H181.399V83.04ZM185.719 73.956H187.267V83.844H185.719V73.956ZM199.267 78.3H203.215V79.656H199.267V78.3ZM198.679 78.3H200.131V83.028C200.131 83.544 200.239 83.616 200.815 83.616C201.079 83.616 202.195 83.616 202.519 83.616C203.059 83.616 203.155 83.34 203.227 81.828C203.551 82.068 204.163 82.308 204.571 82.404C204.391 84.396 203.983 84.984 202.627 84.984C202.291 84.984 200.947 84.984 200.635 84.984C199.135 84.984 198.679 84.564 198.679 83.028V78.3ZM198.643 74.412H203.923V80.268H202.471V75.78H198.643V74.412ZM193.819 77.496H197.695V78.576H193.819V77.496ZM193.891 74.184H197.731V75.276H193.891V74.184ZM193.819 79.128H197.695V80.22H193.819V79.128ZM193.231 75.804H198.175V76.944H193.231V75.804ZM194.479 80.796H197.659V84.444H194.479V83.304H196.399V81.936H194.479V80.796ZM193.783 80.796H195.031V84.924H193.783V80.796ZM211.975 75.78C211.807 77.004 211.567 78.408 211.147 79.824C210.427 82.248 209.395 83.736 208.087 83.736C206.743 83.736 205.639 82.26 205.639 80.232C205.639 77.472 208.051 75.096 211.159 75.096C214.123 75.096 216.007 77.16 216.007 79.788C216.007 82.308 214.459 84.096 211.435 84.564L210.523 83.148C210.991 83.088 211.327 83.028 211.651 82.956C213.175 82.584 214.375 81.492 214.375 79.728C214.375 77.844 213.199 76.5 211.123 76.5C208.579 76.5 207.187 78.576 207.187 80.088C207.187 81.3 207.667 81.888 208.123 81.888C208.639 81.888 209.095 81.12 209.599 79.5C209.947 78.372 210.211 76.992 210.331 75.732L211.975 75.78ZM226.063 74.304C226.363 74.736 226.747 75.432 226.975 75.876L226.015 76.284C225.763 75.792 225.439 75.156 225.115 74.688L226.063 74.304ZM227.623 73.956C227.935 74.412 228.343 75.096 228.559 75.516L227.599 75.924C227.347 75.42 226.999 74.796 226.675 74.352L227.623 73.956ZM223.795 74.532C223.759 74.7 223.687 75.288 223.687 75.588C223.687 76.296 223.687 77.316 223.687 78.012C223.687 78.984 223.687 82.56 223.687 83.568C223.687 84.264 223.279 84.696 222.427 84.696C221.791 84.696 221.083 84.672 220.483 84.6L220.339 83.112C220.843 83.208 221.371 83.244 221.671 83.244C221.983 83.244 222.091 83.136 222.103 82.824C222.115 82.368 222.115 78.576 222.115 78.012C222.115 77.592 222.115 76.308 222.115 75.576C222.115 75.264 222.055 74.748 222.019 74.532H223.795ZM217.915 76.452C218.275 76.5 218.695 76.536 219.067 76.536C219.799 76.536 225.619 76.536 226.483 76.536C226.819 76.536 227.335 76.5 227.659 76.464V78.036C227.287 78 226.819 77.988 226.495 77.988C225.631 77.988 219.859 77.988 219.067 77.988C218.707 77.988 218.251 78 217.915 78.036V76.452ZM220.975 79.704C220.423 80.76 219.307 82.332 218.659 83.04L217.351 82.164C218.155 81.396 219.115 80.076 219.607 79.056L220.975 79.704ZM226.123 79.02C226.735 79.788 227.695 81.3 228.175 82.176L226.771 82.956C226.255 81.924 225.403 80.472 224.815 79.728L226.123 79.02ZM234.019 78.384C235.495 79.236 237.715 80.772 238.831 81.66L237.679 83.028C236.635 82.044 234.355 80.364 232.951 79.476L234.019 78.384ZM239.671 76.344C239.527 76.572 239.371 76.908 239.263 77.208C238.903 78.312 238.171 79.848 237.091 81.18C235.963 82.584 234.427 83.928 232.135 84.792L230.743 83.592C233.251 82.812 234.679 81.552 235.711 80.352C236.515 79.404 237.259 78.024 237.487 77.088H233.431L233.983 75.732H237.403C237.775 75.732 238.171 75.672 238.447 75.588L239.671 76.344ZM235.699 74.496C235.411 74.916 235.099 75.468 234.955 75.72C234.151 77.172 232.615 79.008 230.887 80.196L229.603 79.2C231.703 77.904 232.807 76.26 233.419 75.216C233.599 74.928 233.851 74.376 233.959 73.956L235.699 74.496ZM243.775 74.88C244.603 75.444 246.163 76.692 246.871 77.424L245.647 78.672C245.023 78 243.511 76.692 242.635 76.092L243.775 74.88ZM242.263 82.872C244.147 82.608 245.695 81.996 246.859 81.312C248.911 80.088 250.471 78.264 251.239 76.644L252.163 78.324C251.263 79.956 249.667 81.612 247.735 82.776C246.511 83.508 244.963 84.168 243.283 84.456L242.263 82.872ZM258.715 74.376C258.619 74.82 258.463 75.528 258.127 76.392C257.875 76.98 257.527 77.664 257.191 78.144C257.515 78 258.151 77.916 258.559 77.916C259.555 77.916 260.311 78.504 260.311 79.62C260.311 80.268 260.347 81.576 260.359 82.332H258.919C258.967 81.768 258.991 80.748 258.979 80.1C258.979 79.332 258.499 79.08 257.995 79.08C257.335 79.08 256.579 79.476 256.123 79.908C255.763 80.268 255.427 80.7 255.019 81.228L253.735 80.268C255.271 78.852 256.195 77.556 256.699 76.236C256.939 75.588 257.095 74.856 257.131 74.244L258.715 74.376ZM254.191 75.492C254.803 75.576 255.691 75.624 256.303 75.624C257.887 75.624 260.059 75.54 261.799 75.228L261.787 76.62C260.095 76.86 257.683 76.968 256.219 76.968C255.727 76.968 254.851 76.944 254.191 76.884V75.492ZM263.695 78.9C263.323 79.008 262.675 79.248 262.267 79.404C261.487 79.704 260.407 80.136 259.279 80.712C258.187 81.276 257.599 81.792 257.599 82.452C257.599 83.112 258.175 83.292 259.339 83.292C260.359 83.292 261.703 83.16 262.759 82.944L262.711 84.492C261.907 84.6 260.443 84.708 259.303 84.708C257.431 84.708 256.027 84.24 256.027 82.692C256.027 81.024 257.743 80.04 259.183 79.32C260.287 78.744 261.043 78.456 261.763 78.12C262.231 77.916 262.651 77.724 263.107 77.496L263.695 78.9ZM270.331 74.616C270.259 74.928 270.187 75.312 270.127 75.612C270.007 76.152 269.863 76.896 269.731 77.508C269.335 79.2 268.375 82.62 267.115 84.648L265.543 84.024C266.971 82.104 267.871 78.936 268.207 77.424C268.435 76.344 268.567 75.324 268.555 74.424L270.331 74.616ZM274.471 75.816C275.203 76.86 276.211 79.092 276.583 80.232L275.059 80.94C274.747 79.608 273.895 77.496 273.031 76.428L274.471 75.816ZM265.471 77.076C265.903 77.1 266.311 77.088 266.755 77.076C267.715 77.052 269.995 76.788 270.883 76.788C272.155 76.788 273.055 77.352 273.055 79.092C273.055 80.508 272.875 82.452 272.371 83.484C271.975 84.324 271.303 84.588 270.403 84.588C269.935 84.588 269.371 84.516 268.963 84.42L268.699 82.836C269.167 82.968 269.851 83.088 270.163 83.088C270.571 83.088 270.883 82.968 271.063 82.572C271.399 81.9 271.555 80.436 271.555 79.26C271.555 78.3 271.147 78.156 270.391 78.156C269.683 78.156 267.607 78.42 266.947 78.504C266.599 78.552 265.975 78.636 265.615 78.696L265.471 77.076ZM274.255 74.16C274.555 74.592 274.975 75.36 275.203 75.804L274.243 76.212C273.991 75.72 273.619 75.012 273.295 74.544L274.255 74.16ZM275.671 73.608C275.983 74.064 276.427 74.832 276.643 75.252L275.683 75.66C275.443 75.156 275.047 74.46 274.723 74.004L275.671 73.608ZM281.587 74.496H288.139V81.552H286.687V75.816H282.979V81.564H281.587V74.496ZM282.463 77.088H287.215V78.384H282.463V77.088ZM282.463 79.692H287.215V81H282.463V79.692ZM284.167 75.012H285.523V85.08H284.167V75.012ZM277.207 79.908C278.227 79.692 279.691 79.344 281.083 78.984L281.263 80.304C280.015 80.652 278.659 81.012 277.579 81.288L277.207 79.908ZM277.363 76.092H281.215V77.436H277.363V76.092ZM278.683 73.812H280.063V83.496C280.063 84.168 279.943 84.504 279.559 84.72C279.175 84.936 278.635 84.972 277.843 84.972C277.795 84.624 277.615 84.048 277.459 83.7C277.879 83.712 278.335 83.7 278.479 83.7C278.635 83.7 278.683 83.652 278.683 83.496V73.812ZM293.335 74.484C293.263 74.988 293.203 75.612 293.179 76.092C293.119 77.388 293.035 80.064 293.035 81.552C293.035 82.764 293.755 83.16 294.691 83.16C296.671 83.16 297.919 82.02 298.795 80.712L299.887 82.044C299.107 83.196 297.403 84.792 294.667 84.792C292.699 84.792 291.439 83.928 291.439 81.876C291.439 80.268 291.547 77.124 291.547 76.092C291.547 75.516 291.499 74.94 291.403 74.472L293.335 74.484ZM301.372 75.756C301.84 75.744 302.32 75.72 302.548 75.696C303.556 75.6 305.524 75.432 307.732 75.24C308.968 75.132 310.276 75.06 311.128 75.024L311.14 76.572C310.492 76.572 309.46 76.584 308.812 76.728C307.372 77.112 306.28 78.672 306.28 80.088C306.28 82.068 308.128 82.776 310.156 82.884L309.604 84.528C307.084 84.372 304.708 83.016 304.708 80.412C304.708 78.684 305.68 77.328 306.496 76.716C305.368 76.836 302.92 77.088 301.528 77.4L301.372 75.756ZM320.964 75.36C320.58 75.636 320.184 75.948 319.908 76.176C319.128 76.8 317.544 78.024 316.74 78.72C316.104 79.26 316.116 79.404 316.764 79.968C317.664 80.724 319.944 82.512 321.168 83.7L319.776 84.996C319.44 84.612 319.08 84.24 318.72 83.88C318 83.124 316.236 81.612 315.132 80.688C313.944 79.668 314.04 79.02 315.24 78.024C316.176 77.256 317.832 75.924 318.636 75.132C318.984 74.796 319.368 74.4 319.56 74.112L320.964 75.36ZM329.472 74.568C329.388 74.892 329.268 75.432 329.208 75.696C329.04 76.512 328.752 77.988 328.428 79.2C327.996 80.88 327.192 83.34 326.532 84.756L324.852 84.192C325.572 82.992 326.484 80.472 326.928 78.792C327.24 77.664 327.516 76.356 327.6 75.636C327.66 75.192 327.672 74.7 327.636 74.424L329.472 74.568ZM326.412 76.356C327.876 76.356 329.568 76.14 331.128 75.768V77.268C329.64 77.616 327.756 77.808 326.4 77.808C325.812 77.808 325.368 77.784 324.948 77.76L324.9 76.272C325.524 76.344 325.92 76.356 326.412 76.356ZM330.18 78.204C330.852 78.132 331.704 78.072 332.496 78.072C333.18 78.072 333.9 78.108 334.596 78.18L334.572 79.62C333.96 79.548 333.228 79.476 332.508 79.476C331.668 79.476 330.936 79.512 330.18 79.608V78.204ZM330.828 81.216C330.744 81.552 330.672 81.948 330.672 82.212C330.672 82.74 331.02 83.136 332.316 83.136C333.108 83.136 333.948 83.04 334.8 82.884L334.74 84.42C334.068 84.504 333.264 84.6 332.304 84.6C330.276 84.6 329.196 83.892 329.196 82.68C329.196 82.128 329.292 81.552 329.4 81.072L330.828 81.216ZM333.312 74.916C333.624 75.348 334.044 76.116 334.272 76.56L333.312 76.968C333.06 76.476 332.688 75.768 332.364 75.3L333.312 74.916ZM334.74 74.364C335.052 74.82 335.496 75.576 335.712 76.008L334.752 76.416C334.512 75.912 334.116 75.216 333.792 74.76L334.74 74.364ZM342.228 75.492C342.144 75.216 342 74.784 341.856 74.388L343.476 74.196C343.656 75.12 343.944 76.068 344.232 76.836C344.604 77.844 345.168 78.876 345.564 79.428C345.768 79.728 345.984 79.98 346.2 80.232L345.468 81.3C344.796 81.168 343.272 81.012 342.264 80.928L342.384 79.656C342.972 79.716 343.764 79.776 344.136 79.812C343.704 79.104 343.176 78.096 342.804 77.1C342.54 76.44 342.372 75.888 342.228 75.492ZM337.86 76.056C340.104 76.32 341.928 76.308 343.368 76.152C344.436 76.02 345.492 75.816 346.44 75.528L346.62 77.028C345.828 77.256 344.796 77.436 343.836 77.544C342.24 77.736 340.344 77.784 337.884 77.58L337.86 76.056ZM340.272 80.136C339.876 80.712 339.684 81.24 339.684 81.756C339.684 82.776 340.584 83.196 342.228 83.208C343.536 83.208 344.592 83.076 345.432 82.908L345.348 84.432C344.664 84.552 343.584 84.708 342.132 84.708C339.672 84.708 338.136 83.76 338.136 82.02C338.136 81.288 338.364 80.604 338.772 79.788L340.272 80.136ZM351.264 75.432C351.18 75.852 351.12 76.56 351.12 76.896C351.12 77.676 351.12 78.564 351.192 79.44C351.36 81.168 351.72 82.356 352.476 82.356C353.052 82.356 353.52 80.94 353.748 79.992L354.96 81.444C354.156 83.544 353.412 84.264 352.452 84.264C351.12 84.264 349.98 83.088 349.644 79.872C349.524 78.768 349.512 77.352 349.512 76.62C349.512 76.296 349.5 75.78 349.416 75.408L351.264 75.432ZM357.264 75.696C358.404 77.076 359.328 80.076 359.46 81.912L357.876 82.536C357.696 80.592 357.048 77.688 355.74 76.2L357.264 75.696ZM362.472 81.036C363.552 81.036 364.416 81.9 364.416 82.968C364.416 84.048 363.552 84.912 362.472 84.912C361.404 84.912 360.528 84.048 360.528 82.968C360.528 81.9 361.404 81.036 362.472 81.036ZM362.472 84.048C363.072 84.048 363.552 83.568 363.552 82.968C363.552 82.38 363.072 81.9 362.472 81.9C361.884 81.9 361.392 82.38 361.392 82.968C361.392 83.568 361.884 84.048 362.472 84.048Z" fill="black"/>
<defs>
<filter id="filter0_i_652_694" x="303" y="0" width="60" height="30" filterUnits="userSpaceOnUse" color-interpolation-filters="sRGB">
<feFlood flood-opacity="0" result="BackgroundImageFix"/>
<feBlend mode="normal" in="SourceGraphic" in2="BackgroundImageFix" result="shape"/>
<feColorMatrix in="SourceAlpha" type="matrix" values="0 0 0 0 0 0 0 0 0 0 0 0 0 0 0 0 0 0 127 0" result="hardAlpha"/>
<feOffset/>
<feGaussianBlur stdDeviation="4"/>
<feComposite in2="hardAlpha" operator="arithmetic" k2="-1" k3="1"/>
<feColorMatrix type="matrix" values="0 0 0 0 0 0 0 0 0 0 0 0 0 0 0 0 0 0 0.25 0"/>
<feBlend mode="normal" in2="shape" result="effect1_innerShadow_652_694"/>
</filter>
</defs>
</svg>
