<svg width="385" height="240" viewBox="0 0 385 240" fill="none" xmlns="http://www.w3.org/2000/svg">
<g filter="url(#filter0_d_273_103)">
<rect x="24" y="20" width="337" height="192" rx="8" fill="white" shape-rendering="crispEdges"/>
<path d="M46.77 67.07L47.37 66.41C47.84 66.56 48.45 66.84 48.77 67.08L48.14 67.81C47.86 67.57 47.26 67.25 46.77 67.07ZM41.68 67.44H49.39V68.39H41.68V67.44ZM42.45 68.86H45.4V69.63H42.45V68.86ZM42.48 70.1H43.44V71.94H42.48V70.1ZM47.68 68.64L48.79 68.91C48.21 70.54 47.18 71.88 45.93 72.72C45.76 72.5 45.34 72.08 45.1 71.88C46.3 71.19 47.23 70.03 47.68 68.64ZM45.33 66.51H46.46C46.53 69.27 47.56 71.74 48.45 71.73C48.67 71.73 48.76 71.39 48.81 70.53C49.05 70.75 49.43 70.96 49.71 71.06C49.55 72.48 49.19 72.81 48.38 72.81C46.63 72.81 45.46 69.84 45.33 66.51ZM42.48 70.1H45.34V72.27H42.48V71.5H44.36V70.87H42.48V70.1ZM42.87 73.11H44.06V74.4C44.06 74.67 44.14 74.71 44.61 74.71C44.82 74.71 45.7 74.71 45.97 74.71C46.35 74.71 46.42 74.6 46.46 73.81C46.7 73.99 47.21 74.16 47.53 74.23C47.39 75.47 47.06 75.77 46.08 75.77C45.81 75.77 44.74 75.77 44.47 75.77C43.17 75.77 42.87 75.44 42.87 74.41V73.11ZM43.8 72.84L44.57 72.2C45.13 72.5 45.8 72.98 46.12 73.36L45.29 74.08C45 73.7 44.35 73.18 43.8 72.84ZM47.09 73.46L48.09 72.95C48.75 73.55 49.43 74.39 49.7 75.04L48.61 75.6C48.38 74.98 47.74 74.09 47.09 73.46ZM41.53 73.1L42.6 73.48C42.36 74.32 41.97 75.16 41.29 75.7L40.29 75.02C40.9 74.57 41.32 73.85 41.53 73.1ZM41.12 67.44H42.22V68.97C42.22 70.2 42.03 71.97 41.08 73.1C40.91 72.89 40.43 72.49 40.2 72.37C41.04 71.37 41.12 69.97 41.12 68.96V67.44ZM50.54 72.05H59.47V73.1H50.54V72.05ZM53.46 67.57H57.48V68.63H53.46V67.57ZM54.38 71.12H55.6V75.89H54.38V71.12ZM54.02 72.58L54.95 72.97C54.06 74.2 52.55 75.25 51.06 75.8C50.89 75.51 50.54 75.06 50.28 74.82C51.73 74.41 53.24 73.53 54.02 72.58ZM55.95 72.54C56.72 73.48 58.24 74.32 59.72 74.73C59.46 74.97 59.1 75.44 58.93 75.74C57.42 75.21 55.91 74.17 54.99 72.96L55.95 72.54ZM50.31 68.72L50.78 67.94C51.34 68.09 52.12 68.36 52.53 68.58L52.04 69.45C51.65 69.22 50.88 68.91 50.31 68.72ZM51.06 67.33L51.5 66.56C52.08 66.7 52.87 66.97 53.28 67.18L52.82 68.04C52.43 67.82 51.64 67.51 51.06 67.33ZM50.53 71.05C51.05 70.64 51.78 69.95 52.43 69.27L53.16 69.99C52.59 70.61 51.97 71.25 51.4 71.82L50.53 71.05ZM56.85 67.57H58.02V69.99C58.02 70.17 58.03 70.26 58.05 70.3C58.08 70.33 58.13 70.35 58.18 70.35C58.23 70.35 58.33 70.35 58.38 70.35C58.44 70.35 58.5 70.34 58.54 70.31C58.57 70.29 58.61 70.22 58.63 70.06C58.65 69.91 58.66 69.56 58.67 69.12C58.89 69.33 59.35 69.55 59.68 69.67C59.65 70.1 59.61 70.58 59.53 70.79C59.44 71.01 59.31 71.14 59.12 71.24C58.96 71.31 58.7 71.35 58.51 71.35C58.31 71.35 58.04 71.35 57.88 71.35C57.62 71.35 57.31 71.27 57.12 71.09C56.94 70.91 56.85 70.67 56.85 70.01V67.57ZM55 66.52L56.2 66.49C56.11 69.21 55.47 70.74 53.61 71.64C53.47 71.41 53.03 70.93 52.79 70.74C54.51 70.08 55 68.76 55 66.52ZM61.53 67.11H68.51V75.77H67.22V68.32H62.77V75.78H61.53V67.11ZM62.38 70.47H67.76V71.66H62.38V70.47ZM62.37 73.92H67.76V75.13H62.37V73.92ZM70.29 71.73H75.35V72.69H70.29V71.73ZM70.41 68.2H75.32V69.14H70.41V68.2ZM72.09 71.01L73.2 71.25C72.71 72.28 72.06 73.5 71.58 74.3L70.53 73.98C71 73.21 71.66 71.96 72.09 71.01ZM73.51 72.4L74.61 72.49C74.25 74.59 73.2 75.43 70.82 75.91C70.75 75.58 70.53 75.16 70.33 74.92C72.32 74.67 73.19 74.04 73.51 72.4ZM74.22 66.63L75.23 67.03C74.9 67.48 74.58 67.94 74.32 68.25L73.55 67.9C73.78 67.55 74.06 67.01 74.22 66.63ZM72.31 66.5H73.41V71.15H72.31V66.5ZM70.65 67.03L71.51 66.67C71.78 67.05 72.03 67.56 72.12 67.92L71.2 68.32C71.13 67.97 70.9 67.44 70.65 67.03ZM72.34 68.67L73.12 69.14C72.62 69.93 71.66 70.8 70.82 71.27C70.68 71.01 70.42 70.61 70.2 70.39C71.01 70.06 71.91 69.35 72.34 68.67ZM73.31 68.96C73.67 69.13 74.81 69.8 75.09 69.99L74.45 70.82C74.08 70.45 73.19 69.74 72.75 69.43L73.31 68.96ZM76.01 68.32H79.68V69.43H76.01V68.32ZM76.12 66.5L77.33 66.67C77.02 68.74 76.42 70.66 75.5 71.88C75.31 71.66 74.82 71.23 74.55 71.03C75.39 70.01 75.88 68.29 76.12 66.5ZM77.93 69L79.16 69.11C78.73 72.53 77.7 74.67 75.17 75.94C75.05 75.65 74.7 75.1 74.48 74.84C76.76 73.84 77.63 71.96 77.93 69ZM76.69 69.21C77.09 71.74 77.97 73.9 79.81 74.84C79.53 75.08 79.15 75.56 78.97 75.89C76.96 74.69 76.09 72.37 75.6 69.38L76.69 69.21ZM71.41 73.99L72.05 73.17C73.23 73.62 74.48 74.32 75.16 74.86L74.33 75.71C73.69 75.15 72.53 74.45 71.41 73.99Z" fill="black"/>
<path d="M194.589 75V73.892L197.178 71.495C197.398 71.282 197.583 71.0902 197.732 70.9197C197.884 70.7493 197.999 70.5824 198.077 70.419C198.155 70.2533 198.194 70.0746 198.194 69.8828C198.194 69.6697 198.145 69.4863 198.048 69.3324C197.951 69.1761 197.819 69.0566 197.651 68.9737C197.482 68.8885 197.292 68.8459 197.079 68.8459C196.856 68.8459 196.662 68.8909 196.496 68.9808C196.331 69.0708 196.203 69.1998 196.113 69.3679C196.023 69.536 195.978 69.736 195.978 69.968H194.518C194.518 69.4922 194.626 69.0791 194.842 68.7287C195.057 68.3783 195.359 68.1072 195.747 67.9155C196.135 67.7237 196.583 67.6278 197.089 67.6278C197.61 67.6278 198.064 67.7202 198.45 67.9048C198.838 68.0871 199.14 68.3404 199.355 68.6648C199.571 68.9891 199.678 69.3608 199.678 69.7798C199.678 70.0545 199.624 70.3255 199.515 70.593C199.408 70.8606 199.218 71.1577 198.943 71.4844C198.669 71.8087 198.281 72.1982 197.782 72.6527L196.72 73.6932V73.7429H199.774V75H194.589ZM203.74 75.1598C203.129 75.1574 202.604 75.0071 202.163 74.7088C201.725 74.4105 201.388 73.9785 201.151 73.4126C200.917 72.8468 200.801 72.1662 200.803 71.3707C200.803 70.5777 200.92 69.9018 201.155 69.343C201.391 68.7843 201.729 68.3594 202.167 68.0682C202.607 67.7746 203.131 67.6278 203.74 67.6278C204.348 67.6278 204.872 67.7746 205.309 68.0682C205.75 68.3617 206.088 68.7879 206.325 69.3466C206.562 69.9029 206.679 70.5777 206.677 71.3707C206.677 72.1686 206.558 72.8504 206.322 73.4162C206.087 73.982 205.751 74.4141 205.313 74.7124C204.875 75.0107 204.351 75.1598 203.74 75.1598ZM203.74 73.8849C204.157 73.8849 204.489 73.6754 204.738 73.2564C204.986 72.8374 205.109 72.2088 205.107 71.3707C205.107 70.8191 205.05 70.3598 204.937 69.9929C204.825 69.6259 204.667 69.3501 204.461 69.1655C204.257 68.9808 204.017 68.8885 203.74 68.8885C203.326 68.8885 202.994 69.0956 202.746 69.5099C202.497 69.9242 202.372 70.5445 202.369 71.3707C202.369 71.9295 202.425 72.3958 202.536 72.7699C202.65 73.1416 202.809 73.4209 203.015 73.608C203.221 73.7926 203.463 73.8849 203.74 73.8849ZM207.773 75V73.892L210.362 71.495C210.582 71.282 210.767 71.0902 210.916 70.9197C211.067 70.7493 211.182 70.5824 211.26 70.419C211.338 70.2533 211.377 70.0746 211.377 69.8828C211.377 69.6697 211.329 69.4863 211.232 69.3324C211.135 69.1761 211.002 69.0566 210.834 68.9737C210.666 68.8885 210.475 68.8459 210.262 68.8459C210.04 68.8459 209.846 68.8909 209.68 68.9808C209.514 69.0708 209.386 69.1998 209.297 69.3679C209.207 69.536 209.162 69.736 209.162 69.968H207.702C207.702 69.4922 207.81 69.0791 208.025 68.7287C208.241 68.3783 208.542 68.1072 208.931 67.9155C209.319 67.7237 209.766 67.6278 210.273 67.6278C210.794 67.6278 211.247 67.7202 211.633 67.9048C212.021 68.0871 212.323 68.3404 212.539 68.6648C212.754 68.9891 212.862 69.3608 212.862 69.7798C212.862 70.0545 212.807 70.3255 212.699 70.593C212.592 70.8606 212.401 71.1577 212.127 71.4844C211.852 71.8087 211.465 72.1982 210.966 72.6527L209.904 73.6932V73.7429H212.958V75H207.773ZM214.072 75V73.892L216.661 71.495C216.881 71.282 217.066 71.0902 217.215 70.9197C217.366 70.7493 217.481 70.5824 217.559 70.419C217.637 70.2533 217.676 70.0746 217.676 69.8828C217.676 69.6697 217.628 69.4863 217.531 69.3324C217.434 69.1761 217.301 69.0566 217.133 68.9737C216.965 68.8885 216.774 68.8459 216.561 68.8459C216.339 68.8459 216.145 68.8909 215.979 68.9808C215.813 69.0708 215.685 69.1998 215.595 69.3679C215.505 69.536 215.46 69.736 215.46 69.968H214.001C214.001 69.4922 214.109 69.0791 214.324 68.7287C214.539 68.3783 214.841 68.1072 215.23 67.9155C215.618 67.7237 216.065 67.6278 216.572 67.6278C217.093 67.6278 217.546 67.7202 217.932 67.9048C218.32 68.0871 218.622 68.3404 218.838 68.6648C219.053 68.9891 219.161 69.3608 219.161 69.7798C219.161 70.0545 219.106 70.3255 218.997 70.593C218.891 70.8606 218.7 71.1577 218.426 71.4844C218.151 71.8087 217.764 72.1982 217.264 72.6527L216.203 73.6932V73.7429H219.257V75H214.072ZM223.553 67.3864L221.209 76.0938H219.906L222.249 67.3864H223.553ZM227.431 67.7273V75H225.894V69.1868H225.851L224.186 70.2308V68.8672L225.986 67.7273H227.431ZM232.011 75.1598C231.401 75.1574 230.875 75.0071 230.435 74.7088C229.997 74.4105 229.659 73.9785 229.423 73.4126C229.188 72.8468 229.072 72.1662 229.075 71.3707C229.075 70.5777 229.192 69.9018 229.426 69.343C229.663 68.7843 230 68.3594 230.438 68.0682C230.879 67.7746 231.403 67.6278 232.011 67.6278C232.62 67.6278 233.143 67.7746 233.581 68.0682C234.021 68.3617 234.36 68.7879 234.597 69.3466C234.833 69.9029 234.951 70.5777 234.948 71.3707C234.948 72.1686 234.83 72.8504 234.593 73.4162C234.359 73.982 234.022 74.4141 233.585 74.7124C233.147 75.0107 232.622 75.1598 232.011 75.1598ZM232.011 73.8849C232.428 73.8849 232.761 73.6754 233.009 73.2564C233.258 72.8374 233.381 72.2088 233.379 71.3707C233.379 70.8191 233.322 70.3598 233.208 69.9929C233.097 69.6259 232.938 69.3501 232.732 69.1655C232.529 68.9808 232.288 68.8885 232.011 68.8885C231.597 68.8885 231.266 69.0956 231.017 69.5099C230.768 69.9242 230.643 70.5445 230.641 71.3707C230.641 71.9295 230.696 72.3958 230.808 72.7699C230.921 73.1416 231.081 73.4209 231.287 73.608C231.493 73.7926 231.734 73.8849 232.011 73.8849ZM239.226 67.3864L236.883 76.0938H235.579L237.923 67.3864H239.226ZM243.105 67.7273V75H241.567V69.1868H241.525L239.859 70.2308V68.8672L241.66 67.7273H243.105ZM247.522 75.0994C246.992 75.0994 246.519 75.0083 246.105 74.826C245.693 74.6413 245.367 74.388 245.128 74.0661C244.892 73.7417 244.77 73.3677 244.763 72.9439H246.311C246.32 73.1214 246.378 73.2777 246.485 73.4126C246.594 73.5452 246.738 73.6482 246.918 73.7216C247.098 73.795 247.3 73.8317 247.525 73.8317C247.76 73.8317 247.967 73.7902 248.147 73.7074C248.327 73.6245 248.468 73.5097 248.569 73.3629C248.671 73.2161 248.722 73.0469 248.722 72.8551C248.722 72.661 248.668 72.4893 248.559 72.3402C248.452 72.1887 248.298 72.0703 248.097 71.9851C247.898 71.8999 247.662 71.8572 247.387 71.8572H246.709V70.728H247.387C247.619 70.728 247.824 70.6877 248.001 70.6072C248.181 70.5268 248.321 70.4155 248.42 70.2734C248.52 70.129 248.569 69.9609 248.569 69.7692C248.569 69.5869 248.526 69.4271 248.438 69.2898C248.353 69.1501 248.232 69.0412 248.076 68.9631C247.922 68.8849 247.742 68.8459 247.536 68.8459C247.328 68.8459 247.137 68.8838 246.964 68.9595C246.791 69.0329 246.653 69.1383 246.549 69.2756C246.445 69.4129 246.389 69.5739 246.382 69.7585H244.908C244.915 69.3395 245.035 68.9702 245.267 68.6506C245.499 68.331 245.811 68.0812 246.204 67.9013C246.6 67.719 247.046 67.6278 247.543 67.6278C248.045 67.6278 248.484 67.719 248.861 67.9013C249.237 68.0836 249.529 68.3298 249.738 68.6399C249.948 68.9477 250.053 69.2933 250.05 69.6768C250.053 70.084 249.926 70.4238 249.67 70.696C249.417 70.9683 249.087 71.1411 248.68 71.2145V71.2713C249.215 71.34 249.622 71.5258 249.901 71.8288C250.183 72.1295 250.323 72.5059 250.32 72.9581C250.323 73.3724 250.203 73.7405 249.961 74.0625C249.722 74.3845 249.392 74.6378 248.971 74.8224C248.549 75.0071 248.066 75.0994 247.522 75.0994Z" fill="black"/>
<path d="M265.763 73.0362C265.749 72.5888 265.804 72.21 265.927 71.8999C266.05 71.5897 266.229 71.3542 266.463 71.1932C266.7 71.0322 266.978 70.9517 267.298 70.9517C267.52 70.9517 267.733 70.9979 267.937 71.0902C268.14 71.1825 268.371 71.3423 268.629 71.5696C268.767 71.6903 268.883 71.7827 268.977 71.8466C269.072 71.9081 269.181 71.9389 269.304 71.9389C269.472 71.9389 269.611 71.8738 269.719 71.7436C269.828 71.611 269.879 71.4015 269.872 71.1151H271.03C271.046 71.5649 270.992 71.9448 270.866 72.255C270.741 72.5651 270.56 72.8007 270.323 72.9616C270.086 73.1226 269.811 73.2031 269.496 73.2031C269.261 73.2031 269.041 73.1546 268.835 73.0575C268.632 72.9581 268.406 72.7995 268.157 72.5817C268.01 72.4515 267.893 72.358 267.805 72.3011C267.718 72.242 267.614 72.2124 267.493 72.2124C267.325 72.2124 267.186 72.2763 267.077 72.4041C266.969 72.5296 266.918 72.7403 266.925 73.0362H265.763Z" fill="black"/>
<path d="M286.589 75V73.892L289.178 71.495C289.398 71.282 289.583 71.0902 289.732 70.9197C289.884 70.7493 289.999 70.5824 290.077 70.419C290.155 70.2533 290.194 70.0746 290.194 69.8828C290.194 69.6697 290.145 69.4863 290.048 69.3324C289.951 69.1761 289.819 69.0566 289.651 68.9737C289.482 68.8885 289.292 68.8459 289.079 68.8459C288.856 68.8459 288.662 68.8909 288.496 68.9808C288.331 69.0708 288.203 69.1998 288.113 69.3679C288.023 69.536 287.978 69.736 287.978 69.968H286.518C286.518 69.4922 286.626 69.0791 286.842 68.7287C287.057 68.3783 287.359 68.1072 287.747 67.9155C288.135 67.7237 288.583 67.6278 289.089 67.6278C289.61 67.6278 290.064 67.7202 290.45 67.9048C290.838 68.0871 291.14 68.3404 291.355 68.6648C291.571 68.9891 291.678 69.3608 291.678 69.7798C291.678 70.0545 291.624 70.3255 291.515 70.593C291.408 70.8606 291.218 71.1577 290.943 71.4844C290.669 71.8087 290.281 72.1982 289.782 72.6527L288.72 73.6932V73.7429H291.774V75H286.589ZM295.74 75.1598C295.129 75.1574 294.604 75.0071 294.163 74.7088C293.725 74.4105 293.388 73.9785 293.151 73.4126C292.917 72.8468 292.801 72.1662 292.803 71.3707C292.803 70.5777 292.92 69.9018 293.155 69.343C293.391 68.7843 293.729 68.3594 294.167 68.0682C294.607 67.7746 295.131 67.6278 295.74 67.6278C296.348 67.6278 296.872 67.7746 297.309 68.0682C297.75 68.3617 298.088 68.7879 298.325 69.3466C298.562 69.9029 298.679 70.5777 298.677 71.3707C298.677 72.1686 298.558 72.8504 298.322 73.4162C298.087 73.982 297.751 74.4141 297.313 74.7124C296.875 75.0107 296.351 75.1598 295.74 75.1598ZM295.74 73.8849C296.157 73.8849 296.489 73.6754 296.738 73.2564C296.986 72.8374 297.109 72.2088 297.107 71.3707C297.107 70.8191 297.05 70.3598 296.937 69.9929C296.825 69.6259 296.667 69.3501 296.461 69.1655C296.257 68.9808 296.017 68.8885 295.74 68.8885C295.326 68.8885 294.994 69.0956 294.746 69.5099C294.497 69.9242 294.372 70.5445 294.369 71.3707C294.369 71.9295 294.425 72.3958 294.536 72.7699C294.65 73.1416 294.809 73.4209 295.015 73.608C295.221 73.7926 295.463 73.8849 295.74 73.8849ZM299.773 75V73.892L302.362 71.495C302.582 71.282 302.767 71.0902 302.916 70.9197C303.067 70.7493 303.182 70.5824 303.26 70.419C303.338 70.2533 303.377 70.0746 303.377 69.8828C303.377 69.6697 303.329 69.4863 303.232 69.3324C303.135 69.1761 303.002 69.0566 302.834 68.9737C302.666 68.8885 302.475 68.8459 302.262 68.8459C302.04 68.8459 301.846 68.8909 301.68 68.9808C301.514 69.0708 301.386 69.1998 301.297 69.3679C301.207 69.536 301.162 69.736 301.162 69.968H299.702C299.702 69.4922 299.81 69.0791 300.025 68.7287C300.241 68.3783 300.542 68.1072 300.931 67.9155C301.319 67.7237 301.766 67.6278 302.273 67.6278C302.794 67.6278 303.247 67.7202 303.633 67.9048C304.021 68.0871 304.323 68.3404 304.539 68.6648C304.754 68.9891 304.862 69.3608 304.862 69.7798C304.862 70.0545 304.807 70.3255 304.699 70.593C304.592 70.8606 304.401 71.1577 304.127 71.4844C303.852 71.8087 303.465 72.1982 302.966 72.6527L301.904 73.6932V73.7429H304.958V75H299.773ZM306.072 75V73.892L308.661 71.495C308.881 71.282 309.066 71.0902 309.215 70.9197C309.366 70.7493 309.481 70.5824 309.559 70.419C309.637 70.2533 309.676 70.0746 309.676 69.8828C309.676 69.6697 309.628 69.4863 309.531 69.3324C309.434 69.1761 309.301 69.0566 309.133 68.9737C308.965 68.8885 308.774 68.8459 308.561 68.8459C308.339 68.8459 308.145 68.8909 307.979 68.9808C307.813 69.0708 307.685 69.1998 307.595 69.3679C307.505 69.536 307.46 69.736 307.46 69.968H306.001C306.001 69.4922 306.109 69.0791 306.324 68.7287C306.539 68.3783 306.841 68.1072 307.23 67.9155C307.618 67.7237 308.065 67.6278 308.572 67.6278C309.093 67.6278 309.546 67.7202 309.932 67.9048C310.32 68.0871 310.622 68.3404 310.838 68.6648C311.053 68.9891 311.161 69.3608 311.161 69.7798C311.161 70.0545 311.106 70.3255 310.997 70.593C310.891 70.8606 310.7 71.1577 310.426 71.4844C310.151 71.8087 309.764 72.1982 309.264 72.6527L308.203 73.6932V73.7429H311.257V75H306.072ZM315.553 67.3864L313.209 76.0938H311.906L314.249 67.3864H315.553ZM319.431 67.7273V75H317.894V69.1868H317.851L316.186 70.2308V68.8672L317.986 67.7273H319.431ZM324.011 75.1598C323.401 75.1574 322.875 75.0071 322.435 74.7088C321.997 74.4105 321.659 73.9785 321.423 73.4126C321.188 72.8468 321.072 72.1662 321.075 71.3707C321.075 70.5777 321.192 69.9018 321.426 69.343C321.663 68.7843 322 68.3594 322.438 68.0682C322.879 67.7746 323.403 67.6278 324.011 67.6278C324.62 67.6278 325.143 67.7746 325.581 68.0682C326.021 68.3617 326.36 68.7879 326.597 69.3466C326.833 69.9029 326.951 70.5777 326.948 71.3707C326.948 72.1686 326.83 72.8504 326.593 73.4162C326.359 73.982 326.022 74.4141 325.585 74.7124C325.147 75.0107 324.622 75.1598 324.011 75.1598ZM324.011 73.8849C324.428 73.8849 324.761 73.6754 325.009 73.2564C325.258 72.8374 325.381 72.2088 325.379 71.3707C325.379 70.8191 325.322 70.3598 325.208 69.9929C325.097 69.6259 324.938 69.3501 324.732 69.1655C324.529 68.9808 324.288 68.8885 324.011 68.8885C323.597 68.8885 323.266 69.0956 323.017 69.5099C322.768 69.9242 322.643 70.5445 322.641 71.3707C322.641 71.9295 322.696 72.3958 322.808 72.7699C322.921 73.1416 323.081 73.4209 323.287 73.608C323.493 73.7926 323.734 73.8849 324.011 73.8849ZM331.226 67.3864L328.883 76.0938H327.579L329.923 67.3864H331.226ZM331.941 75V73.892L334.53 71.495C334.75 71.282 334.935 71.0902 335.084 70.9197C335.235 70.7493 335.35 70.5824 335.428 70.419C335.506 70.2533 335.545 70.0746 335.545 69.8828C335.545 69.6697 335.497 69.4863 335.4 69.3324C335.303 69.1761 335.17 69.0566 335.002 68.9737C334.834 68.8885 334.643 68.8459 334.43 68.8459C334.208 68.8459 334.014 68.8909 333.848 68.9808C333.682 69.0708 333.554 69.1998 333.464 69.3679C333.375 69.536 333.33 69.736 333.33 69.968H331.87C331.87 69.4922 331.978 69.0791 332.193 68.7287C332.409 68.3783 332.71 68.1072 333.099 67.9155C333.487 67.7237 333.934 67.6278 334.441 67.6278C334.962 67.6278 335.415 67.7202 335.801 67.9048C336.189 68.0871 336.491 68.3404 336.707 68.6648C336.922 68.9891 337.03 69.3608 337.03 69.7798C337.03 70.0545 336.975 70.3255 336.866 70.593C336.76 70.8606 336.569 71.1577 336.295 71.4844C336.02 71.8087 335.633 72.1982 335.134 72.6527L334.072 73.6932V73.7429H337.126V75H331.941ZM340.928 75.0994C340.398 75.0994 339.925 75.0083 339.511 74.826C339.099 74.6413 338.774 74.388 338.535 74.0661C338.298 73.7417 338.176 73.3677 338.169 72.9439H339.717C339.727 73.1214 339.785 73.2777 339.891 73.4126C340 73.5452 340.144 73.6482 340.324 73.7216C340.504 73.795 340.707 73.8317 340.932 73.8317C341.166 73.8317 341.373 73.7902 341.553 73.7074C341.733 73.6245 341.874 73.5097 341.976 73.3629C342.077 73.2161 342.128 73.0469 342.128 72.8551C342.128 72.661 342.074 72.4893 341.965 72.3402C341.858 72.1887 341.705 72.0703 341.503 71.9851C341.305 71.8999 341.068 71.8572 340.793 71.8572H340.115V70.728H340.793C341.025 70.728 341.23 70.6877 341.407 70.6072C341.587 70.5268 341.727 70.4155 341.827 70.2734C341.926 70.129 341.976 69.9609 341.976 69.7692C341.976 69.5869 341.932 69.4271 341.844 69.2898C341.759 69.1501 341.638 69.0412 341.482 68.9631C341.328 68.8849 341.148 68.8459 340.942 68.8459C340.734 68.8459 340.543 68.8838 340.371 68.9595C340.198 69.0329 340.059 69.1383 339.955 69.2756C339.851 69.4129 339.795 69.5739 339.788 69.7585H338.314C338.322 69.3395 338.441 68.9702 338.673 68.6506C338.905 68.331 339.218 68.0812 339.611 67.9013C340.006 67.719 340.452 67.6278 340.949 67.6278C341.451 67.6278 341.89 67.719 342.267 67.9013C342.643 68.0836 342.936 68.3298 343.144 68.6399C343.355 68.9477 343.459 69.2933 343.456 69.6768C343.459 70.084 343.332 70.4238 343.077 70.696C342.823 70.9683 342.493 71.1411 342.086 71.2145V71.2713C342.621 71.34 343.028 71.5258 343.307 71.8288C343.589 72.1295 343.729 72.5059 343.726 72.9581C343.729 73.3724 343.609 73.7405 343.368 74.0625C343.129 74.3845 342.798 74.6378 342.377 74.8224C341.956 75.0071 341.473 75.0994 340.928 75.0994Z" fill="black"/>
<path d="M43.31 98.49H49.69V99.58H43.31V98.49ZM44.62 101.26V102.25H48.27V101.26H44.62ZM43.53 100.28H49.42V103.23H43.53V100.28ZM44.47 103.33C45.36 104.77 47.25 105.58 49.84 105.82C49.59 106.08 49.29 106.56 49.14 106.89C46.43 106.52 44.58 105.51 43.49 103.63L44.47 103.33ZM45.84 97.57H47.02V102.14C47.02 104.18 46.51 106.04 43.64 106.9C43.5 106.63 43.15 106.15 42.89 105.9C45.58 105.3 45.84 103.77 45.84 102.13V97.57ZM42.55 97.48L43.67 97.84C42.99 99.54 41.89 101.33 40.75 102.46C40.65 102.18 40.33 101.52 40.13 101.23C41.08 100.33 42.01 98.91 42.55 97.48ZM41.58 100.27L42.71 99.13L42.72 99.14V106.92H41.58V100.27ZM52.1 98.18H58.24V99.32H52.1V98.18ZM52.1 100.48H58.26V101.6H52.1V100.48ZM52.08 102.84H58.3V103.97H52.08V102.84ZM51.41 98.18H52.6V101.78C52.6 103.37 52.4 105.62 51.17 106.96C50.98 106.73 50.49 106.33 50.23 106.18C51.32 104.97 51.41 103.18 51.41 101.77V98.18ZM57.82 98.18H59.01V105.49C59.01 106.13 58.87 106.45 58.47 106.64C58.05 106.83 57.45 106.85 56.54 106.84C56.49 106.52 56.31 106 56.15 105.69C56.72 105.73 57.38 105.72 57.56 105.72C57.75 105.71 57.82 105.65 57.82 105.48V98.18ZM54.49 98.63H55.71V106.78H54.49V98.63ZM60.54 98.08H69.5V99.09H60.54V98.08ZM62.65 97.51H63.84V99.74H62.65V97.51ZM66.14 97.51H67.34V99.74H66.14V97.51ZM64.14 101.98V102.49H65.85V101.98H64.14ZM64.14 100.74V101.25H65.85V100.74H64.14ZM63.08 99.97H66.96V103.27H63.08V99.97ZM64.46 99.24L65.64 99.41C65.43 99.83 65.24 100.2 65.1 100.48L64.1 100.29C64.23 99.98 64.38 99.55 64.46 99.24ZM68.27 99.6L69.3 100.09C68.9 100.61 68.4 101.12 68.01 101.46L67.08 101.01C67.47 100.64 67.98 100.04 68.27 99.6ZM60.54 103.71H69.46V104.72H60.54V103.71ZM64.39 103.11H65.58V106.89H64.39V103.11ZM64.06 104.1L64.97 104.5C64.07 105.55 62.54 106.42 61.02 106.84C60.87 106.55 60.54 106.13 60.3 105.9C61.76 105.59 63.28 104.91 64.06 104.1ZM65.87 104.17C66.63 104.97 68.16 105.59 69.69 105.85C69.45 106.07 69.14 106.51 68.99 106.79C67.41 106.42 65.9 105.6 65 104.51L65.87 104.17ZM60.69 100.23L61.56 99.63C62.02 100 62.56 100.55 62.79 100.95L61.86 101.61C61.66 101.21 61.14 100.63 60.69 100.23ZM66.81 102.23L67.49 101.49C68.11 101.83 69.02 102.35 69.46 102.7L68.75 103.52C68.33 103.16 67.45 102.6 66.81 102.23ZM60.49 102.5C61.08 102.29 61.93 101.92 62.79 101.57L63.04 102.51C62.34 102.86 61.59 103.21 60.97 103.51L60.49 102.5ZM76.21 98.47H77.34V104.13H76.21V98.47ZM78.17 97.71H79.34V105.47C79.34 106.14 79.21 106.47 78.82 106.66C78.43 106.86 77.83 106.9 76.97 106.89C76.93 106.56 76.75 106.01 76.59 105.67C77.16 105.7 77.74 105.7 77.93 105.69C78.11 105.69 78.17 105.63 78.17 105.46V97.71ZM70.4 98.37H75.94V99.4H70.4V98.37ZM71.67 102.48H74.63V103.42H71.67V102.48ZM71.67 104.04H74.63V105.01H71.67V104.04ZM72.51 97.58H73.69V98.99H72.51V97.58ZM74.24 101.99H75.39V106.89H74.24V101.99ZM74.33 98.96L75.43 99.28C74.5 100.82 72.71 101.69 70.72 102.18C70.61 101.92 70.32 101.42 70.12 101.18C71.97 100.84 73.63 100.16 74.33 98.96ZM71.92 98.93C73.15 100.49 74.63 100.81 76.12 101.02C75.86 101.28 75.59 101.71 75.48 102.07C73.91 101.75 72.29 101.26 70.94 99.29L71.92 98.93ZM71.16 101.98H72.31V103.47C72.31 104.47 72.16 106.01 71.18 106.94C70.96 106.76 70.51 106.47 70.22 106.35C71.06 105.53 71.16 104.25 71.16 103.44V101.98Z" fill="black"/>
<path d="M55.42 120.08H58.19V120.96H55.42V120.08ZM55.42 121.72H58.19V122.57H55.42V121.72ZM55.42 123.39H58.19V124.28H55.42V123.39ZM59.75 122.26H63.52V123.27H59.75V122.26ZM55.91 118.44H57.49V119.34H55.91V118.44ZM59 118.02H62.71V119H59V118.02ZM59 124.17H63.71V125.21H59V124.17ZM60.87 121.36H62.01V126.87H60.87V121.36ZM56.5 120.54H57.3V123.72H56.5V120.54ZM62.39 118.02H63.46C63.46 118.02 63.45 118.27 63.44 118.4C63.39 120.01 63.3 120.7 63.08 120.96C62.92 121.17 62.73 121.25 62.47 121.29C62.25 121.32 61.86 121.33 61.46 121.31C61.44 121.01 61.34 120.61 61.19 120.35C61.51 120.38 61.77 120.39 61.9 120.39C62.03 120.39 62.11 120.37 62.18 120.28C62.29 120.15 62.35 119.61 62.39 118.16V118.02ZM59.55 121.43L60.53 121.62C60.35 122.54 60.02 123.46 59.63 124.05C59.43 123.91 58.99 123.69 58.75 123.58C59.14 123.05 59.41 122.23 59.55 121.43ZM55.67 117.5L56.74 117.73C56.38 119.11 55.76 120.46 55.04 121.31C54.86 121.12 54.43 120.76 54.19 120.6C54.87 119.86 55.4 118.69 55.67 117.5ZM54.98 120.08H55.94V122.73C55.94 124.01 55.81 125.79 55.08 126.92C54.9 126.76 54.47 126.49 54.24 126.39C54.92 125.35 54.98 123.86 54.98 122.73V120.08ZM57.87 120.08H58.85V125.75C58.85 126.22 58.76 126.52 58.46 126.7C58.15 126.87 57.74 126.89 57.13 126.89C57.09 126.61 56.93 126.15 56.79 125.88C57.18 125.9 57.58 125.9 57.7 125.89C57.82 125.89 57.87 125.85 57.87 125.73V120.08ZM60.2 118.35H61.27C61.15 119.81 60.81 120.93 59.32 121.59C59.2 121.34 58.93 120.95 58.69 120.77C59.89 120.28 60.1 119.43 60.2 118.35ZM57.21 118.44H57.44L57.59 118.39L58.27 118.82C58.05 119.45 57.66 120.24 57.35 120.74C57.16 120.6 56.83 120.4 56.62 120.29C56.84 119.83 57.09 119.09 57.21 118.62V118.44ZM64.88 118.06H68.61V118.87H64.88V118.06ZM69.12 118.8H72.17V119.85H69.12V118.8ZM64.54 119.35H68.9V120.18H64.54V119.35ZM66.21 117.53H67.28V119.78H66.21V117.53ZM66.21 121.4H67.28V123.83H66.21V121.4ZM64.75 121.95H68.64V122.8H64.75V121.95ZM64.45 123.53C65.57 123.46 67.27 123.32 68.88 123.17L68.89 124.07C67.33 124.23 65.71 124.39 64.53 124.5L64.45 123.53ZM66.95 119.88H67.8V120.6C67.8 120.78 67.81 120.79 67.92 120.79C67.96 120.79 68.1 120.79 68.15 120.79C68.26 120.79 68.29 120.74 68.32 120.33C68.47 120.46 68.81 120.57 69.04 120.62C68.96 121.33 68.74 121.52 68.27 121.52C68.14 121.52 67.9 121.52 67.77 121.52C67.09 121.52 66.95 121.31 66.95 120.6V119.88ZM70.02 117.51H71.09C71.06 120.82 70.97 123.18 69.31 124.57C69.16 124.32 68.84 123.95 68.59 123.79C70.01 122.57 69.99 120.52 70.02 117.51ZM68.92 121.31L69.4 120.42C70.17 120.87 71.22 121.56 71.71 122.04L71.2 123.06C70.73 122.54 69.7 121.8 68.92 121.31ZM71.6 118.8H72.68V122.97C72.68 123.2 72.68 123.33 72.7 123.37C72.72 123.41 72.75 123.42 72.79 123.42C72.82 123.42 72.87 123.42 72.9 123.42C72.95 123.42 72.99 123.41 73.01 123.37C73.05 123.33 73.06 123.24 73.07 123.06C73.09 122.87 73.1 122.46 73.1 121.94C73.29 122.11 73.6 122.26 73.85 122.34C73.84 122.85 73.79 123.47 73.74 123.71C73.69 123.95 73.59 124.11 73.45 124.21C73.31 124.32 73.11 124.37 72.91 124.37C72.77 124.37 72.59 124.37 72.46 124.37C72.24 124.37 71.99 124.29 71.82 124.12C71.66 123.95 71.6 123.74 71.6 123V118.8ZM67.27 125.03L68.39 124.92C68.52 125.49 68.62 126.22 68.63 126.67L67.43 126.82C67.43 126.36 67.37 125.61 67.27 125.03ZM69.27 125.02L70.4 124.84C70.64 125.39 70.87 126.12 70.95 126.58L69.75 126.8C69.69 126.34 69.49 125.59 69.27 125.02ZM71.27 125L72.43 124.65C72.86 125.22 73.41 126 73.66 126.52L72.43 126.92C72.21 126.41 71.71 125.59 71.27 125ZM65.52 124.69L66.69 124.99C66.43 125.68 65.97 126.43 65.5 126.9L64.35 126.44C64.8 126.05 65.26 125.36 65.52 124.69ZM65.57 119.93H66.48C66.4 120.9 66.09 121.48 64.81 121.78C64.73 121.57 64.5 121.24 64.32 121.08C65.31 120.89 65.52 120.57 65.57 119.93ZM80.21 118.47H81.34V124.13H80.21V118.47ZM82.17 117.71H83.34V125.47C83.34 126.14 83.21 126.47 82.82 126.66C82.43 126.86 81.83 126.9 80.97 126.89C80.93 126.56 80.75 126.01 80.59 125.67C81.16 125.7 81.74 125.7 81.93 125.69C82.11 125.69 82.17 125.63 82.17 125.46V117.71ZM74.4 118.37H79.94V119.4H74.4V118.37ZM75.67 122.48H78.63V123.42H75.67V122.48ZM75.67 124.04H78.63V125.01H75.67V124.04ZM76.51 117.58H77.69V118.99H76.51V117.58ZM78.24 121.99H79.39V126.89H78.24V121.99ZM78.33 118.96L79.43 119.28C78.5 120.82 76.71 121.69 74.72 122.18C74.61 121.92 74.32 121.42 74.12 121.18C75.97 120.84 77.63 120.16 78.33 118.96ZM75.92 118.93C77.15 120.49 78.63 120.81 80.12 121.02C79.86 121.28 79.59 121.71 79.48 122.07C77.91 121.75 76.29 121.26 74.94 119.29L75.92 118.93ZM75.16 121.98H76.31V123.47C76.31 124.47 76.16 126.01 75.18 126.94C74.96 126.76 74.51 126.47 74.22 126.35C75.06 125.53 75.16 124.25 75.16 123.44V121.98Z" fill="black"/>
<path d="M110.29 120.9H115.73V122.03H110.29V120.9ZM109.21 117.89H112.04V118.93H109.21V117.89ZM108.99 123.17H116.96V124.27H108.99V123.17ZM111.62 117.89H111.83L112.04 117.85L112.84 118.22C112.16 120.26 110.66 121.69 108.95 122.5C108.79 122.23 108.46 121.82 108.22 121.6C109.71 120.98 111.1 119.62 111.62 118.1V117.89ZM111.14 121.47H112.33V123.2C112.33 124.62 111.97 126.11 109.5 126.94C109.35 126.67 108.98 126.2 108.73 125.99C110.86 125.32 111.14 124.21 111.14 123.18V121.47ZM114.09 117.52C114.73 119.24 116.04 120.73 117.8 121.43C117.52 121.67 117.15 122.15 116.96 122.47C115.1 121.59 113.8 119.91 113.02 117.83L114.09 117.52ZM108.9 119.71L109.66 119.08C110.04 119.35 110.56 119.74 110.82 120.01L110.03 120.7C109.79 120.44 109.29 120.01 108.9 119.71ZM115.49 117.67L116.39 118.3C115.87 118.78 115.26 119.28 114.79 119.59L114.07 119.04C114.52 118.69 115.14 118.1 115.49 117.67ZM116.68 118.81L117.56 119.43C117.02 119.92 116.36 120.44 115.85 120.78L115.13 120.23C115.62 119.87 116.29 119.26 116.68 118.81ZM113.57 121.52H114.82V125.35C114.82 125.72 114.86 125.77 115.14 125.77C115.26 125.77 115.76 125.77 115.9 125.77C116.17 125.77 116.22 125.58 116.26 124.64C116.51 124.83 117 125.03 117.33 125.1C117.22 126.43 116.9 126.84 116.02 126.84C115.8 126.84 115.14 126.84 114.92 126.84C113.83 126.84 113.57 126.48 113.57 125.35V121.52ZM118.88 118.06H122.61V118.87H118.88V118.06ZM123.12 118.8H126.17V119.85H123.12V118.8ZM118.54 119.35H122.9V120.18H118.54V119.35ZM120.21 117.53H121.28V119.78H120.21V117.53ZM120.21 121.4H121.28V123.83H120.21V121.4ZM118.75 121.95H122.64V122.8H118.75V121.95ZM118.45 123.53C119.57 123.46 121.27 123.32 122.88 123.17L122.89 124.07C121.33 124.23 119.71 124.39 118.53 124.5L118.45 123.53ZM120.95 119.88H121.8V120.6C121.8 120.78 121.81 120.79 121.92 120.79C121.96 120.79 122.1 120.79 122.15 120.79C122.26 120.79 122.29 120.74 122.32 120.33C122.47 120.46 122.81 120.57 123.04 120.62C122.96 121.33 122.74 121.52 122.27 121.52C122.14 121.52 121.9 121.52 121.77 121.52C121.09 121.52 120.95 121.31 120.95 120.6V119.88ZM124.02 117.51H125.09C125.06 120.82 124.97 123.18 123.31 124.57C123.16 124.32 122.84 123.95 122.59 123.79C124.01 122.57 123.99 120.52 124.02 117.51ZM122.92 121.31L123.4 120.42C124.17 120.87 125.22 121.56 125.71 122.04L125.2 123.06C124.73 122.54 123.7 121.8 122.92 121.31ZM125.6 118.8H126.68V122.97C126.68 123.2 126.68 123.33 126.7 123.37C126.72 123.41 126.75 123.42 126.79 123.42C126.82 123.42 126.87 123.42 126.9 123.42C126.95 123.42 126.99 123.41 127.01 123.37C127.05 123.33 127.06 123.24 127.07 123.06C127.09 122.87 127.1 122.46 127.1 121.94C127.29 122.11 127.6 122.26 127.85 122.34C127.84 122.85 127.79 123.47 127.74 123.71C127.69 123.95 127.59 124.11 127.45 124.21C127.31 124.32 127.11 124.37 126.91 124.37C126.77 124.37 126.59 124.37 126.46 124.37C126.24 124.37 125.99 124.29 125.82 124.12C125.66 123.95 125.6 123.74 125.6 123V118.8ZM121.27 125.03L122.39 124.92C122.52 125.49 122.62 126.22 122.63 126.67L121.43 126.82C121.43 126.36 121.37 125.61 121.27 125.03ZM123.27 125.02L124.4 124.84C124.64 125.39 124.87 126.12 124.95 126.58L123.75 126.8C123.69 126.34 123.49 125.59 123.27 125.02ZM125.27 125L126.43 124.65C126.86 125.22 127.41 126 127.66 126.52L126.43 126.92C126.21 126.41 125.71 125.59 125.27 125ZM119.52 124.69L120.69 124.99C120.43 125.68 119.97 126.43 119.5 126.9L118.35 126.44C118.8 126.05 119.26 125.36 119.52 124.69ZM119.57 119.93H120.48C120.4 120.9 120.09 121.48 118.81 121.78C118.73 121.57 118.5 121.24 118.32 121.08C119.31 120.89 119.52 120.57 119.57 119.93ZM132.86 117.98C132.78 118.35 132.65 118.94 132.37 119.66C132.16 120.15 131.87 120.72 131.59 121.12C131.86 121 132.39 120.93 132.73 120.93C133.56 120.93 134.19 121.42 134.19 122.35C134.19 122.89 134.22 123.98 134.23 124.61H133.03C133.07 124.14 133.09 123.29 133.08 122.75C133.08 122.11 132.68 121.9 132.26 121.9C131.71 121.9 131.08 122.23 130.7 122.59C130.4 122.89 130.12 123.25 129.78 123.69L128.71 122.89C129.99 121.71 130.76 120.63 131.18 119.53C131.38 118.99 131.51 118.38 131.54 117.87L132.86 117.98ZM129.09 118.91C129.6 118.98 130.34 119.02 130.85 119.02C132.17 119.02 133.98 118.95 135.43 118.69L135.42 119.85C134.01 120.05 132 120.14 130.78 120.14C130.37 120.14 129.64 120.12 129.09 120.07V118.91ZM137.01 121.75C136.7 121.84 136.16 122.04 135.82 122.17C135.17 122.42 134.27 122.78 133.33 123.26C132.42 123.73 131.93 124.16 131.93 124.71C131.93 125.26 132.41 125.41 133.38 125.41C134.23 125.41 135.35 125.3 136.23 125.12L136.19 126.41C135.52 126.5 134.3 126.59 133.35 126.59C131.79 126.59 130.62 126.2 130.62 124.91C130.62 123.52 132.05 122.7 133.25 122.1C134.17 121.62 134.8 121.38 135.4 121.1C135.79 120.93 136.14 120.77 136.52 120.58L137.01 121.75ZM143.76 117.49L144.72 118.33C143.97 118.79 143.05 119.23 142.28 119.57C142.21 119.34 142.03 118.95 141.88 118.73C142.55 118.38 143.3 117.89 143.76 117.49ZM141.6 118.49L142.73 118.77V124.78H141.6V118.49ZM140.89 124.69C141.6 124.46 142.64 124.04 143.66 123.64L143.92 124.68C143.08 125.07 142.16 125.47 141.41 125.77L140.89 124.69ZM143.94 118.77H146.84V119.82H145.09V126.9H143.94V118.77ZM146.22 118.77H147.37V124.55C147.37 125.06 147.29 125.4 146.96 125.6C146.65 125.8 146.25 125.83 145.68 125.83C145.64 125.5 145.46 124.98 145.3 124.67C145.63 124.69 145.96 124.69 146.07 124.69C146.18 124.68 146.22 124.64 146.22 124.52V118.77ZM138.2 122.56C138.99 122.38 140.17 122.07 141.29 121.75L141.45 122.83C140.43 123.14 139.34 123.46 138.47 123.71L138.2 122.56ZM138.37 119.41H141.41V120.51H138.37V119.41ZM139.42 117.52H140.52V125.63C140.52 126.19 140.42 126.5 140.11 126.68C139.81 126.87 139.38 126.91 138.73 126.91C138.7 126.61 138.56 126.12 138.42 125.79C138.78 125.81 139.13 125.81 139.25 125.8C139.37 125.8 139.42 125.77 139.42 125.63V117.52ZM151.12 117.9C152.24 118.11 154.16 118.32 155.19 118.38L155.03 119.56C153.98 119.47 152.12 119.25 150.92 119.06L151.12 117.9ZM155.55 121.07C155.28 121.25 155.07 121.43 154.89 121.58C154.44 121.97 153.5 122.84 153.26 123.09C153.35 123.09 153.53 123.12 153.65 123.17C153.93 123.25 154.11 123.47 154.25 123.85C154.34 124.11 154.45 124.49 154.53 124.76C154.63 125.07 154.85 125.22 155.24 125.22C156 125.22 156.69 125.15 157.2 125.05L157.11 126.36C156.7 126.43 155.67 126.5 155.15 126.5C154.21 126.5 153.69 126.29 153.45 125.65C153.34 125.35 153.23 124.88 153.15 124.63C153.04 124.27 152.83 124.14 152.62 124.14C152.42 124.14 152.21 124.3 151.97 124.55C151.62 124.9 150.87 125.72 150.18 126.59L149 125.77C149.18 125.61 149.42 125.4 149.69 125.14C150.21 124.62 152.25 122.59 153.16 121.63C152.46 121.65 151.27 121.75 150.7 121.8C150.35 121.83 150.04 121.88 149.83 121.92L149.72 120.54C149.95 120.56 150.31 120.57 150.67 120.57C151.15 120.56 153.41 120.46 154.25 120.36C154.43 120.34 154.71 120.28 154.81 120.24L155.55 121.07ZM159.897 118.39C160.177 118.42 160.517 118.44 160.797 118.44C161.337 118.44 163.467 118.39 164.037 118.34C164.457 118.31 164.687 118.27 164.807 118.23L165.447 119.13C165.217 119.28 164.977 119.42 164.757 119.59C164.217 119.97 163.167 120.85 162.527 121.35C162.867 121.26 163.167 121.24 163.477 121.24C165.177 121.24 166.467 122.3 166.467 123.75C166.467 125.33 165.267 126.58 162.847 126.58C161.457 126.58 160.407 125.95 160.407 124.94C160.407 124.13 161.147 123.39 162.207 123.39C163.577 123.39 164.337 124.31 164.367 125.41L163.197 125.56C163.177 124.84 162.797 124.34 162.207 124.34C161.837 124.34 161.587 124.57 161.587 124.83C161.587 125.2 161.997 125.45 162.607 125.45C164.297 125.45 165.157 124.81 165.157 123.74C165.157 122.83 164.257 122.22 163.087 122.22C161.547 122.22 160.557 123.04 159.487 124.25L158.577 123.31C159.287 122.75 160.497 121.73 161.077 121.24C161.637 120.78 162.687 119.94 163.177 119.5C162.667 119.52 161.287 119.57 160.747 119.61C160.477 119.63 160.167 119.65 159.937 119.69L159.897 118.39Z" fill="black"/>
<path d="M265.754 118.727V126H264.216V120.187H264.173L262.508 121.231V119.867L264.308 118.727H265.754ZM270.933 121.3V123.03H272.703V121.3H270.933ZM269.803 120.25H273.903V124.07H269.803V120.25ZM267.603 117.85H276.183V126.9H274.883V119.07H268.843V126.9H267.603V117.85ZM268.303 125.24H275.623V126.36H268.303V125.24ZM280.664 118.386L278.32 127.094H277.017L279.361 118.386H280.664ZM282.319 118.11H289.299V126.77H288.009V119.32H283.559V126.78H282.319V118.11ZM283.169 121.47H288.549V122.66H283.169V121.47ZM283.159 124.92H288.549V126.13H283.159V124.92Z" fill="black"/>
<path d="M305.85 126.13C304.59 126.13 303.76 125.68 303.09 125.03L303.78 124.11C304.31 124.6 304.88 124.93 305.68 124.93C306.53 124.93 307.2 124.47 307.2 123.58C307.2 122.7 306.54 122.24 305.71 122.24C305.17 122.24 304.75 122.34 304.27 122.65L303.59 122.22L303.8 118.57H308.37V119.82H305.06L304.93 121.41C305.29 121.25 305.68 121.17 306.13 121.17C307.47 121.17 308.68 121.92 308.68 123.54C308.68 125.22 307.35 126.13 305.85 126.13ZM312.53 118.11H319.51V126.77H318.22V119.32H313.77V126.78H312.53V118.11ZM313.38 121.47H318.76V122.66H313.38V121.47ZM313.37 124.92H318.76V126.13H313.37V124.92ZM324.62 123.61H327.36V124.47H324.62V123.61ZM324.55 122.13H327.92V125.97H324.55V125.09H326.8V123.01H324.55V122.13ZM324.06 122.13H325.14V126.48H324.06V122.13ZM322.38 119.28H324.89V120.09H322.38V119.28ZM327.02 119.28H329.55V120.09H327.02V119.28ZM329.06 117.89H330.27V125.48C330.27 126.13 330.14 126.48 329.74 126.68C329.34 126.88 328.76 126.9 327.9 126.9C327.85 126.56 327.67 126 327.51 125.68C328.03 125.71 328.64 125.7 328.82 125.7C329 125.7 329.06 125.64 329.06 125.47V117.89ZM322.48 117.89H325.64V121.52H322.48V120.66H324.52V118.76H322.48V117.89ZM329.7 117.89V118.76H327.46V120.69H329.7V121.55H326.32V117.89H329.7ZM321.79 117.89H322.98V126.9H321.79V117.89Z" fill="black"/>
<path d="M58.37 138.3H63.56V139.25H58.37V138.3ZM58.24 144.04H63.71V144.99H58.24V144.04ZM60.38 137.5H61.53V140.05H60.38V137.5ZM59.85 141.46V141.87H62.03V141.46H59.85ZM59.85 142.53V142.94H62.03V142.53H59.85ZM59.85 140.41V140.81H62.03V140.41H59.85ZM58.8 139.72H63.13V143.63H58.8V139.72ZM59.49 144.92L60.59 145.31C60.06 145.95 59.19 146.57 58.43 146.94C58.25 146.72 57.84 146.28 57.6 146.08C58.32 145.81 59.08 145.38 59.49 144.92ZM61.19 145.37L62.2 144.86C62.79 145.29 63.47 145.87 63.84 146.28L62.81 146.92C62.48 146.5 61.77 145.83 61.19 145.37ZM55 140H58V141H55V140ZM54.54 141.73H58.2V142.75H54.54V141.73ZM54.62 143.31L55.38 143.12C55.55 143.68 55.69 144.38 55.74 144.86L54.93 145.07C54.91 144.59 54.77 143.87 54.62 143.31ZM54.41 145.6C55.39 145.46 56.88 145.19 58.28 144.93L58.36 145.92C57.07 146.2 55.69 146.48 54.64 146.69L54.41 145.6ZM57.39 143.04L58.25 143.25C58.07 143.82 57.91 144.45 57.76 144.87L57.04 144.67C57.17 144.22 57.32 143.52 57.39 143.04ZM55.89 140.4H56.92V145.79L55.89 145.97V140.4ZM55.84 137.51H56.47V137.73H56.81V138.04C56.42 138.8 55.81 139.83 54.82 140.73C54.66 140.49 54.32 140.11 54.1 139.95C54.94 139.23 55.53 138.29 55.84 137.51ZM55.99 137.51H56.83C57.41 138.01 58.16 138.72 58.52 139.23L57.75 140.15C57.43 139.65 56.75 138.81 56.2 138.36H55.99V137.51ZM67.6 139.76H72.22V140.59H67.6V139.76ZM68.02 144.46H72.6V145.29H68.02V144.46ZM68.02 143.1H72.6V143.93H68.02V143.1ZM69.67 142.28H70.77V146.76H69.67V142.28ZM67.35 141.71H72.36V142.58H68.45V146.89H67.35V141.71ZM72.07 141.71H73.18V145.88C73.18 146.36 73.08 146.58 72.76 146.72C72.44 146.87 71.99 146.87 71.37 146.87C71.33 146.61 71.19 146.26 71.07 146.02C71.4 146.03 71.79 146.03 71.9 146.02C72.03 146.02 72.07 145.98 72.07 145.87V141.71ZM71.83 139.76H72.12L72.37 139.7L73.05 140.32C72.33 140.88 71.37 141.49 70.48 141.89C70.36 141.72 70.08 141.42 69.94 141.28C70.62 140.95 71.45 140.36 71.83 139.97V139.76ZM68.28 141.24L68.94 140.6C69.87 140.92 71.01 141.43 71.68 141.79L71.01 142.5C70.36 142.1 69.2 141.56 68.28 141.24ZM66.4 138.37H73.59V139.4H66.4V138.37ZM65.75 138.37H66.87V141.55C66.87 143.16 66.66 145.48 65.34 146.87C65.18 146.63 64.73 146.2 64.5 146.06C65.65 144.81 65.75 142.97 65.75 141.55V138.37ZM68.84 137.51H70.11V139.25H68.84V137.51ZM64.23 139.68L65.08 139.26C65.39 139.85 65.7 140.63 65.79 141.13L64.88 141.61C64.8 141.1 64.51 140.29 64.23 139.68ZM64.14 143.09C64.62 142.89 65.29 142.56 65.97 142.21L66.25 143.15C65.67 143.51 65.06 143.88 64.49 144.21L64.14 143.09ZM74.54 138.08H83.5V139.09H74.54V138.08ZM76.65 137.51H77.84V139.74H76.65V137.51ZM80.14 137.51H81.34V139.74H80.14V137.51ZM78.14 141.98V142.49H79.85V141.98H78.14ZM78.14 140.74V141.25H79.85V140.74H78.14ZM77.08 139.97H80.96V143.27H77.08V139.97ZM78.46 139.24L79.64 139.41C79.43 139.83 79.24 140.2 79.1 140.48L78.1 140.29C78.23 139.98 78.38 139.55 78.46 139.24ZM82.27 139.6L83.3 140.09C82.9 140.61 82.4 141.12 82.01 141.46L81.08 141.01C81.47 140.64 81.98 140.04 82.27 139.6ZM74.54 143.71H83.46V144.72H74.54V143.71ZM78.39 143.11H79.58V146.89H78.39V143.11ZM78.06 144.1L78.97 144.5C78.07 145.55 76.54 146.42 75.02 146.84C74.87 146.55 74.54 146.13 74.3 145.9C75.76 145.59 77.28 144.91 78.06 144.1ZM79.87 144.17C80.63 144.97 82.16 145.59 83.69 145.85C83.45 146.07 83.14 146.51 82.99 146.79C81.41 146.42 79.9 145.6 79 144.51L79.87 144.17ZM74.69 140.23L75.56 139.63C76.02 140 76.56 140.55 76.79 140.95L75.86 141.61C75.66 141.21 75.14 140.63 74.69 140.23ZM80.81 142.23L81.49 141.49C82.11 141.83 83.02 142.35 83.46 142.7L82.75 143.52C82.33 143.16 81.45 142.6 80.81 142.23ZM74.49 142.5C75.08 142.29 75.93 141.92 76.79 141.57L77.04 142.51C76.34 142.86 75.59 143.21 74.97 143.51L74.49 142.5Z" fill="black"/>
<path d="M110.29 140.9H115.73V142.03H110.29V140.9ZM109.21 137.89H112.04V138.93H109.21V137.89ZM108.99 143.17H116.96V144.27H108.99V143.17ZM111.62 137.89H111.83L112.04 137.85L112.84 138.22C112.16 140.26 110.66 141.69 108.95 142.5C108.79 142.23 108.46 141.82 108.22 141.6C109.71 140.98 111.1 139.62 111.62 138.1V137.89ZM111.14 141.47H112.33V143.2C112.33 144.62 111.97 146.11 109.5 146.94C109.35 146.67 108.98 146.2 108.73 145.99C110.86 145.32 111.14 144.21 111.14 143.18V141.47ZM114.09 137.52C114.73 139.24 116.04 140.73 117.8 141.43C117.52 141.67 117.15 142.15 116.96 142.47C115.1 141.59 113.8 139.91 113.02 137.83L114.09 137.52ZM108.9 139.71L109.66 139.08C110.04 139.35 110.56 139.74 110.82 140.01L110.03 140.7C109.79 140.44 109.29 140.01 108.9 139.71ZM115.49 137.67L116.39 138.3C115.87 138.78 115.26 139.28 114.79 139.59L114.07 139.04C114.52 138.69 115.14 138.1 115.49 137.67ZM116.68 138.81L117.56 139.43C117.02 139.92 116.36 140.44 115.85 140.78L115.13 140.23C115.62 139.87 116.29 139.26 116.68 138.81ZM113.57 141.52H114.82V145.35C114.82 145.72 114.86 145.77 115.14 145.77C115.26 145.77 115.76 145.77 115.9 145.77C116.17 145.77 116.22 145.58 116.26 144.64C116.51 144.83 117 145.03 117.33 145.1C117.22 146.43 116.9 146.84 116.02 146.84C115.8 146.84 115.14 146.84 114.92 146.84C113.83 146.84 113.57 146.48 113.57 145.35V141.52ZM118.88 138.06H122.61V138.87H118.88V138.06ZM123.12 138.8H126.17V139.85H123.12V138.8ZM118.54 139.35H122.9V140.18H118.54V139.35ZM120.21 137.53H121.28V139.78H120.21V137.53ZM120.21 141.4H121.28V143.83H120.21V141.4ZM118.75 141.95H122.64V142.8H118.75V141.95ZM118.45 143.53C119.57 143.46 121.27 143.32 122.88 143.17L122.89 144.07C121.33 144.23 119.71 144.39 118.53 144.5L118.45 143.53ZM120.95 139.88H121.8V140.6C121.8 140.78 121.81 140.79 121.92 140.79C121.96 140.79 122.1 140.79 122.15 140.79C122.26 140.79 122.29 140.74 122.32 140.33C122.47 140.46 122.81 140.57 123.04 140.62C122.96 141.33 122.74 141.52 122.27 141.52C122.14 141.52 121.9 141.52 121.77 141.52C121.09 141.52 120.95 141.31 120.95 140.6V139.88ZM124.02 137.51H125.09C125.06 140.82 124.97 143.18 123.31 144.57C123.16 144.32 122.84 143.95 122.59 143.79C124.01 142.57 123.99 140.52 124.02 137.51ZM122.92 141.31L123.4 140.42C124.17 140.87 125.22 141.56 125.71 142.04L125.2 143.06C124.73 142.54 123.7 141.8 122.92 141.31ZM125.6 138.8H126.68V142.97C126.68 143.2 126.68 143.33 126.7 143.37C126.72 143.41 126.75 143.42 126.79 143.42C126.82 143.42 126.87 143.42 126.9 143.42C126.95 143.42 126.99 143.41 127.01 143.37C127.05 143.33 127.06 143.24 127.07 143.06C127.09 142.87 127.1 142.46 127.1 141.94C127.29 142.11 127.6 142.26 127.85 142.34C127.84 142.85 127.79 143.47 127.74 143.71C127.69 143.95 127.59 144.11 127.45 144.21C127.31 144.32 127.11 144.37 126.91 144.37C126.77 144.37 126.59 144.37 126.46 144.37C126.24 144.37 125.99 144.29 125.82 144.12C125.66 143.95 125.6 143.74 125.6 143V138.8ZM121.27 145.03L122.39 144.92C122.52 145.49 122.62 146.22 122.63 146.67L121.43 146.82C121.43 146.36 121.37 145.61 121.27 145.03ZM123.27 145.02L124.4 144.84C124.64 145.39 124.87 146.12 124.95 146.58L123.75 146.8C123.69 146.34 123.49 145.59 123.27 145.02ZM125.27 145L126.43 144.65C126.86 145.22 127.41 146 127.66 146.52L126.43 146.92C126.21 146.41 125.71 145.59 125.27 145ZM119.52 144.69L120.69 144.99C120.43 145.68 119.97 146.43 119.5 146.9L118.35 146.44C118.8 146.05 119.26 145.36 119.52 144.69ZM119.57 139.93H120.48C120.4 140.9 120.09 141.48 118.81 141.78C118.73 141.57 118.5 141.24 118.32 141.08C119.31 140.89 119.52 140.57 119.57 139.93ZM133.26 139.64C132.91 139.28 132.22 138.61 131.83 138.31L132.75 137.67C133.1 137.95 133.85 138.59 134.2 138.96L133.26 139.64ZM130.54 138.57C130.62 138.76 130.82 139.17 130.93 139.36C131.34 140.13 131.79 141.12 132.15 141.96C132.62 143.05 133.4 145.18 133.73 146.31L132.35 146.66C132.04 145.4 131.52 143.71 131.01 142.51C130.61 141.58 130.24 140.67 129.83 139.95C129.68 139.71 129.44 139.33 129.24 139.08L130.54 138.57ZM128.38 141.5C128.77 141.41 129.2 141.25 129.37 141.18C131.19 140.47 133.24 139.3 134.85 139.3C136.39 139.3 137.33 140.24 137.33 141.4C137.33 142.8 136.37 143.68 134.84 143.68C134.29 143.68 133.67 143.54 133.29 143.4L133.33 142.15C133.78 142.34 134.28 142.48 134.71 142.48C135.46 142.48 136.01 142.07 136.01 141.35C136.01 140.85 135.57 140.43 134.82 140.43C133.2 140.43 130.2 142.22 128.96 142.78L128.38 141.5ZM138.45 137.97H142.49V139.08H138.45V137.97ZM139.73 140.72V141.65H141.2V140.72H139.73ZM138.72 139.78H142.27V142.59H138.72V139.78ZM140.95 142.73L142.12 142.98C141.91 143.71 141.7 144.5 141.52 145.01L140.6 144.78C140.75 144.22 140.9 143.35 140.95 142.73ZM138.84 143.06L139.8 142.82C140.01 143.38 140.16 144.1 140.19 144.59L139.17 144.85C139.16 144.37 139.03 143.63 138.84 143.06ZM138.28 145.34C139.36 145.15 141 144.81 142.55 144.48L142.65 145.5C141.23 145.84 139.7 146.19 138.56 146.46L138.28 145.34ZM142.73 137.91H147.59V138.92H142.73V137.91ZM144.07 141.92V142.56H146.21V141.92H144.07ZM144.07 143.38V144.03H146.21V143.38H144.07ZM144.07 140.47V141.11H146.21V140.47H144.07ZM142.97 139.6H147.36V144.9H142.97V139.6ZM144.43 138.47L145.8 138.62C145.61 139.25 145.4 139.88 145.23 140.31L144.19 140.12C144.29 139.64 144.4 138.96 144.43 138.47ZM143.92 144.95L144.9 145.58C144.35 146.08 143.44 146.63 142.67 146.92C142.49 146.7 142.14 146.36 141.88 146.15C142.63 145.89 143.5 145.36 143.92 144.95ZM145.3 145.6L146.21 145.03C146.75 145.38 147.51 145.92 147.9 146.28L146.94 146.91C146.6 146.55 145.86 145.98 145.3 145.6ZM151.6 139.76H156.22V140.59H151.6V139.76ZM152.02 144.46H156.6V145.29H152.02V144.46ZM152.02 143.1H156.6V143.93H152.02V143.1ZM153.67 142.28H154.77V146.76H153.67V142.28ZM151.35 141.71H156.36V142.58H152.45V146.89H151.35V141.71ZM156.07 141.71H157.18V145.88C157.18 146.36 157.08 146.58 156.76 146.72C156.44 146.87 155.99 146.87 155.37 146.87C155.33 146.61 155.19 146.26 155.07 146.02C155.4 146.03 155.79 146.03 155.9 146.02C156.03 146.02 156.07 145.98 156.07 145.87V141.71ZM155.83 139.76H156.12L156.37 139.7L157.05 140.32C156.33 140.88 155.37 141.49 154.48 141.89C154.36 141.72 154.08 141.42 153.94 141.28C154.62 140.95 155.45 140.36 155.83 139.97V139.76ZM152.28 141.24L152.94 140.6C153.87 140.92 155.01 141.43 155.68 141.79L155.01 142.5C154.36 142.1 153.2 141.56 152.28 141.24ZM150.4 138.37H157.59V139.4H150.4V138.37ZM149.75 138.37H150.87V141.55C150.87 143.16 150.66 145.48 149.34 146.87C149.18 146.63 148.73 146.2 148.5 146.06C149.65 144.81 149.75 142.97 149.75 141.55V138.37ZM152.84 137.51H154.11V139.25H152.84V137.51ZM148.23 139.68L149.08 139.26C149.39 139.85 149.7 140.63 149.79 141.13L148.88 141.61C148.8 141.1 148.51 140.29 148.23 139.68ZM148.14 143.09C148.62 142.89 149.29 142.56 149.97 142.21L150.25 143.15C149.67 143.51 149.06 143.88 148.49 144.21L148.14 143.09ZM158.82 139.45C159.25 139.5 159.79 139.52 160.15 139.52C161.39 139.52 162.74 139.31 163.71 139L163.74 140.16C162.88 140.4 161.44 140.66 160.16 140.65C159.76 140.65 159.34 140.64 158.91 140.62L158.82 139.45ZM162.71 137.95C162.58 138.48 162.34 139.46 162.07 140.31C161.61 141.75 160.71 143.61 159.86 144.79L158.65 144.17C159.55 143.07 160.45 141.32 160.84 140.24C161.08 139.52 161.3 138.59 161.33 137.82L162.71 137.95ZM165.06 141.07C165.03 141.49 165.04 141.91 165.05 142.35C165.07 142.94 165.16 144.43 165.16 144.99C165.16 145.92 164.66 146.65 163.23 146.65C161.99 146.65 161.01 146.09 161.01 144.99C161.01 144.02 161.83 143.26 163.22 143.26C164.97 143.26 166.35 144.14 167.18 144.89L166.52 145.97C165.8 145.3 164.66 144.27 163.15 144.27C162.57 144.27 162.19 144.52 162.19 144.87C162.19 145.24 162.51 145.5 163.06 145.5C163.74 145.5 163.96 145.12 163.96 144.56C163.96 143.96 163.85 142.12 163.8 141.07H165.06ZM166.78 141.6C166.2 141.13 165.06 140.48 164.37 140.17L165.02 139.19C165.74 139.5 166.97 140.17 167.49 140.54L166.78 141.6ZM175.73 140.47C175.42 140.65 175.1 140.82 174.74 141C174.11 141.32 173.17 141.75 172.26 142.35C171.43 142.89 170.87 143.47 170.87 144.16C170.87 144.88 171.56 145.27 172.95 145.27C173.98 145.27 175.33 145.11 176.22 144.9L176.2 146.34C175.35 146.49 174.29 146.59 172.99 146.59C170.99 146.59 169.49 146.03 169.49 144.31C169.49 143.04 170.41 142.15 171.59 141.37C172.54 140.75 173.56 140.25 174.18 139.9C174.55 139.68 174.84 139.51 175.1 139.29L175.73 140.47ZM171.01 138.18C171.5 139.51 172.12 140.72 172.59 141.54L171.45 142.21C170.91 141.3 170.31 139.99 169.75 138.7L171.01 138.18ZM175.85 138.03C176.1 138.4 176.45 139.03 176.64 139.4L175.84 139.75C175.63 139.34 175.33 138.74 175.05 138.36L175.85 138.03ZM177.03 137.58C177.29 137.95 177.66 138.59 177.84 138.94L177.05 139.28C176.84 138.87 176.52 138.28 176.24 137.9L177.03 137.58ZM183.91 139.15C183.77 140.17 183.57 141.34 183.22 142.52C182.62 144.54 181.76 145.78 180.67 145.78C179.55 145.78 178.63 144.55 178.63 142.86C178.63 140.56 180.64 138.58 183.23 138.58C185.7 138.58 187.27 140.3 187.27 142.49C187.27 144.59 185.98 146.08 183.46 146.47L182.7 145.29C183.09 145.24 183.37 145.19 183.64 145.13C184.91 144.82 185.91 143.91 185.91 142.44C185.91 140.87 184.93 139.75 183.2 139.75C181.08 139.75 179.92 141.48 179.92 142.74C179.92 143.75 180.32 144.24 180.7 144.24C181.13 144.24 181.51 143.6 181.93 142.25C182.22 141.31 182.44 140.16 182.54 139.11L183.91 139.15ZM191.51 140.45H197.37V141.46H191.51V140.45ZM194.5 142.83H197.24V143.83H194.5V142.83ZM190.8 145.63H197.7V146.67H190.8V145.63ZM193.94 140.88H195.09V146.23H193.94V140.88ZM191.83 142.48H192.92V146.18H191.83V142.48ZM190.52 138.62H197.69V139.69H190.52V138.62ZM189.87 138.62H191.01V141.62C191.01 143.22 190.79 145.53 189.39 146.9C189.23 146.68 188.77 146.24 188.53 146.1C189.76 144.85 189.87 143.02 189.87 141.61V138.62ZM192.84 137.51H194.11V139.29H192.84V137.51ZM188.33 139.87L189.19 139.44C189.52 140.02 189.84 140.79 189.93 141.29L189.01 141.78C188.92 141.28 188.63 140.48 188.33 139.87ZM188.24 143.29C188.72 143.09 189.4 142.76 190.09 142.41L190.37 143.35C189.79 143.72 189.17 144.09 188.59 144.42L188.24 143.29ZM201.66 140.29H207.56V141.48H201.66V140.29ZM204.9 140.86C205.36 142.99 206.3 144.92 207.84 145.86C207.56 146.09 207.16 146.55 206.97 146.87C205.34 145.7 204.44 143.59 203.91 141.08L204.9 140.86ZM205.36 138.23L206.27 137.72C206.67 138.25 207.17 138.96 207.4 139.43L206.42 140.01C206.22 139.54 205.76 138.78 205.36 138.23ZM203.71 137.53H204.9V140.09C204.9 142.24 204.55 144.91 202.23 146.89C202 146.64 201.59 146.33 201.27 146.13C203.46 144.25 203.71 141.88 203.71 140.09V137.53ZM200.22 137.49H201.41V146.88H200.22V137.49ZM198.33 139.32L199.27 138.78C199.69 139.36 200.21 140.15 200.43 140.66L199.42 141.28C199.23 140.76 198.74 139.94 198.33 139.32ZM198.27 143.77C198.82 143.38 199.67 142.69 200.47 142L200.95 142.96C200.28 143.59 199.53 144.27 198.89 144.81L198.27 143.77ZM212.86 137.98C212.78 138.35 212.65 138.94 212.37 139.66C212.16 140.15 211.87 140.72 211.59 141.12C211.86 141 212.39 140.93 212.73 140.93C213.56 140.93 214.19 141.42 214.19 142.35C214.19 142.89 214.22 143.98 214.23 144.61H213.03C213.07 144.14 213.09 143.29 213.08 142.75C213.08 142.11 212.68 141.9 212.26 141.9C211.71 141.9 211.08 142.23 210.7 142.59C210.4 142.89 210.12 143.25 209.78 143.69L208.71 142.89C209.99 141.71 210.76 140.63 211.18 139.53C211.38 138.99 211.51 138.38 211.54 137.87L212.86 137.98ZM209.09 138.91C209.6 138.98 210.34 139.02 210.85 139.02C212.17 139.02 213.98 138.95 215.43 138.69L215.42 139.85C214.01 140.05 212 140.14 210.78 140.14C210.37 140.14 209.64 140.12 209.09 140.07V138.91ZM217.01 141.75C216.7 141.84 216.16 142.04 215.82 142.17C215.17 142.42 214.27 142.78 213.33 143.26C212.42 143.73 211.93 144.16 211.93 144.71C211.93 145.26 212.41 145.41 213.38 145.41C214.23 145.41 215.35 145.3 216.23 145.12L216.19 146.41C215.52 146.5 214.3 146.59 213.35 146.59C211.79 146.59 210.62 146.2 210.62 144.91C210.62 143.52 212.05 142.7 213.25 142.1C214.17 141.62 214.8 141.38 215.4 141.1C215.79 140.93 216.14 140.77 216.52 140.58L217.01 141.75ZM223.44 140.82L224.56 140.92C224.28 143.62 223.61 145.64 222.15 146.9C221.98 146.71 221.5 146.32 221.24 146.16C222.67 145.09 223.24 143.23 223.44 140.82ZM226.29 138.65L227.34 138.97C227.04 139.53 226.72 140.13 226.46 140.52L225.62 140.22C225.86 139.8 226.15 139.12 226.29 138.65ZM222.26 139.27L223.15 139C223.36 139.36 223.57 139.86 223.65 140.19L222.72 140.5C222.66 140.16 222.47 139.65 222.26 139.27ZM223.93 139.08L224.82 138.86C225 139.24 225.16 139.74 225.21 140.06L224.27 140.33C224.24 139.99 224.09 139.47 223.93 139.08ZM226.77 137.6L227.41 138.48C225.95 138.76 223.89 138.92 222.18 138.98C222.15 138.73 222.02 138.34 221.92 138.1C223.6 138.02 225.56 137.84 226.77 137.6ZM222.11 140.31H227.48V141.23H222.11V140.31ZM222 141.74H227.55V142.67H222V141.74ZM223.82 143.09H226.38V144H223.36L223.82 143.09ZM226.01 143.09H226.21L226.4 143.06L227.09 143.32C226.54 145.2 225.25 146.3 223.63 146.89C223.51 146.64 223.24 146.27 223.03 146.07C224.43 145.64 225.6 144.63 226.01 143.25V143.09ZM223.99 143.66C224.66 144.83 226.03 145.63 227.81 145.95C227.57 146.18 227.25 146.62 227.1 146.92C225.24 146.48 223.89 145.45 223.11 143.91L223.99 143.66ZM219.79 137.52L220.8 137.87C220.4 138.65 219.94 139.54 219.57 140.1L218.79 139.78C219.14 139.18 219.57 138.21 219.79 137.52ZM220.86 138.7L221.81 139.13C221.11 140.26 220.2 141.65 219.47 142.5L218.8 142.13C219.51 141.23 220.37 139.77 220.86 138.7ZM218.24 139.82L218.83 139.03C219.34 139.51 219.94 140.17 220.18 140.62L219.55 141.52C219.33 141.03 218.74 140.32 218.24 139.82ZM220.56 141.05L221.35 140.73C221.71 141.42 222.06 142.33 222.15 142.92L221.31 143.28C221.23 142.7 220.91 141.76 220.56 141.05ZM218.21 141.9C219.07 141.86 220.29 141.78 221.49 141.7L221.5 142.69C220.39 142.78 219.23 142.86 218.34 142.93L218.21 141.9ZM220.72 143.59L221.52 143.35C221.76 143.92 221.96 144.67 222.02 145.16L221.18 145.43C221.14 144.93 220.95 144.17 220.72 143.59ZM218.64 143.39L219.57 143.55C219.47 144.5 219.25 145.49 218.97 146.13C218.78 146 218.36 145.81 218.13 145.72C218.41 145.13 218.56 144.23 218.64 143.39ZM219.67 142.43H220.68V146.9H219.67V142.43ZM233.59 144.47H236.58V145.62H233.59V144.47ZM233.16 138.45H237.17V146.34H235.94V139.59H234.33V146.41H233.16V138.45ZM230.23 138.5H231.43V146.89H230.23V138.5ZM228.43 140.49H232.89V141.6H228.43V140.49ZM230.15 140.91L230.95 141.18C230.52 142.8 229.74 144.69 228.82 145.71C228.7 145.36 228.42 144.89 228.22 144.58C229.05 143.7 229.81 142.19 230.15 140.91ZM232.15 137.59L232.93 138.53C231.75 138.95 230.16 139.24 228.8 139.4C228.75 139.13 228.6 138.72 228.47 138.46C229.78 138.28 231.24 137.96 232.15 137.59ZM231.32 141.66C231.63 141.95 232.72 143.2 232.96 143.5L232.27 144.49C231.94 143.88 231.14 142.74 230.75 142.23L231.32 141.66ZM114.53 149.94C114.5 150.11 114.47 150.64 114.46 150.8C114.43 151.46 114.45 153.5 114.46 154.3L113.21 153.88C113.21 153.26 113.21 151.34 113.17 150.81C113.14 150.41 113.1 150.07 113.08 149.94H114.53ZM108.87 151.19C110.36 151.19 113 151.11 114.25 151.11C115.27 151.11 116.79 151.1 117.35 151.11L117.33 152.29C116.71 152.26 115.69 152.23 114.22 152.23C112.4 152.23 110.41 152.31 108.9 152.39L108.87 151.19ZM114.29 154.15C114.29 155.78 113.69 156.59 112.54 156.59C111.77 156.59 110.81 155.98 110.81 154.76C110.81 153.63 111.73 152.89 112.81 152.89C114.13 152.89 114.82 153.86 114.82 155.1C114.82 156.41 114.05 158.06 111.61 158.75L110.55 157.69C112.25 157.32 113.58 156.65 113.58 154.9C113.58 154.25 113.23 153.94 112.79 153.94C112.4 153.94 112.01 154.21 112.01 154.74C112.01 155.19 112.38 155.48 112.79 155.48C113.26 155.48 113.67 155.08 113.35 153.89L114.29 154.15ZM120.2 150.39C120.48 150.42 120.82 150.44 121.1 150.44C121.64 150.44 123.77 150.39 124.34 150.34C124.76 150.31 124.99 150.27 125.11 150.23L125.75 151.13C125.52 151.28 125.28 151.42 125.06 151.59C124.52 151.97 123.47 152.85 122.83 153.35C123.17 153.26 123.47 153.24 123.78 153.24C125.48 153.24 126.77 154.3 126.77 155.75C126.77 157.33 125.57 158.58 123.15 158.58C121.76 158.58 120.71 157.95 120.71 156.94C120.71 156.13 121.45 155.39 122.51 155.39C123.88 155.39 124.64 156.31 124.67 157.41L123.5 157.56C123.48 156.84 123.1 156.34 122.51 156.34C122.14 156.34 121.89 156.57 121.89 156.83C121.89 157.2 122.3 157.45 122.91 157.45C124.6 157.45 125.46 156.81 125.46 155.74C125.46 154.83 124.56 154.22 123.39 154.22C121.85 154.22 120.86 155.04 119.79 156.25L118.88 155.31C119.59 154.75 120.8 153.73 121.38 153.24C121.94 152.78 122.99 151.94 123.48 151.5C122.97 151.52 121.59 151.57 121.05 151.61C120.78 151.63 120.47 151.65 120.24 151.69L120.2 150.39Z" fill="black"/>
<path d="M262.589 146V144.892L265.178 142.495C265.398 142.282 265.583 142.09 265.732 141.92C265.884 141.749 265.999 141.582 266.077 141.419C266.155 141.253 266.194 141.075 266.194 140.883C266.194 140.67 266.145 140.486 266.048 140.332C265.951 140.176 265.819 140.057 265.651 139.974C265.482 139.888 265.292 139.846 265.079 139.846C264.856 139.846 264.662 139.891 264.496 139.981C264.331 140.071 264.203 140.2 264.113 140.368C264.023 140.536 263.978 140.736 263.978 140.968H262.518C262.518 140.492 262.626 140.079 262.842 139.729C263.057 139.378 263.359 139.107 263.747 138.915C264.135 138.724 264.583 138.628 265.089 138.628C265.61 138.628 266.064 138.72 266.45 138.905C266.838 139.087 267.14 139.34 267.355 139.665C267.571 139.989 267.678 140.361 267.678 140.78C267.678 141.054 267.624 141.326 267.515 141.593C267.408 141.861 267.218 142.158 266.943 142.484C266.669 142.809 266.281 143.198 265.782 143.653L264.72 144.693V144.743H267.774V146H262.589ZM272.339 141.3V143.03H274.109V141.3H272.339ZM271.209 140.25H275.309V144.07H271.209V140.25ZM269.009 137.85H277.589V146.9H276.289V139.07H270.249V146.9H269.009V137.85ZM269.709 145.24H277.029V146.36H269.709V145.24ZM282.07 138.386L279.726 147.094H278.423L280.767 138.386H282.07ZM283.725 138.11H290.705V146.77H289.415V139.32H284.965V146.78H283.725V138.11ZM284.575 141.47H289.955V142.66H284.575V141.47ZM284.565 144.92H289.955V146.13H284.565V144.92Z" fill="black"/>
<path d="M303.479 144.722V143.511L306.516 138.727H307.56V140.403H306.942L305.028 143.433V143.489H309.342V144.722H303.479ZM306.97 146V144.352L306.999 143.816V138.727H308.44V146H306.97ZM311.307 138.11H318.287V146.77H316.997V139.32H312.547V146.78H311.307V138.11ZM312.157 141.47H317.537V142.66H312.157V141.47ZM312.147 144.92H317.537V146.13H312.147V144.92ZM323.397 143.61H326.137V144.47H323.397V143.61ZM323.327 142.13H326.697V145.97H323.327V145.09H325.577V143.01H323.327V142.13ZM322.837 142.13H323.917V146.48H322.837V142.13ZM321.157 139.28H323.667V140.09H321.157V139.28ZM325.797 139.28H328.327V140.09H325.797V139.28ZM327.837 137.89H329.047V145.48C329.047 146.13 328.917 146.48 328.517 146.68C328.117 146.88 327.537 146.9 326.677 146.9C326.627 146.56 326.447 146 326.287 145.68C326.807 145.71 327.417 145.7 327.597 145.7C327.777 145.7 327.837 145.64 327.837 145.47V137.89ZM321.257 137.89H324.417V141.52H321.257V140.66H323.297V138.76H321.257V137.89ZM328.477 137.89V138.76H326.237V140.69H328.477V141.55H325.097V137.89H328.477ZM320.567 137.89H321.757V146.9H320.567V137.89Z" fill="black"/>
<path d="M57.81 170.95H63.54V172.08H57.81V170.95ZM59.33 173.04H61.64V174.13H59.33V173.04ZM60.08 169.5H61.28V171.35H60.08V169.5ZM58.77 173.04H59.9V175.02C59.9 176.3 59.59 177.93 58 178.9C57.86 178.65 57.45 178.18 57.24 178.01C58.62 177.18 58.77 176 58.77 174.99V173.04ZM61.19 173.04H62.35V177.4C62.35 177.62 62.35 177.74 62.39 177.78C62.41 177.82 62.45 177.83 62.5 177.83C62.55 177.83 62.62 177.83 62.68 177.83C62.74 177.83 62.79 177.82 62.82 177.78C62.85 177.75 62.88 177.67 62.9 177.48C62.91 177.28 62.92 176.85 62.93 176.31C63.15 176.51 63.56 176.71 63.86 176.81C63.85 177.32 63.8 177.93 63.74 178.18C63.67 178.43 63.55 178.6 63.36 178.71C63.21 178.81 62.96 178.86 62.76 178.86C62.58 178.86 62.33 178.86 62.17 178.86C61.93 178.86 61.64 178.77 61.46 178.59C61.27 178.41 61.19 178.18 61.19 177.42V173.04ZM54.2 174.61C55.13 174.41 56.51 174.07 57.82 173.73L57.96 174.83C56.77 175.17 55.49 175.5 54.49 175.76L54.2 174.61ZM54.36 171.39H57.81V172.51H54.36V171.39ZM55.62 169.51H56.8V177.61C56.8 178.19 56.7 178.49 56.36 178.67C56.02 178.85 55.54 178.89 54.83 178.88C54.8 178.58 54.65 178.09 54.5 177.79C54.89 177.8 55.3 177.8 55.43 177.8C55.57 177.79 55.62 177.75 55.62 177.61V169.51ZM67.45 170.13C67.41 170.43 67.38 170.88 67.38 171.17C67.38 171.78 67.38 175.46 67.38 176.21C67.38 176.65 67.58 176.76 68.03 176.84C68.33 176.89 68.74 176.91 69.19 176.91C70.23 176.91 71.85 176.78 72.67 176.56V178.02C71.72 178.16 70.21 178.22 69.11 178.22C68.46 178.22 67.85 178.18 67.42 178.11C66.56 177.95 66.05 177.48 66.05 176.61C66.05 175.46 66.05 171.79 66.05 171.17C66.05 170.87 66.02 170.37 65.98 170.13H67.45ZM66.8 173.2C68.08 172.92 69.84 172.37 70.88 171.93C71.24 171.79 71.57 171.63 71.97 171.39L72.51 172.66C72.12 172.82 71.67 173.01 71.34 173.13C70.16 173.59 68.16 174.19 66.8 174.51V173.2ZM82.33 171.23C82.25 171.34 82.07 171.64 81.98 171.85C81.57 172.8 80.83 174.16 79.97 175.16C78.85 176.45 77.34 177.69 75.79 178.42L74.75 177.34C76.37 176.74 77.91 175.52 78.85 174.48C79.51 173.73 80.12 172.74 80.35 172.03C79.93 172.03 77.38 172.03 76.95 172.03C76.54 172.03 75.99 172.08 75.77 172.1V170.67C76.04 170.71 76.66 170.74 76.95 170.74C77.48 170.74 80.04 170.74 80.48 170.74C80.92 170.74 81.31 170.69 81.52 170.62L82.33 171.23ZM80.1 174.33C81.13 175.17 82.55 176.66 83.2 177.46L82.06 178.45C81.32 177.42 80.23 176.23 79.16 175.26L80.1 174.33ZM58.28 185.32C59.51 186.03 61.36 187.31 62.29 188.05L61.33 189.19C60.46 188.37 58.56 186.97 57.39 186.23L58.28 185.32ZM62.99 183.62C62.87 183.81 62.74 184.09 62.65 184.34C62.35 185.26 61.74 186.54 60.84 187.65C59.9 188.82 58.62 189.94 56.71 190.66L55.55 189.66C57.64 189.01 58.83 187.96 59.69 186.96C60.36 186.17 60.98 185.02 61.17 184.24H57.79L58.25 183.11H61.1C61.41 183.11 61.74 183.06 61.97 182.99L62.99 183.62ZM59.68 182.08C59.44 182.43 59.18 182.89 59.06 183.1C58.39 184.31 57.11 185.84 55.67 186.83L54.6 186C56.35 184.92 57.27 183.55 57.78 182.68C57.93 182.44 58.14 181.98 58.23 181.63L59.68 182.08ZM66.84 182.17C68.16 182.33 71.04 182.92 72.3 183.36L71.79 184.6C70.62 184.17 67.79 183.54 66.38 183.36L66.84 182.17ZM66.39 184.86C67.82 185.1 70.36 185.65 71.61 186.08L71.12 187.33C69.98 186.89 67.41 186.31 65.92 186.07L66.39 184.86ZM65.87 187.73C67.59 187.99 70.66 188.71 72.04 189.22L71.49 190.47C70.14 189.92 66.97 189.23 65.37 188.98L65.87 187.73ZM76.41 182.4C77.1 182.87 78.4 183.91 78.99 184.52L77.97 185.56C77.45 185 76.19 183.91 75.46 183.41L76.41 182.4ZM75.15 189.06C76.72 188.84 78.01 188.33 78.98 187.76C80.69 186.74 81.99 185.22 82.63 183.87L83.4 185.27C82.65 186.63 81.32 188.01 79.71 188.98C78.69 189.59 77.4 190.14 76 190.38L75.15 189.06ZM54.54 194.08H63.5V195.09H54.54V194.08ZM56.65 193.51H57.84V195.74H56.65V193.51ZM60.14 193.51H61.34V195.74H60.14V193.51ZM58.14 197.98V198.49H59.85V197.98H58.14ZM58.14 196.74V197.25H59.85V196.74H58.14ZM57.08 195.97H60.96V199.27H57.08V195.97ZM58.46 195.24L59.64 195.41C59.43 195.83 59.24 196.2 59.1 196.48L58.1 196.29C58.23 195.98 58.38 195.55 58.46 195.24ZM62.27 195.6L63.3 196.09C62.9 196.61 62.4 197.12 62.01 197.46L61.08 197.01C61.47 196.64 61.98 196.04 62.27 195.6ZM54.54 199.71H63.46V200.72H54.54V199.71ZM58.39 199.11H59.58V202.89H58.39V199.11ZM58.06 200.1L58.97 200.5C58.07 201.55 56.54 202.42 55.02 202.84C54.87 202.55 54.54 202.13 54.3 201.9C55.76 201.59 57.28 200.91 58.06 200.1ZM59.87 200.17C60.63 200.97 62.16 201.59 63.69 201.85C63.45 202.07 63.14 202.51 62.99 202.79C61.41 202.42 59.9 201.6 59 200.51L59.87 200.17ZM54.69 196.23L55.56 195.63C56.02 196 56.56 196.55 56.79 196.95L55.86 197.61C55.66 197.21 55.14 196.63 54.69 196.23ZM60.81 198.23L61.49 197.49C62.11 197.83 63.02 198.35 63.46 198.7L62.75 199.52C62.33 199.16 61.45 198.6 60.81 198.23ZM54.49 198.5C55.08 198.29 55.93 197.92 56.79 197.57L57.04 198.51C56.34 198.86 55.59 199.21 54.97 199.51L54.49 198.5Z" fill="black"/>
<path d="M114.02 175.87H115.21V178.9H114.02V175.87ZM110.17 175.11V175.41H115.64V175.11H110.17ZM110.17 174.34V174.64H115.64V174.34H110.17ZM109.05 173.7H116.82V176.05H109.05V173.7ZM111 171.66V171.97H114.86V171.66H111ZM111 172.44V172.76H114.86V172.44H111ZM111 170.88V171.19H114.86V170.88H111ZM109.85 170.24H116.07V173.4H109.85V170.24ZM112.37 169.45L113.86 169.62C113.57 170.07 113.23 170.46 113 170.74L111.93 170.51C112.1 170.18 112.28 169.75 112.37 169.45ZM112.42 173.88H113.53V175.66H112.42V173.88ZM110.84 175.88H111.98V176.92C111.98 177.73 111.41 178.49 109.42 178.92C109.29 178.68 108.97 178.3 108.74 178.09C110.56 177.84 110.84 177.36 110.84 176.91V175.88ZM108.51 176.46H117.48V177.41H108.51V176.46ZM118.35 172.68C118.72 172.61 119.22 172.47 119.59 172.37C120.36 172.13 122.39 171.41 123.86 171.41C125.67 171.41 127.09 172.45 127.09 174.3C127.09 176.57 124.93 178.02 121.4 178.2L120.83 176.87C123.52 176.81 125.65 176.03 125.65 174.28C125.65 173.34 125.01 172.62 123.81 172.62C122.33 172.62 119.97 173.62 118.92 174.07L118.35 172.68ZM125.69 169.96C125.94 170.33 126.3 170.97 126.49 171.34L125.68 171.68C125.48 171.27 125.17 170.68 124.9 170.29L125.69 169.96ZM126.87 169.51C127.14 169.89 127.51 170.52 127.68 170.88L126.89 171.22C126.68 170.8 126.36 170.22 126.08 169.84L126.87 169.51ZM133.97 169.92C133.94 170.12 133.91 170.37 133.9 170.63C133.88 171.14 133.87 172.56 133.87 173.4C133.87 174.5 134.03 176.31 134.03 177.1C134.03 177.96 133.38 178.62 132.07 178.62C130.47 178.62 129.63 178.01 129.63 176.95C129.63 175.94 130.56 175.23 132.09 175.23C134.29 175.23 135.93 176.31 136.76 177.01L136.04 178.13C135.09 177.23 133.64 176.26 131.93 176.26C131.23 176.26 130.84 176.53 130.84 176.88C130.84 177.26 131.19 177.49 131.88 177.49C132.41 177.49 132.77 177.34 132.77 176.76C132.77 176.16 132.66 174.37 132.66 173.4C132.66 172.44 132.67 171.17 132.67 170.6C132.67 170.42 132.65 170.11 132.61 169.92H133.97ZM129.82 170.85C130.53 170.97 131.68 171.07 132.29 171.07C133.65 171.07 134.96 171 136.42 170.77L136.41 171.91C135.39 172.05 133.8 172.17 132.3 172.17C131.66 172.17 130.5 172.08 129.84 172L129.82 170.85ZM129.76 173.01C130.42 173.13 131.64 173.2 132.17 173.2C134.02 173.2 135.31 173.08 136.54 172.92L136.53 174.1C135.15 174.26 134.06 174.32 132.16 174.32C131.57 174.32 130.44 174.27 129.78 174.19L129.76 173.01ZM141.61 169.97C141.47 170.46 141.26 171.49 141.2 172.05C141.68 171.28 142.56 170.43 143.68 170.43C145.07 170.43 146.15 171.8 146.15 174C146.15 176.83 144.42 178.17 141.77 178.66L141.01 177.5C143.24 177.16 144.8 176.42 144.8 174C144.8 172.46 144.28 171.6 143.45 171.6C142.27 171.6 141.23 173.38 141.19 174.69C141.17 174.97 141.18 175.29 141.23 175.75L140 175.84C139.94 175.45 139.88 174.84 139.88 174.17C139.88 173.23 140.01 172 140.16 170.96C140.2 170.59 140.23 170.19 140.24 169.92L141.61 169.97ZM153.26 171.64C152.91 171.28 152.22 170.61 151.83 170.31L152.75 169.67C153.1 169.95 153.85 170.59 154.2 170.96L153.26 171.64ZM150.54 170.57C150.62 170.76 150.82 171.17 150.93 171.36C151.34 172.13 151.79 173.12 152.15 173.96C152.62 175.05 153.4 177.18 153.73 178.31L152.35 178.66C152.04 177.4 151.52 175.71 151.01 174.51C150.61 173.58 150.24 172.67 149.83 171.95C149.68 171.71 149.44 171.33 149.24 171.08L150.54 170.57ZM148.38 173.5C148.77 173.41 149.2 173.25 149.37 173.18C151.19 172.47 153.24 171.3 154.85 171.3C156.39 171.3 157.33 172.24 157.33 173.4C157.33 174.8 156.37 175.68 154.84 175.68C154.29 175.68 153.67 175.54 153.29 175.4L153.33 174.15C153.78 174.34 154.28 174.48 154.71 174.48C155.46 174.48 156.01 174.07 156.01 173.35C156.01 172.85 155.57 172.43 154.82 172.43C153.2 172.43 150.2 174.22 148.96 174.78L148.38 173.5ZM165.34 170.8C165.02 171.03 164.69 171.29 164.46 171.48C163.81 172 162.49 173.02 161.82 173.6C161.29 174.05 161.3 174.17 161.84 174.64C162.59 175.27 164.49 176.76 165.51 177.75L164.35 178.83C164.07 178.51 163.77 178.2 163.47 177.9C162.87 177.27 161.4 176.01 160.48 175.24C159.49 174.39 159.57 173.85 160.57 173.02C161.35 172.38 162.73 171.27 163.4 170.61C163.69 170.33 164.01 170 164.17 169.76L165.34 170.8ZM171.71 170.07C171.65 170.49 171.6 171.01 171.58 171.41C171.53 172.49 171.46 174.72 171.46 175.96C171.46 176.97 172.06 177.3 172.84 177.3C174.49 177.3 175.53 176.35 176.26 175.26L177.17 176.37C176.52 177.33 175.1 178.66 172.82 178.66C171.18 178.66 170.13 177.94 170.13 176.23C170.13 174.89 170.22 172.27 170.22 171.41C170.22 170.93 170.18 170.45 170.1 170.06L171.71 170.07ZM183 172.99C182.71 172.68 182.28 172.3 181.91 172.04L182.8 171.39C183.09 171.58 183.66 172.07 183.9 172.34L183 172.99ZM180.96 172.17C181.06 172.36 181.19 172.62 181.26 172.76C181.55 173.31 182.07 174.4 182.36 175.1C182.74 175.98 183.32 177.7 183.6 178.59L182.34 178.9C182.1 177.89 181.62 176.51 181.25 175.59C180.94 174.83 180.5 173.87 180.19 173.35C180.08 173.16 179.9 172.87 179.71 172.65L180.96 172.17ZM178.93 174.56C179.31 174.46 179.69 174.34 179.82 174.29C181.3 173.71 183.27 172.7 184.48 172.7C185.94 172.7 186.59 173.61 186.59 174.48C186.59 175.72 185.91 176.49 184.41 176.49C183.98 176.49 183.45 176.35 183.16 176.24L183.19 175.08C183.55 175.25 184 175.35 184.32 175.35C185.02 175.35 185.36 175.01 185.36 174.49C185.36 174.15 185.06 173.82 184.43 173.82C183.15 173.82 180.26 175.43 179.5 175.77L178.93 174.56ZM190.13 170.44C190.4 170.46 190.75 170.48 190.96 170.48C191.54 170.48 192.6 170.44 193.06 170.4C193.31 170.38 193.57 170.32 193.75 170.25L194.54 170.88C194.41 171.03 194.29 171.16 194.21 171.29C193.87 171.86 193.33 173.15 192.88 174.19C192.48 175.11 192 176.3 191.59 176.93C191.19 177.54 190.72 177.81 190.03 177.81C189.16 177.81 188.5 177.21 188.5 176.19C188.5 174.59 190.03 173.36 192.17 173.36C194.5 173.36 196.54 174.6 197.59 175.32L197.01 176.71C195.78 175.62 194.02 174.48 191.96 174.48C190.5 174.48 189.66 175.27 189.66 176C189.66 176.33 189.85 176.5 190.09 176.5C190.29 176.5 190.42 176.41 190.61 176.16C190.94 175.67 191.3 174.75 191.66 173.96C192.01 173.17 192.42 172.19 192.72 171.57C192.32 171.58 191.45 171.61 191 171.64C190.79 171.65 190.44 171.69 190.18 171.72L190.13 170.44ZM196.71 172.8C196.57 175.64 196.01 177.48 193.62 178.72L192.55 177.85C195.02 176.79 195.32 174.92 195.41 173.75C195.43 173.36 195.44 172.96 195.4 172.65L196.71 172.8ZM198.82 171.45C199.25 171.5 199.79 171.52 200.15 171.52C201.39 171.52 202.74 171.31 203.71 171L203.74 172.16C202.88 172.4 201.44 172.66 200.16 172.65C199.76 172.65 199.34 172.64 198.91 172.62L198.82 171.45ZM202.71 169.95C202.58 170.48 202.34 171.46 202.07 172.31C201.61 173.75 200.71 175.61 199.86 176.79L198.65 176.17C199.55 175.07 200.45 173.32 200.84 172.24C201.08 171.52 201.3 170.59 201.33 169.82L202.71 169.95ZM205.06 173.07C205.03 173.49 205.04 173.91 205.05 174.35C205.07 174.94 205.16 176.43 205.16 176.99C205.16 177.92 204.66 178.65 203.23 178.65C201.99 178.65 201.01 178.09 201.01 176.99C201.01 176.02 201.83 175.26 203.22 175.26C204.97 175.26 206.35 176.14 207.18 176.89L206.52 177.97C205.8 177.3 204.66 176.27 203.15 176.27C202.57 176.27 202.19 176.52 202.19 176.87C202.19 177.24 202.51 177.5 203.06 177.5C203.74 177.5 203.96 177.12 203.96 176.56C203.96 175.96 203.85 174.12 203.8 173.07H205.06ZM206.78 173.6C206.2 173.13 205.06 172.48 204.37 172.17L205.02 171.19C205.74 171.5 206.97 172.17 207.49 172.54L206.78 173.6ZM215.73 172.47C215.42 172.65 215.1 172.82 214.74 173C214.11 173.32 213.17 173.75 212.26 174.35C211.43 174.89 210.87 175.47 210.87 176.16C210.87 176.88 211.56 177.27 212.95 177.27C213.98 177.27 215.33 177.11 216.22 176.9L216.2 178.34C215.35 178.49 214.29 178.59 212.99 178.59C210.99 178.59 209.49 178.03 209.49 176.31C209.49 175.04 210.41 174.15 211.59 173.37C212.54 172.75 213.56 172.25 214.18 171.9C214.55 171.68 214.84 171.51 215.1 171.29L215.73 172.47ZM211.01 170.18C211.5 171.51 212.12 172.72 212.59 173.54L211.45 174.21C210.91 173.3 210.31 171.99 209.75 170.7L211.01 170.18ZM215.85 170.03C216.1 170.4 216.45 171.03 216.64 171.4L215.84 171.75C215.63 171.34 215.33 170.74 215.05 170.36L215.85 170.03ZM217.03 169.58C217.29 169.95 217.66 170.59 217.84 170.94L217.05 171.28C216.84 170.87 216.52 170.28 216.24 169.9L217.03 169.58ZM223.91 171.15C223.77 172.17 223.57 173.34 223.22 174.52C222.62 176.54 221.76 177.78 220.67 177.78C219.55 177.78 218.63 176.55 218.63 174.86C218.63 172.56 220.64 170.58 223.23 170.58C225.7 170.58 227.27 172.3 227.27 174.49C227.27 176.59 225.98 178.08 223.46 178.47L222.7 177.29C223.09 177.24 223.37 177.19 223.64 177.13C224.91 176.82 225.91 175.91 225.91 174.44C225.91 172.87 224.93 171.75 223.2 171.75C221.08 171.75 219.92 173.48 219.92 174.74C219.92 175.75 220.32 176.24 220.7 176.24C221.13 176.24 221.51 175.6 221.93 174.25C222.22 173.31 222.44 172.16 222.54 171.11L223.91 171.15ZM231.51 172.45H237.37V173.46H231.51V172.45ZM234.5 174.83H237.24V175.83H234.5V174.83ZM230.8 177.63H237.7V178.67H230.8V177.63ZM233.94 172.88H235.09V178.23H233.94V172.88ZM231.83 174.48H232.92V178.18H231.83V174.48ZM230.52 170.62H237.69V171.69H230.52V170.62ZM229.87 170.62H231.01V173.62C231.01 175.22 230.79 177.53 229.39 178.9C229.23 178.68 228.77 178.24 228.53 178.1C229.76 176.85 229.87 175.02 229.87 173.61V170.62ZM232.84 169.51H234.11V171.29H232.84V169.51ZM228.33 171.87L229.19 171.44C229.52 172.02 229.84 172.79 229.93 173.29L229.01 173.78C228.92 173.28 228.63 172.48 228.33 171.87ZM228.24 175.29C228.72 175.09 229.4 174.76 230.09 174.41L230.37 175.35C229.79 175.72 229.17 176.09 228.59 176.42L228.24 175.29ZM111.66 184.29H117.56V185.48H111.66V184.29ZM114.9 184.86C115.36 186.99 116.3 188.92 117.84 189.86C117.56 190.09 117.16 190.55 116.97 190.87C115.34 189.7 114.44 187.59 113.91 185.08L114.9 184.86ZM115.36 182.23L116.27 181.72C116.67 182.25 117.17 182.96 117.4 183.43L116.42 184.01C116.22 183.54 115.76 182.78 115.36 182.23ZM113.71 181.53H114.9V184.09C114.9 186.24 114.55 188.91 112.23 190.89C112 190.64 111.59 190.33 111.27 190.13C113.46 188.25 113.71 185.88 113.71 184.09V181.53ZM110.22 181.49H111.41V190.88H110.22V181.49ZM108.33 183.32L109.27 182.78C109.69 183.36 110.21 184.15 110.43 184.66L109.42 185.28C109.23 184.76 108.74 183.94 108.33 183.32ZM108.27 187.77C108.82 187.38 109.67 186.69 110.47 186L110.95 186.96C110.28 187.59 109.53 188.27 108.89 188.81L108.27 187.77ZM122.86 181.98C122.78 182.35 122.65 182.94 122.37 183.66C122.16 184.15 121.87 184.72 121.59 185.12C121.86 185 122.39 184.93 122.73 184.93C123.56 184.93 124.19 185.42 124.19 186.35C124.19 186.89 124.22 187.98 124.23 188.61H123.03C123.07 188.14 123.09 187.29 123.08 186.75C123.08 186.11 122.68 185.9 122.26 185.9C121.71 185.9 121.08 186.23 120.7 186.59C120.4 186.89 120.12 187.25 119.78 187.69L118.71 186.89C119.99 185.71 120.76 184.63 121.18 183.53C121.38 182.99 121.51 182.38 121.54 181.87L122.86 181.98ZM119.09 182.91C119.6 182.98 120.34 183.02 120.85 183.02C122.17 183.02 123.98 182.95 125.43 182.69L125.42 183.85C124.01 184.05 122 184.14 120.78 184.14C120.37 184.14 119.64 184.12 119.09 184.07V182.91ZM127.01 185.75C126.7 185.84 126.16 186.04 125.82 186.17C125.17 186.42 124.27 186.78 123.33 187.26C122.42 187.73 121.93 188.16 121.93 188.71C121.93 189.26 122.41 189.41 123.38 189.41C124.23 189.41 125.35 189.3 126.23 189.12L126.19 190.41C125.52 190.5 124.3 190.59 123.35 190.59C121.79 190.59 120.62 190.2 120.62 188.91C120.62 187.52 122.05 186.7 123.25 186.1C124.17 185.62 124.8 185.38 125.4 185.1C125.79 184.93 126.14 184.77 126.52 184.58L127.01 185.75ZM133.44 184.82L134.56 184.92C134.28 187.62 133.61 189.64 132.15 190.9C131.98 190.71 131.5 190.32 131.24 190.16C132.67 189.09 133.24 187.23 133.44 184.82ZM136.29 182.65L137.34 182.97C137.04 183.53 136.72 184.13 136.46 184.52L135.62 184.22C135.86 183.8 136.15 183.12 136.29 182.65ZM132.26 183.27L133.15 183C133.36 183.36 133.57 183.86 133.65 184.19L132.72 184.5C132.66 184.16 132.47 183.65 132.26 183.27ZM133.93 183.08L134.82 182.86C135 183.24 135.16 183.74 135.21 184.06L134.27 184.33C134.24 183.99 134.09 183.47 133.93 183.08ZM136.77 181.6L137.41 182.48C135.95 182.76 133.89 182.92 132.18 182.98C132.15 182.73 132.02 182.34 131.92 182.1C133.6 182.02 135.56 181.84 136.77 181.6ZM132.11 184.31H137.48V185.23H132.11V184.31ZM132 185.74H137.55V186.67H132V185.74ZM133.82 187.09H136.38V188H133.36L133.82 187.09ZM136.01 187.09H136.21L136.4 187.06L137.09 187.32C136.54 189.2 135.25 190.3 133.63 190.89C133.51 190.64 133.24 190.27 133.03 190.07C134.43 189.64 135.6 188.63 136.01 187.25V187.09ZM133.99 187.66C134.66 188.83 136.03 189.63 137.81 189.95C137.57 190.18 137.25 190.62 137.1 190.92C135.24 190.48 133.89 189.45 133.11 187.91L133.99 187.66ZM129.79 181.52L130.8 181.87C130.4 182.65 129.94 183.54 129.57 184.1L128.79 183.78C129.14 183.18 129.57 182.21 129.79 181.52ZM130.86 182.7L131.81 183.13C131.11 184.26 130.2 185.65 129.47 186.5L128.8 186.13C129.51 185.23 130.37 183.77 130.86 182.7ZM128.24 183.82L128.83 183.03C129.34 183.51 129.94 184.17 130.18 184.62L129.55 185.52C129.33 185.03 128.74 184.32 128.24 183.82ZM130.56 185.05L131.35 184.73C131.71 185.42 132.06 186.33 132.15 186.92L131.31 187.28C131.23 186.7 130.91 185.76 130.56 185.05ZM128.21 185.9C129.07 185.86 130.29 185.78 131.49 185.7L131.5 186.69C130.39 186.78 129.23 186.86 128.34 186.93L128.21 185.9ZM130.72 187.59L131.52 187.35C131.76 187.92 131.96 188.67 132.02 189.16L131.18 189.43C131.14 188.93 130.95 188.17 130.72 187.59ZM128.64 187.39L129.57 187.55C129.47 188.5 129.25 189.49 128.97 190.13C128.78 190 128.36 189.81 128.13 189.72C128.41 189.13 128.56 188.23 128.64 187.39ZM129.67 186.43H130.68V190.9H129.67V186.43ZM143.59 188.47H146.58V189.62H143.59V188.47ZM143.16 182.45H147.17V190.34H145.94V183.59H144.33V190.41H143.16V182.45ZM140.23 182.5H141.43V190.89H140.23V182.5ZM138.43 184.49H142.89V185.6H138.43V184.49ZM140.15 184.91L140.95 185.18C140.52 186.8 139.74 188.69 138.82 189.71C138.7 189.36 138.42 188.89 138.22 188.58C139.05 187.7 139.81 186.19 140.15 184.91ZM142.15 181.59L142.93 182.53C141.75 182.95 140.16 183.24 138.8 183.4C138.75 183.13 138.6 182.72 138.47 182.46C139.78 182.28 141.24 181.96 142.15 181.59ZM141.32 185.66C141.63 185.95 142.72 187.2 142.96 187.5L142.27 188.49C141.94 187.88 141.14 186.74 140.75 186.23L141.32 185.66ZM154.53 181.94C154.5 182.11 154.47 182.64 154.46 182.8C154.43 183.46 154.45 185.5 154.46 186.3L153.21 185.88C153.21 185.26 153.21 183.34 153.17 182.81C153.14 182.41 153.1 182.07 153.08 181.94H154.53ZM148.87 183.19C150.36 183.19 153 183.11 154.25 183.11C155.27 183.11 156.79 183.1 157.35 183.11L157.33 184.29C156.71 184.26 155.69 184.23 154.22 184.23C152.4 184.23 150.41 184.31 148.9 184.39L148.87 183.19ZM154.29 186.15C154.29 187.78 153.69 188.59 152.54 188.59C151.77 188.59 150.81 187.98 150.81 186.76C150.81 185.63 151.73 184.89 152.81 184.89C154.13 184.89 154.82 185.86 154.82 187.1C154.82 188.41 154.05 190.06 151.61 190.75L150.55 189.69C152.25 189.32 153.58 188.65 153.58 186.9C153.58 186.25 153.23 185.94 152.79 185.94C152.4 185.94 152.01 186.21 152.01 186.74C152.01 187.19 152.38 187.48 152.79 187.48C153.26 187.48 153.67 187.08 153.35 185.89L154.29 186.15ZM160.2 182.39C160.48 182.42 160.82 182.44 161.1 182.44C161.64 182.44 163.77 182.39 164.34 182.34C164.76 182.31 164.99 182.27 165.11 182.23L165.75 183.13C165.52 183.28 165.28 183.42 165.06 183.59C164.52 183.97 163.47 184.85 162.83 185.35C163.17 185.26 163.47 185.24 163.78 185.24C165.48 185.24 166.77 186.3 166.77 187.75C166.77 189.33 165.57 190.58 163.15 190.58C161.76 190.58 160.71 189.95 160.71 188.94C160.71 188.13 161.45 187.39 162.51 187.39C163.88 187.39 164.64 188.31 164.67 189.41L163.5 189.56C163.48 188.84 163.1 188.34 162.51 188.34C162.14 188.34 161.89 188.57 161.89 188.83C161.89 189.2 162.3 189.45 162.91 189.45C164.6 189.45 165.46 188.81 165.46 187.74C165.46 186.83 164.56 186.22 163.39 186.22C161.85 186.22 160.86 187.04 159.79 188.25L158.88 187.31C159.59 186.75 160.8 185.73 161.38 185.24C161.94 184.78 162.99 183.94 163.48 183.5C162.97 183.52 161.59 183.57 161.05 183.61C160.78 183.63 160.47 183.65 160.24 183.69L160.2 182.39Z" fill="black"/>
<path d="M262.589 178V176.892L265.178 174.495C265.398 174.282 265.583 174.09 265.732 173.92C265.884 173.749 265.999 173.582 266.077 173.419C266.155 173.253 266.194 173.075 266.194 172.883C266.194 172.67 266.145 172.486 266.048 172.332C265.951 172.176 265.819 172.057 265.651 171.974C265.482 171.888 265.292 171.846 265.079 171.846C264.856 171.846 264.662 171.891 264.496 171.981C264.331 172.071 264.203 172.2 264.113 172.368C264.023 172.536 263.978 172.736 263.978 172.968H262.518C262.518 172.492 262.626 172.079 262.842 171.729C263.057 171.378 263.359 171.107 263.747 170.915C264.135 170.724 264.583 170.628 265.089 170.628C265.61 170.628 266.064 170.72 266.45 170.905C266.838 171.087 267.14 171.34 267.355 171.665C267.571 171.989 267.678 172.361 267.678 172.78C267.678 173.054 267.624 173.326 267.515 173.593C267.408 173.861 267.218 174.158 266.943 174.484C266.669 174.809 266.281 175.198 265.782 175.653L264.72 176.693V176.743H267.774V178H262.589ZM272.339 173.3V175.03H274.109V173.3H272.339ZM271.209 172.25H275.309V176.07H271.209V172.25ZM269.009 169.85H277.589V178.9H276.289V171.07H270.249V178.9H269.009V169.85ZM269.709 177.24H277.029V178.36H269.709V177.24ZM282.07 170.386L279.726 179.094H278.423L280.767 170.386H282.07ZM283.725 170.11H290.705V178.77H289.415V171.32H284.965V178.78H283.725V170.11ZM284.575 173.47H289.955V174.66H284.575V173.47ZM284.565 176.92H289.955V178.13H284.565V176.92Z" fill="black"/>
<path d="M306.246 178.099C305.744 178.099 305.296 178.007 304.903 177.822C304.513 177.638 304.203 177.383 303.973 177.059C303.743 176.735 303.624 176.363 303.614 175.944H305.106C305.122 176.226 305.241 176.454 305.461 176.629C305.681 176.804 305.943 176.892 306.246 176.892C306.487 176.892 306.7 176.839 306.885 176.732C307.072 176.623 307.218 176.473 307.322 176.281C307.428 176.087 307.482 175.865 307.482 175.614C307.482 175.358 307.427 175.133 307.318 174.939C307.212 174.745 307.064 174.593 306.874 174.484C306.685 174.375 306.468 174.32 306.224 174.317C306.011 174.317 305.804 174.361 305.603 174.449C305.404 174.536 305.249 174.656 305.138 174.808L303.771 174.562L304.115 170.727H308.561V171.984H305.383L305.195 173.806H305.237C305.365 173.626 305.558 173.477 305.816 173.359C306.074 173.24 306.363 173.181 306.683 173.181C307.121 173.181 307.511 173.284 307.854 173.49C308.198 173.696 308.469 173.979 308.668 174.339C308.866 174.696 308.965 175.108 308.962 175.575C308.965 176.065 308.851 176.5 308.621 176.881C308.394 177.26 308.076 177.558 307.666 177.776C307.259 177.992 306.786 178.099 306.246 178.099ZM310.975 170.11H317.955V178.77H316.665V171.32H312.215V178.78H310.975V170.11ZM311.825 173.47H317.205V174.66H311.825V173.47ZM311.815 176.92H317.205V178.13H311.815V176.92ZM323.065 175.61H325.805V176.47H323.065V175.61ZM322.995 174.13H326.365V177.97H322.995V177.09H325.245V175.01H322.995V174.13ZM322.505 174.13H323.585V178.48H322.505V174.13ZM320.825 171.28H323.335V172.09H320.825V171.28ZM325.465 171.28H327.995V172.09H325.465V171.28ZM327.505 169.89H328.715V177.48C328.715 178.13 328.585 178.48 328.185 178.68C327.785 178.88 327.205 178.9 326.345 178.9C326.295 178.56 326.115 178 325.955 177.68C326.475 177.71 327.085 177.7 327.265 177.7C327.445 177.7 327.505 177.64 327.505 177.47V169.89ZM320.925 169.89H324.085V173.52H320.925V172.66H322.965V170.76H320.925V169.89ZM328.145 169.89V170.76H325.905V172.69H328.145V173.55H324.765V169.89H328.145ZM320.235 169.89H321.425V178.9H320.235V169.89Z" fill="black"/>
</g>
<rect x="24" y="20" width="337" height="40" rx="8" fill="#FFAF00"/>
<path d="M40.744 39.844C42.892 39.292 44.644 38.512 45.988 37.684C47.212 36.928 48.58 35.728 49.36 34.78L50.656 36.004C49.564 37.108 48.1 38.236 46.684 39.088C45.328 39.892 43.384 40.792 41.488 41.356L40.744 39.844ZM45.736 38.464L47.44 38.056V43.468C47.44 43.996 47.464 44.74 47.548 45.04H45.64C45.688 44.752 45.736 43.996 45.736 43.468V38.464ZM54.892 35.38C55.72 35.944 57.28 37.192 57.988 37.924L56.764 39.172C56.14 38.5 54.628 37.192 53.752 36.592L54.892 35.38ZM53.38 43.372C55.264 43.108 56.812 42.496 57.976 41.812C60.028 40.588 61.588 38.764 62.356 37.144L63.28 38.824C62.38 40.456 60.784 42.112 58.852 43.276C57.628 44.008 56.08 44.668 54.4 44.956L53.38 43.372ZM74.3047 36.52C74.1847 36.748 74.1007 37.096 74.0407 37.348C73.7647 38.524 73.2367 40.384 72.2287 41.728C71.1487 43.156 69.5527 44.356 67.4047 45.04L66.0967 43.6C68.4847 43.048 69.8287 42.004 70.8007 40.792C71.6047 39.784 72.0487 38.428 72.2167 37.396C71.4847 37.396 67.5247 37.396 66.6247 37.396C66.0727 37.396 65.5087 37.432 65.1967 37.444V35.752C65.5567 35.8 66.2287 35.848 66.6247 35.848C67.5247 35.848 71.5087 35.848 72.1807 35.848C72.4087 35.848 72.7927 35.836 73.1167 35.764L74.3047 36.52ZM81.6607 44.236C81.7207 44.008 81.7567 43.684 81.7567 43.36C81.7567 42.724 81.7567 37.336 81.7567 36.364C81.7567 35.824 81.6727 35.356 81.6727 35.332H83.4487C83.4487 35.356 83.3647 35.836 83.3647 36.376C83.3647 37.336 83.3647 41.908 83.3647 42.64C84.3487 42.22 85.5247 41.272 86.3407 40.108L87.2527 41.44C86.2567 42.736 84.5407 44.032 83.1847 44.716C82.9327 44.848 82.7887 44.98 82.6687 45.064L81.6607 44.236ZM76.1047 44.068C77.1727 43.324 77.8207 42.22 78.1447 41.188C78.4927 40.168 78.5047 37.888 78.5047 36.448C78.5047 35.956 78.4567 35.644 78.3847 35.344H80.1487C80.1487 35.392 80.0647 35.932 80.0647 36.424C80.0647 37.852 80.0287 40.384 79.7167 41.596C79.3447 42.94 78.6007 44.128 77.5687 45.04L76.1047 44.068ZM89.2927 36.124C89.6047 36.172 90.1087 36.208 90.4327 36.208H96.9727C97.3327 36.208 97.7527 36.172 98.0887 36.124V37.78C97.7407 37.744 97.3207 37.72 96.9727 37.72H90.4327C90.1087 37.72 89.6047 37.744 89.2927 37.78V36.124ZM92.7607 43.516V37.048H94.4287V43.516H92.7607ZM88.5247 42.532C88.9087 42.592 89.3407 42.628 89.7007 42.628H97.6207C98.0407 42.628 98.4247 42.568 98.7367 42.532V44.26C98.4007 44.224 97.8967 44.212 97.6207 44.212H89.7007C89.3527 44.212 88.9207 44.224 88.5247 44.26V42.532ZM102.529 35.38C103.357 35.944 104.917 37.192 105.625 37.924L104.401 39.172C103.777 38.5 102.265 37.192 101.389 36.592L102.529 35.38ZM101.017 43.372C102.901 43.108 104.449 42.496 105.613 41.812C107.665 40.588 109.225 38.764 109.993 37.144L110.917 38.824C110.017 40.456 108.421 42.112 106.489 43.276C105.265 44.008 103.717 44.668 102.037 44.956L101.017 43.372ZM121.441 35.176C121.669 35.644 121.933 36.34 122.065 36.808L121.237 37.084C121.069 36.568 120.865 35.92 120.625 35.428L121.441 35.176ZM122.677 34.792C122.905 35.26 123.181 35.968 123.325 36.424L122.509 36.688C122.329 36.16 122.101 35.524 121.861 35.044L122.677 34.792ZM120.409 39.388C120.409 42.352 119.689 44.176 116.797 45.448L115.501 44.236C117.829 43.432 118.837 42.388 118.837 39.448V36.256C118.837 35.764 118.813 35.368 118.777 35.14H120.481C120.457 35.38 120.409 35.764 120.409 36.256V39.388ZM116.065 35.248C116.041 35.464 115.993 35.848 115.993 36.328V40.624C115.993 41.152 116.029 41.644 116.053 41.872H114.373C114.397 41.644 114.433 41.164 114.433 40.624V36.328C114.433 35.98 114.409 35.608 114.361 35.248H116.065ZM112.117 37.408C112.333 37.444 112.825 37.516 113.425 37.516H121.285C121.921 37.516 122.281 37.492 122.617 37.432V39.028C122.353 38.992 121.921 38.992 121.297 38.992H113.425C112.813 38.992 112.393 39.016 112.117 39.04V37.408Z" fill="black"/>
<g clip-path="url(#clip0_273_103)">
<path d="M328.41 36.5901L333 41.1701L337.59 36.5901L339 38.0001L333 44.0001L327 38.0001L328.41 36.5901Z" fill="black"/>
</g>
<defs>
<filter id="filter0_d_273_103" x="0" y="0" width="385" height="240" filterUnits="userSpaceOnUse" color-interpolation-filters="sRGB">
<feFlood flood-opacity="0" result="BackgroundImageFix"/>
<feColorMatrix in="SourceAlpha" type="matrix" values="0 0 0 0 0 0 0 0 0 0 0 0 0 0 0 0 0 0 127 0" result="hardAlpha"/>
<feOffset dy="4"/>
<feGaussianBlur stdDeviation="12"/>
<feComposite in2="hardAlpha" operator="out"/>
<feColorMatrix type="matrix" values="0 0 0 0 0 0 0 0 0 0 0 0 0 0 0 0 0 0 0.25 0"/>
<feBlend mode="normal" in2="BackgroundImageFix" result="effect1_dropShadow_273_103"/>
<feBlend mode="normal" in="SourceGraphic" in2="effect1_dropShadow_273_103" result="shape"/>
</filter>
<clipPath id="clip0_273_103">
<rect width="24" height="24" fill="white" transform="translate(321 28)"/>
</clipPath>
</defs>
</svg>
