<svg width="393" height="422" viewBox="0 0 393 422" fill="none" xmlns="http://www.w3.org/2000/svg">
<g filter="url(#filter0_d_509_260)">
<rect x="20" y="20" width="353" height="374" rx="16" fill="white" shape-rendering="crispEdges"/>
<path d="M280 40C278.345 40 277 41.3453 277 43V58C277 59.6547 278.345 61 280 61H298C299.655 61 301 59.6547 301 58V43C301 41.3453 299.655 40 298 40H280ZM284.125 43V46H280V43H284.125ZM286.75 43H290.875V46H286.75V43ZM298 43V46H293.875V43H298ZM280 49H284.125V52H280V49ZM290.875 49V52H286.75V49H290.875ZM293.875 49H298V52H293.875V49ZM284.125 55V58H280V55H284.125ZM286.75 55H290.875V58H286.75V55ZM298 55V58H293.875V55H298Z" fill="black"/>
<path d="M323.323 44.6452C323.939 44.6452 324.529 44.4005 324.965 43.9649C325.4 43.5293 325.645 42.9386 325.645 42.3226C325.645 41.7066 325.4 41.1158 324.965 40.6803C324.529 40.2447 323.939 40 323.323 40C322.707 40 322.116 40.2447 321.68 40.6803C321.245 41.1158 321 41.7066 321 42.3226C321 42.9386 321.245 43.5293 321.68 43.9649C322.116 44.4005 322.707 44.6452 323.323 44.6452ZM329.516 40.7742C328.66 40.7742 327.968 41.4661 327.968 42.3226C327.968 43.179 328.66 43.871 329.516 43.871H343.452C344.308 43.871 345 43.179 345 42.3226C345 41.4661 344.308 40.7742 343.452 40.7742H329.516ZM329.516 48.5161C328.66 48.5161 327.968 49.2081 327.968 50.0645C327.968 50.921 328.66 51.6129 329.516 51.6129H343.452C344.308 51.6129 345 50.921 345 50.0645C345 49.2081 344.308 48.5161 343.452 48.5161H329.516ZM329.516 56.2581C328.66 56.2581 327.968 56.95 327.968 57.8065C327.968 58.6629 328.66 59.3548 329.516 59.3548H343.452C344.308 59.3548 345 58.6629 345 57.8065C345 56.95 344.308 56.2581 343.452 56.2581H329.516ZM323.323 60.129C323.939 60.129 324.529 59.8843 324.965 59.4488C325.4 59.0132 325.645 58.4224 325.645 57.8065C325.645 57.1905 325.4 56.5997 324.965 56.1641C324.529 55.7286 323.939 55.4839 323.323 55.4839C322.707 55.4839 322.116 55.7286 321.68 56.1641C321.245 56.5997 321 57.1905 321 57.8065C321 58.4224 321.245 59.0132 321.68 59.4488C322.116 59.8843 322.707 60.129 323.323 60.129ZM325.645 50.0645C325.645 49.7595 325.585 49.4575 325.468 49.1757C325.352 48.8939 325.181 48.6379 324.965 48.4222C324.749 48.2065 324.493 48.0355 324.211 47.9187C323.93 47.802 323.628 47.7419 323.323 47.7419C323.018 47.7419 322.716 47.802 322.434 47.9187C322.152 48.0355 321.896 48.2065 321.68 48.4222C321.465 48.6379 321.294 48.8939 321.177 49.1757C321.06 49.4575 321 49.7595 321 50.0645C321 50.3695 321.06 50.6715 321.177 50.9533C321.294 51.2351 321.465 51.4912 321.68 51.7068C321.896 51.9225 322.152 52.0936 322.434 52.2103C322.716 52.327 323.018 52.3871 323.323 52.3871C323.628 52.3871 323.93 52.327 324.211 52.2103C324.493 52.0936 324.749 51.9225 324.965 51.7068C325.181 51.4912 325.352 51.2351 325.468 50.9533C325.585 50.6715 325.645 50.3695 325.645 50.0645Z" fill="black"/>
<path d="M99.9794 98.2216V97.0107L103.016 92.2273H104.06V93.9034H103.442L101.528 96.9325V96.9893H105.842V98.2216H99.9794ZM103.47 99.5V97.8523L103.499 97.3161V92.2273H104.94V99.5H103.47Z" fill="black" fill-opacity="0.4"/>
<path d="M196.193 96.1591C195.39 96.1591 194.674 96.0114 194.045 95.7159C193.42 95.4205 192.924 95.0133 192.557 94.4943C192.189 93.9754 191.998 93.3807 191.983 92.7102H194.369C194.396 93.161 194.585 93.5265 194.938 93.8068C195.29 94.0871 195.708 94.2273 196.193 94.2273C196.58 94.2273 196.92 94.142 197.216 93.9716C197.515 93.7973 197.748 93.5568 197.915 93.25C198.085 92.9394 198.17 92.5833 198.17 92.1818C198.17 91.7727 198.083 91.4129 197.909 91.1023C197.739 90.7917 197.502 90.5492 197.199 90.375C196.896 90.2008 196.549 90.1117 196.159 90.108C195.818 90.108 195.487 90.178 195.165 90.3182C194.847 90.4583 194.598 90.6496 194.42 90.892L192.233 90.5L192.784 84.3636H199.898V86.375H194.812L194.511 89.2898H194.58C194.784 89.0019 195.093 88.7633 195.506 88.5739C195.919 88.3845 196.381 88.2898 196.892 88.2898C197.593 88.2898 198.218 88.4545 198.767 88.7841C199.316 89.1136 199.75 89.5663 200.068 90.142C200.386 90.714 200.544 91.3731 200.54 92.1193C200.544 92.9034 200.362 93.6004 199.994 94.2102C199.631 94.8163 199.121 95.2936 198.466 95.642C197.814 95.9867 197.057 96.1591 196.193 96.1591Z" fill="black"/>
<path d="M187.102 108V107.489L189.023 105.386C189.248 105.14 189.434 104.926 189.58 104.744C189.725 104.561 189.833 104.388 189.903 104.227C189.975 104.064 190.011 103.894 190.011 103.716C190.011 103.511 189.962 103.334 189.864 103.185C189.767 103.035 189.634 102.92 189.466 102.838C189.297 102.757 189.108 102.716 188.898 102.716C188.674 102.716 188.479 102.762 188.312 102.855C188.148 102.946 188.02 103.074 187.929 103.239C187.84 103.403 187.795 103.597 187.795 103.818H187.125C187.125 103.477 187.204 103.178 187.361 102.92C187.518 102.663 187.732 102.462 188.003 102.318C188.276 102.174 188.581 102.102 188.92 102.102C189.261 102.102 189.563 102.174 189.827 102.318C190.09 102.462 190.296 102.656 190.446 102.901C190.596 103.145 190.67 103.417 190.67 103.716C190.67 103.93 190.632 104.139 190.554 104.344C190.478 104.546 190.346 104.773 190.156 105.023C189.969 105.271 189.708 105.574 189.375 105.932L188.068 107.33V107.375H190.773V108H187.102ZM193.844 108.08C193.416 108.08 193.051 107.963 192.75 107.73C192.449 107.495 192.219 107.155 192.06 106.71C191.901 106.263 191.821 105.723 191.821 105.091C191.821 104.462 191.901 103.925 192.06 103.48C192.221 103.033 192.452 102.692 192.753 102.457C193.056 102.221 193.42 102.102 193.844 102.102C194.268 102.102 194.631 102.221 194.932 102.457C195.235 102.692 195.466 103.033 195.625 103.48C195.786 103.925 195.866 104.462 195.866 105.091C195.866 105.723 195.787 106.263 195.628 106.71C195.469 107.155 195.239 107.495 194.938 107.73C194.636 107.963 194.272 108.08 193.844 108.08ZM193.844 107.455C194.268 107.455 194.598 107.25 194.832 106.841C195.067 106.432 195.185 105.848 195.185 105.091C195.185 104.587 195.131 104.158 195.023 103.804C194.917 103.45 194.763 103.18 194.562 102.994C194.364 102.809 194.124 102.716 193.844 102.716C193.423 102.716 193.095 102.923 192.858 103.338C192.621 103.751 192.503 104.335 192.503 105.091C192.503 105.595 192.556 106.023 192.662 106.375C192.768 106.727 192.92 106.995 193.119 107.179C193.32 107.363 193.562 107.455 193.844 107.455ZM196.946 108V107.489L198.866 105.386C199.092 105.14 199.277 104.926 199.423 104.744C199.569 104.561 199.677 104.388 199.747 104.227C199.819 104.064 199.855 103.894 199.855 103.716C199.855 103.511 199.806 103.334 199.707 103.185C199.611 103.035 199.478 102.92 199.31 102.838C199.141 102.757 198.952 102.716 198.741 102.716C198.518 102.716 198.323 102.762 198.156 102.855C197.991 102.946 197.864 103.074 197.773 103.239C197.684 103.403 197.639 103.597 197.639 103.818H196.969C196.969 103.477 197.047 103.178 197.205 102.92C197.362 102.663 197.576 102.462 197.847 102.318C198.119 102.174 198.425 102.102 198.764 102.102C199.105 102.102 199.407 102.174 199.67 102.318C199.934 102.462 200.14 102.656 200.29 102.901C200.439 103.145 200.514 103.417 200.514 103.716C200.514 103.93 200.475 104.139 200.398 104.344C200.322 104.546 200.189 104.773 200 105.023C199.812 105.271 199.552 105.574 199.219 105.932L197.912 107.33V107.375H200.616V108H196.946ZM203.756 108.08C203.381 108.08 203.046 108.015 202.753 107.886C202.461 107.758 202.229 107.579 202.057 107.349C201.886 107.118 201.794 106.85 201.778 106.545H202.494C202.509 106.733 202.574 106.895 202.688 107.031C202.801 107.166 202.95 107.27 203.134 107.344C203.317 107.418 203.521 107.455 203.744 107.455C203.994 107.455 204.216 107.411 204.409 107.324C204.602 107.237 204.754 107.116 204.864 106.96C204.973 106.805 205.028 106.625 205.028 106.42C205.028 106.206 204.975 106.018 204.869 105.855C204.763 105.69 204.608 105.562 204.403 105.469C204.199 105.376 203.949 105.33 203.653 105.33H203.188V104.705H203.653C203.884 104.705 204.087 104.663 204.261 104.58C204.438 104.496 204.575 104.379 204.673 104.227C204.774 104.076 204.824 103.898 204.824 103.693C204.824 103.496 204.78 103.325 204.693 103.179C204.606 103.033 204.483 102.92 204.324 102.838C204.167 102.757 203.981 102.716 203.767 102.716C203.566 102.716 203.377 102.753 203.199 102.827C203.023 102.899 202.879 103.004 202.767 103.142C202.655 103.278 202.595 103.443 202.585 103.636H201.903C201.915 103.331 202.007 103.064 202.179 102.835C202.351 102.604 202.577 102.424 202.855 102.295C203.135 102.167 203.443 102.102 203.778 102.102C204.138 102.102 204.447 102.175 204.705 102.321C204.962 102.465 205.16 102.655 205.298 102.892C205.437 103.129 205.506 103.384 205.506 103.659C205.506 103.987 205.42 104.266 205.247 104.497C205.077 104.728 204.845 104.888 204.551 104.977V105.023C204.919 105.083 205.205 105.24 205.412 105.491C205.618 105.741 205.722 106.051 205.722 106.42C205.722 106.737 205.635 107.021 205.463 107.273C205.293 107.523 205.06 107.72 204.764 107.864C204.469 108.008 204.133 108.08 203.756 108.08Z" fill="black"/>
<path d="M289.881 99.5994C289.507 99.5971 289.146 99.5343 288.798 99.4112C288.452 99.2881 288.142 99.0881 287.867 98.8111C287.593 98.5341 287.375 98.1671 287.214 97.7102C287.055 97.2533 286.976 96.6922 286.976 96.027C286.978 95.4162 287.048 94.8705 287.185 94.3899C287.325 93.907 287.524 93.4974 287.782 93.1612C288.042 92.825 288.354 92.5694 288.716 92.3942C289.078 92.2166 289.484 92.1278 289.934 92.1278C290.419 92.1278 290.848 92.2225 291.219 92.4119C291.591 92.599 291.889 92.8535 292.114 93.1754C292.342 93.4974 292.479 93.8584 292.526 94.2585H291.01C290.951 94.0052 290.826 93.8063 290.637 93.6619C290.448 93.5175 290.213 93.4453 289.934 93.4453C289.46 93.4453 289.101 93.6513 288.854 94.0632C288.611 94.4751 288.486 95.035 288.482 95.7429H288.531C288.64 95.5275 288.787 95.344 288.972 95.1925C289.159 95.0386 289.371 94.9214 289.607 94.8409C289.846 94.758 290.098 94.7166 290.364 94.7166C290.795 94.7166 291.178 94.8184 291.514 95.022C291.85 95.2232 292.116 95.5002 292.31 95.853C292.504 96.2057 292.601 96.6094 292.601 97.0639C292.601 97.5563 292.486 97.9943 292.256 98.3778C292.029 98.7614 291.711 99.062 291.301 99.2798C290.894 99.4953 290.42 99.6018 289.881 99.5994ZM289.874 98.392C290.11 98.392 290.322 98.3352 290.509 98.2216C290.696 98.108 290.843 97.9541 290.95 97.7599C291.056 97.5658 291.109 97.348 291.109 97.1065C291.109 96.8651 291.056 96.6484 290.95 96.4567C290.845 96.2649 290.701 96.1122 290.516 95.9986C290.332 95.8849 290.121 95.8281 289.884 95.8281C289.707 95.8281 289.542 95.8613 289.391 95.9276C289.241 95.9938 289.11 96.0862 288.996 96.2045C288.885 96.3229 288.798 96.4602 288.734 96.6165C288.67 96.7704 288.638 96.9349 288.638 97.1101C288.638 97.3445 288.691 97.5587 288.798 97.7528C288.906 97.947 289.053 98.102 289.238 98.218C289.425 98.334 289.637 98.392 289.874 98.392Z" fill="black" fill-opacity="0.4"/>
<path d="M57.7278 130.545C57.6852 130.186 57.5124 129.906 57.2094 129.707C56.9063 129.509 56.5346 129.409 56.0943 129.409C55.7723 129.409 55.4906 129.461 55.2491 129.565C55.01 129.67 54.823 129.813 54.6881 129.995C54.5555 130.177 54.4892 130.384 54.4892 130.616C54.4892 130.811 54.5354 130.978 54.6277 131.117C54.7224 131.254 54.8431 131.369 54.9899 131.462C55.1367 131.552 55.2906 131.626 55.4515 131.685C55.6125 131.742 55.7605 131.788 55.8954 131.824L56.6341 132.023C56.8235 132.072 57.0342 132.141 57.2662 132.229C57.5006 132.316 57.7243 132.436 57.9373 132.587C58.1528 132.737 58.3303 132.928 58.47 133.163C58.6097 133.397 58.6795 133.685 58.6795 134.026C58.6795 134.419 58.5765 134.774 58.3706 135.091C58.167 135.408 57.8687 135.66 57.4757 135.847C57.0851 136.034 56.6104 136.128 56.0517 136.128C55.5309 136.128 55.0799 136.044 54.6987 135.876C54.3199 135.708 54.0216 135.473 53.8038 135.173C53.5884 134.872 53.4665 134.523 53.4381 134.125H54.3471C54.3708 134.4 54.4631 134.627 54.6241 134.807C54.7875 134.984 54.9935 135.117 55.242 135.205C55.493 135.29 55.7629 135.332 56.0517 135.332C56.3879 135.332 56.6897 135.278 56.9572 135.169C57.2248 135.058 57.4366 134.904 57.5929 134.707C57.7491 134.509 57.8273 134.277 57.8273 134.011C57.8273 133.77 57.7598 133.573 57.6248 133.422C57.4899 133.27 57.3123 133.147 57.0922 133.053C56.872 132.958 56.6341 132.875 56.3784 132.804L55.4835 132.548C54.9153 132.385 54.4655 132.152 54.1341 131.849C53.8026 131.546 53.6369 131.149 53.6369 130.659C53.6369 130.252 53.747 129.897 53.9672 129.594C54.1897 129.288 54.488 129.052 54.8621 128.884C55.2385 128.713 55.6587 128.628 56.1227 128.628C56.5915 128.628 57.0081 128.712 57.3727 128.88C57.7373 129.046 58.0261 129.273 58.2392 129.562C58.4546 129.851 58.5683 130.179 58.5801 130.545H57.7278ZM63.4514 133.77V130.545H64.2894V136H63.4514V135.077H63.3946C63.2667 135.354 63.0678 135.589 62.798 135.783C62.5281 135.975 62.1872 136.071 61.7752 136.071C61.4343 136.071 61.1313 135.996 60.8661 135.847C60.601 135.696 60.3927 135.469 60.2411 135.165C60.0896 134.86 60.0139 134.475 60.0139 134.011V130.545H60.8519V133.955C60.8519 134.352 60.9632 134.67 61.1857 134.906C61.4107 135.143 61.6971 135.261 62.0451 135.261C62.2535 135.261 62.4653 135.208 62.6808 135.102C62.8986 134.995 63.0809 134.832 63.2277 134.612C63.3768 134.391 63.4514 134.111 63.4514 133.77ZM66.6625 132.719V136H65.8244V130.545H66.6341V131.398H66.7051C66.8329 131.121 67.0271 130.898 67.2875 130.73C67.5479 130.56 67.8841 130.474 68.296 130.474C68.6653 130.474 68.9885 130.55 69.2655 130.702C69.5425 130.851 69.7579 131.078 69.9118 131.384C70.0657 131.687 70.1426 132.07 70.1426 132.534V136H69.3045V132.591C69.3045 132.162 69.1933 131.829 68.9707 131.589C68.7482 131.348 68.4428 131.227 68.0545 131.227C67.787 131.227 67.5479 131.285 67.3372 131.401C67.1289 131.517 66.9643 131.687 66.8436 131.909C66.7229 132.132 66.6625 132.402 66.6625 132.719Z" fill="black"/>
<path d="M97.4606 128.727H98.5118L100.983 134.764H101.069L103.54 128.727H104.591V136H103.767V130.474H103.696L101.424 136H100.628L98.3555 130.474H98.2845V136H97.4606V128.727ZM108.459 136.114C107.967 136.114 107.535 135.996 107.163 135.762C106.794 135.528 106.505 135.2 106.297 134.778C106.091 134.357 105.988 133.865 105.988 133.301C105.988 132.733 106.091 132.237 106.297 131.813C106.505 131.389 106.794 131.06 107.163 130.826C107.535 130.592 107.967 130.474 108.459 130.474C108.952 130.474 109.383 130.592 109.752 130.826C110.124 131.06 110.413 131.389 110.618 131.813C110.827 132.237 110.931 132.733 110.931 133.301C110.931 133.865 110.827 134.357 110.618 134.778C110.413 135.2 110.124 135.528 109.752 135.762C109.383 135.996 108.952 136.114 108.459 136.114ZM108.459 135.361C108.833 135.361 109.141 135.265 109.383 135.073C109.624 134.881 109.803 134.629 109.919 134.317C110.035 134.004 110.093 133.666 110.093 133.301C110.093 132.937 110.035 132.597 109.919 132.282C109.803 131.967 109.624 131.713 109.383 131.518C109.141 131.324 108.833 131.227 108.459 131.227C108.085 131.227 107.778 131.324 107.536 131.518C107.295 131.713 107.116 131.967 107 132.282C106.884 132.597 106.826 132.937 106.826 133.301C106.826 133.666 106.884 134.004 107 134.317C107.116 134.629 107.295 134.881 107.536 135.073C107.778 135.265 108.085 135.361 108.459 135.361ZM113.048 132.719V136H112.21V130.545H113.02V131.398H113.091C113.219 131.121 113.413 130.898 113.673 130.73C113.934 130.56 114.27 130.474 114.682 130.474C115.051 130.474 115.374 130.55 115.651 130.702C115.928 130.851 116.144 131.078 116.298 131.384C116.452 131.687 116.528 132.07 116.528 132.534V136H115.69V132.591C115.69 132.162 115.579 131.829 115.357 131.589C115.134 131.348 114.829 131.227 114.44 131.227C114.173 131.227 113.934 131.285 113.723 131.401C113.515 131.517 113.35 131.687 113.229 131.909C113.109 132.132 113.048 132.402 113.048 132.719Z" fill="black"/>
<path d="M143.273 129.509V128.727H148.728V129.509H146.441V136H145.56V129.509H143.273ZM152.668 133.77V130.545H153.506V136H152.668V135.077H152.612C152.484 135.354 152.285 135.589 152.015 135.783C151.745 135.975 151.404 136.071 150.992 136.071C150.651 136.071 150.348 135.996 150.083 135.847C149.818 135.696 149.61 135.469 149.458 135.165C149.307 134.86 149.231 134.475 149.231 134.011V130.545H150.069V133.955C150.069 134.352 150.18 134.67 150.403 134.906C150.628 135.143 150.914 135.261 151.262 135.261C151.47 135.261 151.682 135.208 151.898 135.102C152.116 134.995 152.298 134.832 152.445 134.612C152.594 134.391 152.668 134.111 152.668 133.77ZM157.328 136.114C156.803 136.114 156.349 135.998 155.968 135.766C155.59 135.531 155.297 135.205 155.091 134.786C154.888 134.364 154.786 133.874 154.786 133.315C154.786 132.757 154.888 132.264 155.091 131.838C155.297 131.41 155.584 131.076 155.951 130.837C156.32 130.595 156.751 130.474 157.243 130.474C157.527 130.474 157.808 130.522 158.085 130.616C158.362 130.711 158.614 130.865 158.841 131.078C159.068 131.289 159.25 131.568 159.384 131.916C159.519 132.264 159.587 132.693 159.587 133.202V133.557H155.382V132.832H158.735C158.735 132.525 158.673 132.25 158.55 132.009C158.429 131.767 158.256 131.576 158.032 131.437C157.809 131.297 157.546 131.227 157.243 131.227C156.909 131.227 156.621 131.31 156.377 131.476C156.135 131.639 155.949 131.852 155.819 132.115C155.689 132.378 155.624 132.66 155.624 132.96V133.443C155.624 133.855 155.695 134.204 155.837 134.491C155.981 134.775 156.181 134.991 156.437 135.141C156.693 135.287 156.99 135.361 157.328 135.361C157.549 135.361 157.747 135.33 157.925 135.268C158.105 135.205 158.26 135.11 158.39 134.984C158.52 134.857 158.621 134.698 158.692 134.509L159.502 134.736C159.416 135.01 159.273 135.252 159.072 135.46C158.871 135.666 158.622 135.827 158.326 135.943C158.03 136.057 157.698 136.114 157.328 136.114Z" fill="black"/>
<path d="M187.702 136L185.713 128.727H186.608L188.128 134.651H188.199L189.747 128.727H190.741L192.29 134.651H192.361L193.881 128.727H194.776L192.787 136H191.878L190.273 130.205H190.216L188.611 136H187.702ZM197.538 136.114C197.013 136.114 196.559 135.998 196.178 135.766C195.799 135.531 195.507 135.205 195.301 134.786C195.098 134.364 194.996 133.874 194.996 133.315C194.996 132.757 195.098 132.264 195.301 131.838C195.507 131.41 195.794 131.076 196.161 130.837C196.53 130.595 196.961 130.474 197.453 130.474C197.737 130.474 198.018 130.522 198.295 130.616C198.572 130.711 198.824 130.865 199.051 131.078C199.278 131.289 199.46 131.568 199.594 131.916C199.729 132.264 199.797 132.693 199.797 133.202V133.557H195.592V132.832H198.945C198.945 132.525 198.883 132.25 198.76 132.009C198.639 131.767 198.466 131.576 198.241 131.437C198.019 131.297 197.756 131.227 197.453 131.227C197.119 131.227 196.83 131.31 196.587 131.476C196.345 131.639 196.159 131.852 196.029 132.115C195.899 132.378 195.834 132.66 195.834 132.96V133.443C195.834 133.855 195.905 134.204 196.047 134.491C196.191 134.775 196.391 134.991 196.647 135.141C196.903 135.287 197.2 135.361 197.538 135.361C197.759 135.361 197.957 135.33 198.135 135.268C198.315 135.205 198.47 135.11 198.6 134.984C198.73 134.857 198.831 134.698 198.902 134.509L199.712 134.736C199.626 135.01 199.483 135.252 199.282 135.46C199.081 135.666 198.832 135.827 198.536 135.943C198.24 136.057 197.908 136.114 197.538 136.114ZM203.131 136.114C202.677 136.114 202.276 135.999 201.928 135.769C201.58 135.537 201.307 135.21 201.111 134.789C200.914 134.365 200.816 133.865 200.816 133.287C200.816 132.714 200.914 132.217 201.111 131.795C201.307 131.374 201.581 131.049 201.931 130.819C202.281 130.589 202.686 130.474 203.146 130.474C203.501 130.474 203.781 130.534 203.987 130.652C204.196 130.768 204.354 130.901 204.463 131.05C204.574 131.196 204.661 131.317 204.722 131.412H204.793V128.727H205.631V136H204.822V135.162H204.722C204.661 135.261 204.573 135.387 204.46 135.538C204.346 135.687 204.184 135.821 203.973 135.94C203.762 136.056 203.482 136.114 203.131 136.114ZM203.245 135.361C203.581 135.361 203.865 135.273 204.097 135.098C204.329 134.92 204.506 134.675 204.626 134.363C204.747 134.048 204.808 133.685 204.808 133.273C204.808 132.866 204.748 132.509 204.63 132.204C204.512 131.896 204.336 131.657 204.104 131.487C203.872 131.314 203.586 131.227 203.245 131.227C202.89 131.227 202.594 131.318 202.357 131.501C202.123 131.681 201.946 131.926 201.828 132.236C201.712 132.544 201.654 132.889 201.654 133.273C201.654 133.661 201.713 134.014 201.832 134.331C201.952 134.646 202.13 134.897 202.364 135.084C202.601 135.268 202.895 135.361 203.245 135.361Z" fill="black"/>
<path d="M232.193 129.509V128.727H237.647V129.509H235.361V136H234.48V129.509H232.193ZM239.731 132.719V136H238.893V128.727H239.731V131.398H239.802C239.93 131.116 240.122 130.892 240.377 130.727C240.635 130.558 240.979 130.474 241.407 130.474C241.779 130.474 242.104 130.549 242.384 130.698C242.663 130.845 242.88 131.071 243.034 131.376C243.19 131.679 243.268 132.065 243.268 132.534V136H242.43V132.591C242.43 132.158 242.318 131.823 242.093 131.586C241.87 131.347 241.561 131.227 241.166 131.227C240.891 131.227 240.645 131.285 240.427 131.401C240.212 131.517 240.041 131.687 239.916 131.909C239.793 132.132 239.731 132.402 239.731 132.719ZM248.239 133.77V130.545H249.077V136H248.239V135.077H248.182C248.054 135.354 247.855 135.589 247.585 135.783C247.315 135.975 246.975 136.071 246.563 136.071C246.222 136.071 245.919 135.996 245.653 135.847C245.388 135.696 245.18 135.469 245.028 135.165C244.877 134.86 244.801 134.475 244.801 134.011V130.545H245.639V133.955C245.639 134.352 245.751 134.67 245.973 134.906C246.198 135.143 246.484 135.261 246.832 135.261C247.041 135.261 247.253 135.208 247.468 135.102C247.686 134.995 247.868 134.832 248.015 134.612C248.164 134.391 248.239 134.111 248.239 133.77Z" fill="black"/>
<path d="M280.801 136V128.727H285.161V129.509H281.681V131.966H284.835V132.747H281.681V136H280.801ZM286.498 136V130.545H287.307V131.369H287.364C287.463 131.099 287.643 130.88 287.904 130.712C288.164 130.544 288.458 130.46 288.784 130.46C288.846 130.46 288.923 130.461 289.015 130.464C289.108 130.466 289.177 130.47 289.225 130.474V131.327C289.196 131.32 289.131 131.309 289.029 131.295C288.93 131.278 288.825 131.27 288.713 131.27C288.448 131.27 288.212 131.326 288.003 131.437C287.797 131.546 287.634 131.697 287.513 131.891C287.395 132.083 287.336 132.302 287.336 132.548V136H286.498ZM290.218 136V130.545H291.056V136H290.218ZM290.644 129.636C290.481 129.636 290.34 129.581 290.222 129.469C290.106 129.358 290.048 129.224 290.048 129.068C290.048 128.912 290.106 128.778 290.222 128.667C290.34 128.556 290.481 128.5 290.644 128.5C290.808 128.5 290.947 128.556 291.063 128.667C291.182 128.778 291.241 128.912 291.241 129.068C291.241 129.224 291.182 129.358 291.063 129.469C290.947 129.581 290.808 129.636 290.644 129.636Z" fill="black"/>
<path d="M327.488 130.545C327.445 130.186 327.272 129.906 326.969 129.707C326.666 129.509 326.295 129.409 325.854 129.409C325.532 129.409 325.251 129.461 325.009 129.565C324.77 129.67 324.583 129.813 324.448 129.995C324.315 130.177 324.249 130.384 324.249 130.616C324.249 130.811 324.295 130.978 324.388 131.117C324.482 131.254 324.603 131.369 324.75 131.462C324.897 131.552 325.051 131.626 325.212 131.685C325.373 131.742 325.521 131.788 325.655 131.824L326.394 132.023C326.583 132.072 326.794 132.141 327.026 132.229C327.261 132.316 327.484 132.436 327.697 132.587C327.913 132.737 328.09 132.928 328.23 133.163C328.37 133.397 328.44 133.685 328.44 134.026C328.44 134.419 328.337 134.774 328.131 135.091C327.927 135.408 327.629 135.66 327.236 135.847C326.845 136.034 326.37 136.128 325.812 136.128C325.291 136.128 324.84 136.044 324.459 135.876C324.08 135.708 323.782 135.473 323.564 135.173C323.348 134.872 323.226 134.523 323.198 134.125H324.107C324.131 134.4 324.223 134.627 324.384 134.807C324.547 134.984 324.753 135.117 325.002 135.205C325.253 135.29 325.523 135.332 325.812 135.332C326.148 135.332 326.45 135.278 326.717 135.169C326.985 135.058 327.197 134.904 327.353 134.707C327.509 134.509 327.587 134.277 327.587 134.011C327.587 133.77 327.52 133.573 327.385 133.422C327.25 133.27 327.072 133.147 326.852 133.053C326.632 132.958 326.394 132.875 326.138 132.804L325.244 132.548C324.675 132.385 324.226 132.152 323.894 131.849C323.563 131.546 323.397 131.149 323.397 130.659C323.397 130.252 323.507 129.897 323.727 129.594C323.95 129.288 324.248 129.052 324.622 128.884C324.998 128.713 325.419 128.628 325.883 128.628C326.351 128.628 326.768 128.712 327.133 128.88C327.497 129.046 327.786 129.273 327.999 129.562C328.215 129.851 328.328 130.179 328.34 130.545H327.488ZM331.379 136.128C331.033 136.128 330.72 136.063 330.438 135.933C330.156 135.8 329.932 135.609 329.767 135.361C329.601 135.11 329.518 134.807 329.518 134.452C329.518 134.139 329.58 133.886 329.703 133.692C329.826 133.495 329.991 133.341 330.196 133.23C330.402 133.119 330.63 133.036 330.878 132.982C331.129 132.925 331.381 132.88 331.635 132.847C331.966 132.804 332.235 132.772 332.441 132.751C332.649 132.727 332.801 132.688 332.895 132.634C332.992 132.579 333.041 132.484 333.041 132.349V132.321C333.041 131.971 332.945 131.698 332.753 131.504C332.564 131.31 332.276 131.213 331.89 131.213C331.49 131.213 331.177 131.301 330.949 131.476C330.722 131.651 330.562 131.838 330.47 132.037L329.674 131.753C329.816 131.421 330.006 131.163 330.243 130.979C330.482 130.792 330.742 130.661 331.024 130.588C331.308 130.512 331.587 130.474 331.862 130.474C332.037 130.474 332.238 130.496 332.466 130.538C332.695 130.579 332.917 130.663 333.13 130.79C333.345 130.918 333.524 131.111 333.666 131.369C333.808 131.627 333.879 131.973 333.879 132.406V136H333.041V135.261H332.998C332.941 135.38 332.847 135.506 332.714 135.641C332.582 135.776 332.405 135.891 332.185 135.986C331.965 136.08 331.696 136.128 331.379 136.128ZM331.507 135.375C331.838 135.375 332.118 135.31 332.345 135.18C332.575 135.049 332.747 134.881 332.863 134.675C332.982 134.469 333.041 134.253 333.041 134.026V133.259C333.005 133.301 332.927 133.34 332.807 133.376C332.688 133.409 332.551 133.438 332.395 133.464C332.241 133.488 332.09 133.509 331.944 133.528C331.799 133.545 331.682 133.559 331.592 133.571C331.374 133.599 331.171 133.646 330.981 133.71C330.794 133.771 330.643 133.865 330.527 133.99C330.413 134.113 330.356 134.281 330.356 134.494C330.356 134.786 330.464 135.006 330.679 135.155C330.897 135.302 331.173 135.375 331.507 135.375ZM337.781 130.545V131.256H334.954V130.545H337.781ZM335.778 129.239H336.616V134.438C336.616 134.674 336.65 134.852 336.719 134.97C336.79 135.086 336.88 135.164 336.989 135.205C337.1 135.242 337.217 135.261 337.34 135.261C337.433 135.261 337.509 135.257 337.568 135.247C337.627 135.235 337.674 135.226 337.71 135.219L337.88 135.972C337.823 135.993 337.744 136.014 337.642 136.036C337.541 136.059 337.411 136.071 337.255 136.071C337.018 136.071 336.786 136.02 336.559 135.918C336.334 135.817 336.147 135.661 335.998 135.453C335.851 135.245 335.778 134.982 335.778 134.665V129.239Z" fill="black"/>
<path d="M63.1668 156.727V164H62.2862V157.651H62.2435L60.468 158.83V157.935L62.2862 156.727H63.1668Z" fill="#FF4343"/>
<path d="M104.324 164V163.361L106.725 160.733C107.007 160.425 107.239 160.158 107.421 159.93C107.603 159.701 107.738 159.485 107.826 159.284C107.916 159.08 107.961 158.867 107.961 158.645C107.961 158.389 107.899 158.168 107.776 157.981C107.655 157.794 107.489 157.649 107.279 157.548C107.068 157.446 106.831 157.395 106.569 157.395C106.289 157.395 106.045 157.453 105.837 157.569C105.631 157.683 105.471 157.842 105.358 158.048C105.246 158.254 105.191 158.496 105.191 158.773H104.353C104.353 158.347 104.451 157.973 104.647 157.651C104.844 157.329 105.111 157.078 105.45 156.898C105.791 156.718 106.173 156.628 106.597 156.628C107.023 156.628 107.401 156.718 107.73 156.898C108.059 157.078 108.317 157.32 108.504 157.626C108.691 157.931 108.784 158.271 108.784 158.645C108.784 158.912 108.736 159.174 108.639 159.43C108.544 159.683 108.378 159.966 108.142 160.278C107.907 160.589 107.582 160.967 107.165 161.415L105.532 163.162V163.219H108.912V164H104.324Z" fill="black"/>
<path d="M151.496 164.099C151.027 164.099 150.609 164.019 150.242 163.858C149.878 163.697 149.588 163.473 149.372 163.187C149.159 162.898 149.043 162.563 149.024 162.182H149.919C149.938 162.416 150.019 162.619 150.161 162.789C150.303 162.957 150.489 163.087 150.718 163.18C150.948 163.272 151.202 163.318 151.482 163.318C151.794 163.318 152.071 163.264 152.313 163.155C152.554 163.046 152.744 162.894 152.881 162.7C153.018 162.506 153.087 162.281 153.087 162.026C153.087 161.758 153.021 161.522 152.888 161.319C152.755 161.113 152.561 160.952 152.306 160.836C152.05 160.72 151.737 160.662 151.368 160.662H150.786V159.881H151.368C151.657 159.881 151.91 159.829 152.128 159.724C152.348 159.62 152.52 159.473 152.643 159.284C152.768 159.095 152.831 158.872 152.831 158.616C152.831 158.37 152.777 158.156 152.668 157.974C152.559 157.791 152.405 157.649 152.206 157.548C152.01 157.446 151.778 157.395 151.51 157.395C151.259 157.395 151.023 157.441 150.8 157.533C150.58 157.623 150.4 157.755 150.26 157.928C150.121 158.098 150.045 158.304 150.033 158.545H149.181C149.195 158.164 149.31 157.83 149.525 157.544C149.741 157.255 150.022 157.03 150.37 156.869C150.721 156.708 151.105 156.628 151.524 156.628C151.974 156.628 152.36 156.719 152.682 156.901C153.004 157.081 153.251 157.319 153.424 157.615C153.597 157.911 153.683 158.231 153.683 158.574C153.683 158.983 153.576 159.333 153.36 159.621C153.147 159.91 152.857 160.11 152.49 160.222V160.278C152.95 160.354 153.308 160.549 153.566 160.864C153.824 161.177 153.953 161.564 153.953 162.026C153.953 162.421 153.846 162.776 153.63 163.091C153.417 163.403 153.126 163.65 152.757 163.83C152.387 164.009 151.967 164.099 151.496 164.099Z" fill="black"/>
<path d="M193.582 162.509V161.784L196.778 156.727H197.304V157.849H196.949L194.534 161.67V161.727H198.838V162.509H193.582ZM197.006 164V162.288V161.951V156.727H197.844V164H197.006Z" fill="black"/>
<path d="M240.74 164.099C240.323 164.099 239.948 164.017 239.614 163.851C239.28 163.685 239.013 163.458 238.812 163.169C238.61 162.88 238.5 162.551 238.481 162.182H239.334C239.367 162.511 239.516 162.783 239.781 162.999C240.049 163.212 240.368 163.318 240.74 163.318C241.038 163.318 241.303 163.248 241.535 163.109C241.77 162.969 241.953 162.777 242.086 162.533C242.221 162.287 242.288 162.009 242.288 161.699C242.288 161.382 242.218 161.099 242.079 160.85C241.941 160.599 241.752 160.402 241.511 160.257C241.269 160.113 240.993 160.039 240.683 160.037C240.461 160.035 240.232 160.069 239.998 160.14C239.763 160.209 239.57 160.297 239.419 160.406L238.595 160.307L239.035 156.727H242.814V157.509H239.774L239.518 159.653H239.561C239.71 159.535 239.897 159.437 240.122 159.359C240.347 159.281 240.581 159.241 240.825 159.241C241.27 159.241 241.667 159.348 242.015 159.561C242.365 159.772 242.64 160.061 242.839 160.428C243.04 160.795 243.14 161.214 243.14 161.685C243.14 162.149 243.036 162.563 242.828 162.928C242.622 163.29 242.338 163.576 241.976 163.787C241.614 163.995 241.202 164.099 240.74 164.099Z" fill="black"/>
<path d="M285.596 164.099C285.298 164.095 285 164.038 284.701 163.929C284.403 163.82 284.131 163.637 283.885 163.379C283.638 163.118 283.441 162.767 283.292 162.324C283.142 161.879 283.068 161.32 283.068 160.648C283.068 160.004 283.128 159.433 283.249 158.936C283.37 158.437 283.545 158.016 283.774 157.675C284.004 157.332 284.281 157.072 284.605 156.894C284.932 156.717 285.3 156.628 285.71 156.628C286.117 156.628 286.479 156.71 286.796 156.873C287.116 157.034 287.377 157.259 287.578 157.548C287.779 157.836 287.909 158.169 287.968 158.545H287.102C287.021 158.219 286.865 157.948 286.633 157.732C286.401 157.517 286.093 157.409 285.71 157.409C285.146 157.409 284.702 157.654 284.378 158.144C284.056 158.634 283.894 159.322 283.892 160.207H283.948C284.081 160.006 284.238 159.835 284.421 159.692C284.605 159.548 284.809 159.437 285.032 159.359C285.254 159.281 285.49 159.241 285.738 159.241C286.155 159.241 286.536 159.346 286.882 159.554C287.227 159.76 287.504 160.045 287.713 160.41C287.921 160.772 288.025 161.188 288.025 161.656C288.025 162.106 287.925 162.518 287.723 162.892C287.522 163.264 287.239 163.56 286.875 163.78C286.512 163.998 286.086 164.104 285.596 164.099ZM285.596 163.318C285.894 163.318 286.162 163.244 286.399 163.094C286.638 162.945 286.826 162.745 286.963 162.494C287.103 162.243 287.173 161.964 287.173 161.656C287.173 161.356 287.105 161.082 286.97 160.836C286.838 160.587 286.654 160.39 286.42 160.243C286.188 160.096 285.923 160.023 285.625 160.023C285.4 160.023 285.19 160.068 284.996 160.158C284.802 160.245 284.631 160.366 284.485 160.52C284.34 160.674 284.227 160.85 284.144 161.049C284.061 161.246 284.019 161.453 284.019 161.67C284.019 161.959 284.087 162.229 284.222 162.48C284.359 162.731 284.546 162.933 284.783 163.087C285.022 163.241 285.293 163.318 285.596 163.318Z" fill="black"/>
<path d="M328.623 164L331.876 157.565V157.509H328.126V156.727H332.785V157.551L329.546 164H328.623Z" fill="#9747FF"/>
<path d="M61.9396 209.099C61.4519 209.099 61.021 209.013 60.647 208.84C60.2753 208.665 59.9853 208.425 59.7769 208.119C59.5686 207.812 59.4656 207.461 59.468 207.068C59.4656 206.76 59.526 206.476 59.6491 206.216C59.7722 205.953 59.9403 205.734 60.1533 205.559C60.3688 205.381 60.6091 205.269 60.8742 205.222V205.179C60.5262 205.089 60.2492 204.894 60.0433 204.593C59.8373 204.29 59.7355 203.946 59.7379 203.56C59.7355 203.19 59.829 202.86 60.0184 202.569C60.2078 202.278 60.4682 202.048 60.7996 201.88C61.1335 201.712 61.5134 201.628 61.9396 201.628C62.361 201.628 62.7374 201.712 63.0688 201.88C63.4003 202.048 63.6607 202.278 63.8501 202.569C64.0418 202.86 64.1389 203.19 64.1413 203.56C64.1389 203.946 64.0336 204.29 63.8252 204.593C63.6193 204.894 63.3458 205.089 63.0049 205.179V205.222C63.2677 205.269 63.5044 205.381 63.7151 205.559C63.9258 205.734 64.0939 205.953 64.2194 206.216C64.3449 206.476 64.4088 206.76 64.4112 207.068C64.4088 207.461 64.3023 207.812 64.0916 208.119C63.8832 208.425 63.5932 208.665 63.2215 208.84C62.8522 209.013 62.4249 209.099 61.9396 209.099ZM61.9396 208.318C62.2686 208.318 62.5527 208.265 62.7918 208.158C63.0309 208.052 63.2156 207.902 63.3458 207.707C63.476 207.513 63.5423 207.286 63.5447 207.026C63.5423 206.751 63.4713 206.508 63.3316 206.298C63.1919 206.087 63.0014 205.921 62.7599 205.8C62.5208 205.68 62.2473 205.619 61.9396 205.619C61.6294 205.619 61.3524 205.68 61.1086 205.8C60.8671 205.921 60.6765 206.087 60.5369 206.298C60.3996 206.508 60.3321 206.751 60.3345 207.026C60.3321 207.286 60.3948 207.513 60.5227 207.707C60.6529 207.902 60.8387 208.052 61.0802 208.158C61.3217 208.265 61.6081 208.318 61.9396 208.318ZM61.9396 204.866C62.2 204.866 62.4308 204.814 62.632 204.71C62.8356 204.606 62.9954 204.46 63.1114 204.273C63.2274 204.086 63.2866 203.867 63.289 203.616C63.2866 203.37 63.2286 203.156 63.115 202.974C63.0014 202.789 62.8439 202.647 62.6427 202.548C62.4415 202.446 62.2071 202.395 61.9396 202.395C61.6673 202.395 61.4294 202.446 61.2258 202.548C61.0222 202.647 60.8648 202.789 60.7535 202.974C60.6422 203.156 60.5878 203.37 60.5901 203.616C60.5878 203.867 60.6434 204.086 60.757 204.273C60.873 204.46 61.0328 204.606 61.2364 204.71C61.44 204.814 61.6744 204.866 61.9396 204.866Z" fill="#FF4343"/>
<path d="M106.64 201.628C106.938 201.63 107.236 201.687 107.534 201.798C107.833 201.91 108.105 202.094 108.351 202.352C108.597 202.608 108.795 202.957 108.944 203.4C109.093 203.843 109.168 204.398 109.168 205.065C109.168 205.712 109.106 206.286 108.983 206.788C108.863 207.287 108.687 207.709 108.458 208.052C108.231 208.395 107.954 208.656 107.627 208.833C107.302 209.011 106.936 209.099 106.526 209.099C106.119 209.099 105.755 209.019 105.436 208.858C105.119 208.695 104.858 208.469 104.655 208.18C104.453 207.888 104.324 207.551 104.267 207.168H105.134C105.212 207.501 105.367 207.777 105.599 207.995C105.833 208.21 106.142 208.318 106.526 208.318C107.087 208.318 107.53 208.073 107.854 207.583C108.181 207.093 108.344 206.401 108.344 205.506H108.287C108.155 205.705 107.997 205.876 107.815 206.021C107.633 206.165 107.43 206.276 107.208 206.354C106.985 206.433 106.748 206.472 106.498 206.472C106.081 206.472 105.699 206.369 105.351 206.163C105.005 205.954 104.728 205.669 104.52 205.307C104.314 204.942 104.211 204.526 104.211 204.057C104.211 203.612 104.31 203.205 104.509 202.835C104.71 202.464 104.992 202.168 105.354 201.947C105.719 201.727 106.147 201.621 106.64 201.628ZM106.64 202.409C106.341 202.409 106.073 202.484 105.833 202.633C105.597 202.78 105.409 202.978 105.269 203.229C105.132 203.478 105.063 203.754 105.063 204.057C105.063 204.36 105.129 204.636 105.262 204.884C105.397 205.13 105.58 205.327 105.812 205.474C106.047 205.618 106.313 205.69 106.611 205.69C106.836 205.69 107.046 205.647 107.24 205.559C107.434 205.469 107.603 205.347 107.748 205.193C107.894 205.037 108.009 204.861 108.092 204.664C108.175 204.465 108.216 204.258 108.216 204.043C108.216 203.759 108.148 203.492 108.01 203.244C107.875 202.995 107.688 202.794 107.449 202.64C107.213 202.486 106.943 202.409 106.64 202.409Z" fill="black"/>
<path d="M149.595 201.727V209H148.715V202.651H148.672L146.897 203.83V202.935L148.715 201.727H149.595ZM154.059 209.099C153.524 209.099 153.068 208.954 152.692 208.663C152.316 208.369 152.028 207.944 151.829 207.388C151.63 206.829 151.531 206.154 151.531 205.364C151.531 204.578 151.63 203.906 151.829 203.35C152.03 202.791 152.319 202.365 152.696 202.072C153.074 201.776 153.529 201.628 154.059 201.628C154.59 201.628 155.043 201.776 155.419 202.072C155.798 202.365 156.087 202.791 156.286 203.35C156.487 203.906 156.588 204.578 156.588 205.364C156.588 206.154 156.488 206.829 156.289 207.388C156.09 207.944 155.803 208.369 155.426 208.663C155.05 208.954 154.594 209.099 154.059 209.099ZM154.059 208.318C154.59 208.318 155.001 208.062 155.295 207.551C155.589 207.04 155.735 206.311 155.735 205.364C155.735 204.734 155.668 204.198 155.533 203.755C155.4 203.312 155.209 202.975 154.958 202.743C154.709 202.511 154.41 202.395 154.059 202.395C153.534 202.395 153.123 202.654 152.827 203.173C152.531 203.689 152.383 204.419 152.383 205.364C152.383 205.993 152.449 206.528 152.582 206.969C152.715 207.409 152.905 207.744 153.154 207.974C153.405 208.203 153.706 208.318 154.059 208.318Z" fill="black"/>
<path d="M194.81 201.727V209H193.929V202.651H193.886L192.111 203.83V202.935L193.929 201.727H194.81ZM199.458 201.727V209H198.577V202.651H198.535L196.759 203.83V202.935L198.577 201.727H199.458Z" fill="black"/>
<path d="M239.024 201.727V209H238.143V202.651H238.101L236.325 203.83V202.935L238.143 201.727H239.024ZM241.116 209V208.361L243.516 205.733C243.798 205.425 244.03 205.158 244.212 204.93C244.395 204.701 244.529 204.485 244.617 204.284C244.707 204.08 244.752 203.867 244.752 203.645C244.752 203.389 244.69 203.168 244.567 202.981C244.447 202.794 244.281 202.649 244.07 202.548C243.859 202.446 243.623 202.395 243.36 202.395C243.081 202.395 242.837 202.453 242.628 202.569C242.422 202.683 242.263 202.842 242.149 203.048C242.038 203.254 241.982 203.496 241.982 203.773H241.144C241.144 203.347 241.242 202.973 241.439 202.651C241.635 202.329 241.903 202.078 242.241 201.898C242.582 201.718 242.965 201.628 243.388 201.628C243.814 201.628 244.192 201.718 244.521 201.898C244.85 202.078 245.108 202.32 245.295 202.626C245.482 202.931 245.576 203.271 245.576 203.645C245.576 203.912 245.527 204.174 245.43 204.43C245.336 204.683 245.17 204.966 244.933 205.278C244.699 205.589 244.373 205.967 243.957 206.415L242.323 208.162V208.219H245.704V209H241.116Z" fill="black"/>
<path d="M283.238 201.727V209H282.358V202.651H282.315L280.539 203.83V202.935L282.358 201.727H283.238ZM287.787 209.099C287.319 209.099 286.901 209.019 286.534 208.858C286.169 208.697 285.879 208.473 285.664 208.187C285.451 207.898 285.335 207.563 285.316 207.182H286.211C286.229 207.416 286.31 207.619 286.452 207.789C286.594 207.957 286.78 208.087 287.01 208.18C287.239 208.272 287.494 208.318 287.773 208.318C288.086 208.318 288.363 208.264 288.604 208.155C288.845 208.046 289.035 207.894 289.172 207.7C289.31 207.506 289.378 207.281 289.378 207.026C289.378 206.758 289.312 206.522 289.179 206.319C289.047 206.113 288.853 205.952 288.597 205.836C288.341 205.72 288.029 205.662 287.659 205.662H287.077V204.881H287.659C287.948 204.881 288.202 204.829 288.419 204.724C288.64 204.62 288.811 204.473 288.934 204.284C289.06 204.095 289.122 203.872 289.122 203.616C289.122 203.37 289.068 203.156 288.959 202.974C288.85 202.791 288.696 202.649 288.497 202.548C288.301 202.446 288.069 202.395 287.801 202.395C287.551 202.395 287.314 202.441 287.091 202.533C286.871 202.623 286.691 202.755 286.551 202.928C286.412 203.098 286.336 203.304 286.324 203.545H285.472C285.486 203.164 285.601 202.83 285.816 202.544C286.032 202.255 286.314 202.03 286.662 201.869C287.012 201.708 287.397 201.628 287.816 201.628C288.265 201.628 288.651 201.719 288.973 201.901C289.295 202.081 289.543 202.319 289.716 202.615C289.888 202.911 289.975 203.231 289.975 203.574C289.975 203.983 289.867 204.333 289.652 204.621C289.439 204.91 289.149 205.11 288.782 205.222V205.278C289.241 205.354 289.6 205.549 289.858 205.864C290.116 206.177 290.245 206.564 290.245 207.026C290.245 207.421 290.137 207.776 289.921 208.091C289.708 208.403 289.417 208.65 289.048 208.83C288.679 209.009 288.258 209.099 287.787 209.099Z" fill="black"/>
<path d="M327.953 201.727V209H327.072V202.651H327.029L325.254 203.83V202.935L327.072 201.727H327.953ZM329.874 207.509V206.784L333.07 201.727H333.595V202.849H333.24L330.825 206.67V206.727H335.129V207.509H329.874ZM333.297 209V207.288V206.951V201.727H334.135V209H333.297Z" fill="#9747FF"/>
<path d="M60.1668 246.727V254H59.2862V247.651H59.2435L57.468 248.83V247.935L59.2862 246.727H60.1668ZM64.5312 254.099C64.1145 254.099 63.7393 254.017 63.4055 253.851C63.0717 253.685 62.8041 253.458 62.6029 253.169C62.4017 252.88 62.2916 252.551 62.2727 252.182H63.1249C63.1581 252.511 63.3072 252.783 63.5724 252.999C63.8399 253.212 64.1595 253.318 64.5312 253.318C64.8295 253.318 65.0946 253.248 65.3266 253.109C65.561 252.969 65.7445 252.777 65.8771 252.533C66.012 252.287 66.0795 252.009 66.0795 251.699C66.0795 251.382 66.0096 251.099 65.87 250.85C65.7327 250.599 65.5433 250.402 65.3018 250.257C65.0603 250.113 64.7845 250.039 64.4744 250.037C64.2518 250.035 64.0234 250.069 63.789 250.14C63.5546 250.209 63.3617 250.297 63.2102 250.406L62.3863 250.307L62.8266 246.727H66.605V247.509H63.5653L63.3096 249.653H63.3522C63.5014 249.535 63.6884 249.437 63.9133 249.359C64.1382 249.281 64.3726 249.241 64.6164 249.241C65.0615 249.241 65.458 249.348 65.806 249.561C66.1564 249.772 66.431 250.061 66.6299 250.428C66.8311 250.795 66.9318 251.214 66.9318 251.685C66.9318 252.149 66.8276 252.563 66.6193 252.928C66.4133 253.29 66.1292 253.576 65.767 253.787C65.4048 253.995 64.9928 254.099 64.5312 254.099Z" fill="#FF4343"/>
<path d="M104.881 246.727V254H104V247.651H103.958L102.182 248.83V247.935L104 246.727H104.881ZM109.387 254.099C109.089 254.095 108.791 254.038 108.493 253.929C108.194 253.82 107.922 253.637 107.676 253.379C107.43 253.118 107.232 252.767 107.083 252.324C106.934 251.879 106.859 251.32 106.859 250.648C106.859 250.004 106.919 249.433 107.04 248.936C107.161 248.437 107.336 248.016 107.566 247.675C107.795 247.332 108.072 247.072 108.397 246.894C108.723 246.717 109.092 246.628 109.501 246.628C109.908 246.628 110.271 246.71 110.588 246.873C110.907 247.034 111.168 247.259 111.369 247.548C111.57 247.836 111.7 248.169 111.76 248.545H110.893C110.813 248.219 110.656 247.948 110.424 247.732C110.192 247.517 109.885 247.409 109.501 247.409C108.938 247.409 108.494 247.654 108.169 248.144C107.847 248.634 107.685 249.322 107.683 250.207H107.74C107.872 250.006 108.03 249.835 108.212 249.692C108.397 249.548 108.6 249.437 108.823 249.359C109.045 249.281 109.281 249.241 109.53 249.241C109.946 249.241 110.327 249.346 110.673 249.554C111.019 249.76 111.296 250.045 111.504 250.41C111.712 250.772 111.816 251.188 111.816 251.656C111.816 252.106 111.716 252.518 111.515 252.892C111.313 253.264 111.03 253.56 110.666 253.78C110.304 253.998 109.878 254.104 109.387 254.099ZM109.387 253.318C109.686 253.318 109.953 253.244 110.19 253.094C110.429 252.945 110.617 252.745 110.755 252.494C110.894 252.243 110.964 251.964 110.964 251.656C110.964 251.356 110.897 251.082 110.762 250.836C110.629 250.587 110.446 250.39 110.211 250.243C109.979 250.096 109.714 250.023 109.416 250.023C109.191 250.023 108.981 250.068 108.787 250.158C108.593 250.245 108.423 250.366 108.276 250.52C108.132 250.674 108.018 250.85 107.935 251.049C107.852 251.246 107.811 251.453 107.811 251.67C107.811 251.959 107.878 252.229 108.013 252.48C108.15 252.731 108.338 252.933 108.574 253.087C108.813 253.241 109.084 253.318 109.387 253.318Z" fill="black"/>
<path d="M149.595 246.727V254H148.715V247.651H148.672L146.897 248.83V247.935L148.715 246.727H149.595ZM151.914 254L155.167 247.565V247.509H151.417V246.727H156.076V247.551L152.838 254H151.914Z" fill="black"/>
<path d="M194.31 246.727V254H193.429V247.651H193.386L191.611 248.83V247.935L193.429 246.727H194.31ZM198.731 254.099C198.243 254.099 197.812 254.013 197.438 253.84C197.067 253.665 196.777 253.425 196.568 253.119C196.36 252.812 196.257 252.461 196.259 252.068C196.257 251.76 196.317 251.476 196.44 251.216C196.563 250.953 196.732 250.734 196.945 250.559C197.16 250.381 197.4 250.269 197.665 250.222V250.179C197.317 250.089 197.04 249.894 196.835 249.593C196.629 249.29 196.527 248.946 196.529 248.56C196.527 248.19 196.62 247.86 196.81 247.569C196.999 247.278 197.259 247.048 197.591 246.88C197.925 246.712 198.305 246.628 198.731 246.628C199.152 246.628 199.529 246.712 199.86 246.88C200.192 247.048 200.452 247.278 200.641 247.569C200.833 247.86 200.93 248.19 200.933 248.56C200.93 248.946 200.825 249.29 200.616 249.593C200.411 249.894 200.137 250.089 199.796 250.179V250.222C200.059 250.269 200.296 250.381 200.506 250.559C200.717 250.734 200.885 250.953 201.011 251.216C201.136 251.476 201.2 251.76 201.202 252.068C201.2 252.461 201.094 252.812 200.883 253.119C200.674 253.425 200.384 253.665 200.013 253.84C199.643 254.013 199.216 254.099 198.731 254.099ZM198.731 253.318C199.06 253.318 199.344 253.265 199.583 253.158C199.822 253.052 200.007 252.902 200.137 252.707C200.267 252.513 200.334 252.286 200.336 252.026C200.334 251.751 200.263 251.508 200.123 251.298C199.983 251.087 199.793 250.921 199.551 250.8C199.312 250.68 199.039 250.619 198.731 250.619C198.421 250.619 198.144 250.68 197.9 250.8C197.658 250.921 197.468 251.087 197.328 251.298C197.191 251.508 197.123 251.751 197.126 252.026C197.123 252.286 197.186 252.513 197.314 252.707C197.444 252.902 197.63 253.052 197.871 253.158C198.113 253.265 198.399 253.318 198.731 253.318ZM198.731 249.866C198.991 249.866 199.222 249.814 199.423 249.71C199.627 249.606 199.787 249.46 199.903 249.273C200.019 249.086 200.078 248.867 200.08 248.616C200.078 248.37 200.02 248.156 199.906 247.974C199.793 247.789 199.635 247.647 199.434 247.548C199.233 247.446 198.998 247.395 198.731 247.395C198.459 247.395 198.221 247.446 198.017 247.548C197.813 247.647 197.656 247.789 197.545 247.974C197.433 248.156 197.379 248.37 197.381 248.616C197.379 248.867 197.435 249.086 197.548 249.273C197.664 249.46 197.824 249.606 198.028 249.71C198.231 249.814 198.466 249.866 198.731 249.866Z" fill="black"/>
<path d="M239.024 246.727V254H238.143V247.651H238.101L236.325 248.83V247.935L238.143 246.727H239.024ZM243.431 246.628C243.729 246.63 244.028 246.687 244.326 246.798C244.624 246.91 244.896 247.094 245.143 247.352C245.389 247.608 245.587 247.957 245.736 248.4C245.885 248.843 245.959 249.398 245.959 250.065C245.959 250.712 245.898 251.286 245.775 251.788C245.654 252.287 245.479 252.709 245.249 253.052C245.022 253.395 244.745 253.656 244.418 253.833C244.094 254.011 243.727 254.099 243.317 254.099C242.91 254.099 242.547 254.019 242.227 253.858C241.91 253.695 241.649 253.469 241.446 253.18C241.245 252.888 241.116 252.551 241.059 252.168H241.925C242.003 252.501 242.158 252.777 242.39 252.995C242.625 253.21 242.934 253.318 243.317 253.318C243.878 253.318 244.321 253.073 244.645 252.583C244.972 252.093 245.136 251.401 245.136 250.506H245.079C244.946 250.705 244.789 250.876 244.606 251.021C244.424 251.165 244.222 251.276 243.999 251.354C243.777 251.433 243.54 251.472 243.289 251.472C242.872 251.472 242.49 251.369 242.142 251.163C241.796 250.954 241.519 250.669 241.311 250.307C241.105 249.942 241.002 249.526 241.002 249.057C241.002 248.612 241.101 248.205 241.3 247.835C241.502 247.464 241.783 247.168 242.145 246.947C242.51 246.727 242.939 246.621 243.431 246.628ZM243.431 247.409C243.133 247.409 242.864 247.484 242.625 247.633C242.388 247.78 242.2 247.978 242.06 248.229C241.923 248.478 241.854 248.754 241.854 249.057C241.854 249.36 241.921 249.636 242.053 249.884C242.188 250.13 242.372 250.327 242.604 250.474C242.838 250.618 243.104 250.69 243.403 250.69C243.627 250.69 243.837 250.647 244.031 250.559C244.225 250.469 244.395 250.347 244.539 250.193C244.686 250.037 244.801 249.861 244.883 249.664C244.966 249.465 245.008 249.258 245.008 249.043C245.008 248.759 244.939 248.492 244.802 248.244C244.667 247.995 244.48 247.794 244.241 247.64C244.004 247.486 243.734 247.409 243.431 247.409Z" fill="black"/>
<path d="M280.181 254V253.361L282.582 250.733C282.864 250.425 283.096 250.158 283.278 249.93C283.46 249.701 283.595 249.485 283.683 249.284C283.773 249.08 283.818 248.867 283.818 248.645C283.818 248.389 283.756 248.168 283.633 247.981C283.512 247.794 283.347 247.649 283.136 247.548C282.925 247.446 282.689 247.395 282.426 247.395C282.146 247.395 281.903 247.453 281.694 247.569C281.488 247.683 281.328 247.842 281.215 248.048C281.104 248.254 281.048 248.496 281.048 248.773H280.21C280.21 248.347 280.308 247.973 280.505 247.651C280.701 247.329 280.969 247.078 281.307 246.898C281.648 246.718 282.03 246.628 282.454 246.628C282.88 246.628 283.258 246.718 283.587 246.898C283.916 247.078 284.174 247.32 284.361 247.626C284.548 247.931 284.642 248.271 284.642 248.645C284.642 248.912 284.593 249.174 284.496 249.43C284.401 249.683 284.236 249.966 283.999 250.278C283.765 250.589 283.439 250.967 283.022 251.415L281.389 253.162V253.219H284.769V254H280.181ZM288.608 254.099C288.073 254.099 287.618 253.954 287.241 253.663C286.865 253.369 286.577 252.944 286.378 252.388C286.179 251.829 286.08 251.154 286.08 250.364C286.08 249.578 286.179 248.906 286.378 248.35C286.579 247.791 286.868 247.365 287.245 247.072C287.623 246.776 288.078 246.628 288.608 246.628C289.139 246.628 289.592 246.776 289.968 247.072C290.347 247.365 290.636 247.791 290.835 248.35C291.036 248.906 291.137 249.578 291.137 250.364C291.137 251.154 291.037 251.829 290.838 252.388C290.64 252.944 290.352 253.369 289.975 253.663C289.599 253.954 289.143 254.099 288.608 254.099ZM288.608 253.318C289.139 253.318 289.551 253.062 289.844 252.551C290.138 252.04 290.284 251.311 290.284 250.364C290.284 249.734 290.217 249.198 290.082 248.755C289.949 248.312 289.758 247.975 289.507 247.743C289.258 247.511 288.959 247.395 288.608 247.395C288.083 247.395 287.672 247.654 287.376 248.173C287.08 248.689 286.932 249.419 286.932 250.364C286.932 250.993 286.998 251.528 287.131 251.969C287.264 252.409 287.454 252.744 287.703 252.974C287.954 253.203 288.256 253.318 288.608 253.318Z" fill="black"/>
<path d="M325.896 254V253.361L328.296 250.733C328.578 250.425 328.81 250.158 328.992 249.93C329.175 249.701 329.31 249.485 329.397 249.284C329.487 249.08 329.532 248.867 329.532 248.645C329.532 248.389 329.471 248.168 329.347 247.981C329.227 247.794 329.061 247.649 328.85 247.548C328.64 247.446 328.403 247.395 328.14 247.395C327.861 247.395 327.617 247.453 327.409 247.569C327.203 247.683 327.043 247.842 326.929 248.048C326.818 248.254 326.762 248.496 326.762 248.773H325.924C325.924 248.347 326.022 247.973 326.219 247.651C326.415 247.329 326.683 247.078 327.021 246.898C327.362 246.718 327.745 246.628 328.169 246.628C328.595 246.628 328.972 246.718 329.301 246.898C329.63 247.078 329.888 247.32 330.075 247.626C330.262 247.931 330.356 248.271 330.356 248.645C330.356 248.912 330.307 249.174 330.21 249.43C330.116 249.683 329.95 249.966 329.713 250.278C329.479 250.589 329.153 250.967 328.737 251.415L327.103 253.162V253.219H330.484V254H325.896ZM334.507 246.727V254H333.627V247.651H333.584L331.808 248.83V247.935L333.627 246.727H334.507Z" fill="#9747FF"/>
<path d="M56.61 299V298.361L59.0106 295.733C59.2923 295.425 59.5243 295.158 59.7066 294.93C59.8889 294.701 60.0238 294.485 60.1114 294.284C60.2014 294.08 60.2464 293.867 60.2464 293.645C60.2464 293.389 60.1848 293.168 60.0617 292.981C59.941 292.794 59.7753 292.649 59.5646 292.548C59.3539 292.446 59.1171 292.395 58.8543 292.395C58.575 292.395 58.3311 292.453 58.1228 292.569C57.9168 292.683 57.757 292.842 57.6434 293.048C57.5321 293.254 57.4765 293.496 57.4765 293.773H56.6384C56.6384 293.347 56.7367 292.973 56.9332 292.651C57.1297 292.329 57.3972 292.078 57.7357 291.898C58.0766 291.718 58.459 291.628 58.8827 291.628C59.3089 291.628 59.6865 291.718 60.0156 291.898C60.3446 292.078 60.6027 292.32 60.7897 292.626C60.9767 292.931 61.0702 293.271 61.0702 293.645C61.0702 293.912 61.0217 294.174 60.9246 294.43C60.83 294.683 60.6642 294.966 60.4275 295.278C60.1931 295.589 59.8676 295.967 59.4509 296.415L57.8174 298.162V298.219H61.1981V299H56.61ZM62.6647 299V298.361L65.0653 295.733C65.347 295.425 65.579 295.158 65.7613 294.93C65.9436 294.701 66.0785 294.485 66.1661 294.284C66.2561 294.08 66.3011 293.867 66.3011 293.645C66.3011 293.389 66.2395 293.168 66.1164 292.981C65.9957 292.794 65.83 292.649 65.6193 292.548C65.4086 292.446 65.1718 292.395 64.909 292.395C64.6297 292.395 64.3858 292.453 64.1775 292.569C63.9715 292.683 63.8117 292.842 63.6981 293.048C63.5868 293.254 63.5312 293.496 63.5312 293.773H62.6931C62.6931 293.347 62.7914 292.973 62.9879 292.651C63.1844 292.329 63.4519 292.078 63.7904 291.898C64.1313 291.718 64.5137 291.628 64.9374 291.628C65.3636 291.628 65.7412 291.718 66.0702 291.898C66.3993 292.078 66.6574 292.32 66.8444 292.626C67.0314 292.931 67.1249 293.271 67.1249 293.645C67.1249 293.912 67.0764 294.174 66.9793 294.43C66.8846 294.683 66.7189 294.966 66.4822 295.278C66.2478 295.589 65.9223 295.967 65.5056 296.415L63.8721 298.162V298.219H67.2528V299H62.6647Z" fill="#FF4343"/>
<path d="M101.324 299V298.361L103.725 295.733C104.007 295.425 104.239 295.158 104.421 294.93C104.603 294.701 104.738 294.485 104.826 294.284C104.916 294.08 104.961 293.867 104.961 293.645C104.961 293.389 104.899 293.168 104.776 292.981C104.655 292.794 104.489 292.649 104.279 292.548C104.068 292.446 103.831 292.395 103.569 292.395C103.289 292.395 103.045 292.453 102.837 292.569C102.631 292.683 102.471 292.842 102.358 293.048C102.246 293.254 102.191 293.496 102.191 293.773H101.353C101.353 293.347 101.451 292.973 101.647 292.651C101.844 292.329 102.111 292.078 102.45 291.898C102.791 291.718 103.173 291.628 103.597 291.628C104.023 291.628 104.401 291.718 104.73 291.898C105.059 292.078 105.317 292.32 105.504 292.626C105.691 292.931 105.784 293.271 105.784 293.645C105.784 293.912 105.736 294.174 105.639 294.43C105.544 294.683 105.378 294.966 105.142 295.278C104.907 295.589 104.582 295.967 104.165 296.415L102.532 298.162V298.219H105.912V299H101.324ZM109.836 299.099C109.368 299.099 108.95 299.019 108.583 298.858C108.218 298.697 107.928 298.473 107.713 298.187C107.5 297.898 107.384 297.563 107.365 297.182H108.26C108.279 297.416 108.359 297.619 108.501 297.789C108.643 297.957 108.829 298.087 109.059 298.18C109.288 298.272 109.543 298.318 109.822 298.318C110.135 298.318 110.412 298.264 110.653 298.155C110.895 298.046 111.084 297.894 111.221 297.7C111.359 297.506 111.427 297.281 111.427 297.026C111.427 296.758 111.361 296.522 111.228 296.319C111.096 296.113 110.902 295.952 110.646 295.836C110.39 295.72 110.078 295.662 109.708 295.662H109.126V294.881H109.708C109.997 294.881 110.251 294.829 110.468 294.724C110.689 294.62 110.86 294.473 110.983 294.284C111.109 294.095 111.172 293.872 111.172 293.616C111.172 293.37 111.117 293.156 111.008 292.974C110.899 292.791 110.745 292.649 110.547 292.548C110.35 292.446 110.118 292.395 109.851 292.395C109.6 292.395 109.363 292.441 109.14 292.533C108.92 292.623 108.74 292.755 108.601 292.928C108.461 293.098 108.385 293.304 108.373 293.545H107.521C107.535 293.164 107.65 292.83 107.865 292.544C108.081 292.255 108.363 292.03 108.711 291.869C109.061 291.708 109.446 291.628 109.865 291.628C110.315 291.628 110.7 291.719 111.022 291.901C111.344 292.081 111.592 292.319 111.765 292.615C111.937 292.911 112.024 293.231 112.024 293.574C112.024 293.983 111.916 294.333 111.701 294.621C111.488 294.91 111.198 295.11 110.831 295.222V295.278C111.29 295.354 111.649 295.549 111.907 295.864C112.165 296.177 112.294 296.564 112.294 297.026C112.294 297.421 112.186 297.776 111.971 298.091C111.757 298.403 111.466 298.65 111.097 298.83C110.728 299.009 110.307 299.099 109.836 299.099Z" fill="black"/>
<path d="M146.039 299V298.361L148.439 295.733C148.721 295.425 148.953 295.158 149.135 294.93C149.317 294.701 149.452 294.485 149.54 294.284C149.63 294.08 149.675 293.867 149.675 293.645C149.675 293.389 149.613 293.168 149.49 292.981C149.37 292.794 149.204 292.649 148.993 292.548C148.782 292.446 148.546 292.395 148.283 292.395C148.004 292.395 147.76 292.453 147.551 292.569C147.345 292.683 147.186 292.842 147.072 293.048C146.961 293.254 146.905 293.496 146.905 293.773H146.067C146.067 293.347 146.165 292.973 146.362 292.651C146.558 292.329 146.826 292.078 147.164 291.898C147.505 291.718 147.888 291.628 148.311 291.628C148.737 291.628 149.115 291.718 149.444 291.898C149.773 292.078 150.031 292.32 150.218 292.626C150.405 292.931 150.499 293.271 150.499 293.645C150.499 293.912 150.45 294.174 150.353 294.43C150.259 294.683 150.093 294.966 149.856 295.278C149.622 295.589 149.296 295.967 148.88 296.415L147.246 298.162V298.219H150.627V299H146.039ZM151.767 297.509V296.784L154.963 291.727H155.488V292.849H155.133L152.718 296.67V296.727H157.022V297.509H151.767ZM155.19 299V297.288V296.951V291.727H156.028V299H155.19Z" fill="black"/>
<path d="M190.753 299V298.361L193.153 295.733C193.435 295.425 193.667 295.158 193.849 294.93C194.032 294.701 194.167 294.485 194.254 294.284C194.344 294.08 194.389 293.867 194.389 293.645C194.389 293.389 194.328 293.168 194.205 292.981C194.084 292.794 193.918 292.649 193.707 292.548C193.497 292.446 193.26 292.395 192.997 292.395C192.718 292.395 192.474 292.453 192.266 292.569C192.06 292.683 191.9 292.842 191.786 293.048C191.675 293.254 191.619 293.496 191.619 293.773H190.781C190.781 293.347 190.879 292.973 191.076 292.651C191.272 292.329 191.54 292.078 191.879 291.898C192.219 291.718 192.602 291.628 193.026 291.628C193.452 291.628 193.829 291.718 194.158 291.898C194.487 292.078 194.746 292.32 194.933 292.626C195.12 292.931 195.213 293.271 195.213 293.645C195.213 293.912 195.165 294.174 195.067 294.43C194.973 294.683 194.807 294.966 194.57 295.278C194.336 295.589 194.01 295.967 193.594 296.415L191.96 298.162V298.219H195.341V299H190.753ZM199.08 299.099C198.664 299.099 198.288 299.017 197.955 298.851C197.621 298.685 197.353 298.458 197.152 298.169C196.951 297.88 196.841 297.551 196.822 297.182H197.674C197.707 297.511 197.856 297.783 198.121 297.999C198.389 298.212 198.709 298.318 199.08 298.318C199.379 298.318 199.644 298.248 199.876 298.109C200.11 297.969 200.294 297.777 200.426 297.533C200.561 297.287 200.629 297.009 200.629 296.699C200.629 296.382 200.559 296.099 200.419 295.85C200.282 295.599 200.092 295.402 199.851 295.257C199.609 295.113 199.334 295.039 199.023 295.037C198.801 295.035 198.572 295.069 198.338 295.14C198.104 295.209 197.911 295.297 197.759 295.406L196.935 295.307L197.376 291.727H201.154V292.509H198.114L197.859 294.653H197.901C198.05 294.535 198.237 294.437 198.462 294.359C198.687 294.281 198.922 294.241 199.165 294.241C199.611 294.241 200.007 294.348 200.355 294.561C200.705 294.772 200.98 295.061 201.179 295.428C201.38 295.795 201.481 296.214 201.481 296.685C201.481 297.149 201.377 297.563 201.168 297.928C200.962 298.29 200.678 298.576 200.316 298.787C199.954 298.995 199.542 299.099 199.08 299.099Z" fill="black"/>
<path d="M235.467 299V298.361L237.868 295.733C238.149 295.425 238.381 295.158 238.564 294.93C238.746 294.701 238.881 294.485 238.969 294.284C239.059 294.08 239.104 293.867 239.104 293.645C239.104 293.389 239.042 293.168 238.919 292.981C238.798 292.794 238.632 292.649 238.422 292.548C238.211 292.446 237.974 292.395 237.712 292.395C237.432 292.395 237.188 292.453 236.98 292.569C236.774 292.683 236.614 292.842 236.501 293.048C236.389 293.254 236.334 293.496 236.334 293.773H235.496C235.496 293.347 235.594 292.973 235.79 292.651C235.987 292.329 236.254 292.078 236.593 291.898C236.934 291.718 237.316 291.628 237.74 291.628C238.166 291.628 238.544 291.718 238.873 291.898C239.202 292.078 239.46 292.32 239.647 292.626C239.834 292.931 239.927 293.271 239.927 293.645C239.927 293.912 239.879 294.174 239.782 294.43C239.687 294.683 239.521 294.966 239.285 295.278C239.05 295.589 238.725 295.967 238.308 296.415L236.675 298.162V298.219H240.055V299H235.467ZM243.937 299.099C243.638 299.095 243.34 299.038 243.042 298.929C242.743 298.82 242.471 298.637 242.225 298.379C241.979 298.118 241.781 297.767 241.632 297.324C241.483 296.879 241.408 296.32 241.408 295.648C241.408 295.004 241.469 294.433 241.589 293.936C241.71 293.437 241.885 293.016 242.115 292.675C242.345 292.332 242.622 292.072 242.946 291.894C243.273 291.717 243.641 291.628 244.05 291.628C244.457 291.628 244.82 291.71 245.137 291.873C245.457 292.034 245.717 292.259 245.918 292.548C246.119 292.836 246.25 293.169 246.309 293.545H245.442C245.362 293.219 245.206 292.948 244.974 292.732C244.742 292.517 244.434 292.409 244.05 292.409C243.487 292.409 243.043 292.654 242.719 293.144C242.397 293.634 242.234 294.322 242.232 295.207H242.289C242.422 295.006 242.579 294.835 242.761 294.692C242.946 294.548 243.149 294.437 243.372 294.359C243.595 294.281 243.83 294.241 244.079 294.241C244.495 294.241 244.877 294.346 245.222 294.554C245.568 294.76 245.845 295.045 246.053 295.41C246.261 295.772 246.366 296.188 246.366 296.656C246.366 297.106 246.265 297.518 246.064 297.892C245.863 298.264 245.58 298.56 245.215 298.78C244.853 298.998 244.427 299.104 243.937 299.099ZM243.937 298.318C244.235 298.318 244.502 298.244 244.739 298.094C244.978 297.945 245.167 297.745 245.304 297.494C245.444 297.243 245.513 296.964 245.513 296.656C245.513 296.356 245.446 296.082 245.311 295.836C245.178 295.587 244.995 295.39 244.761 295.243C244.529 295.096 244.263 295.023 243.965 295.023C243.74 295.023 243.531 295.068 243.337 295.158C243.142 295.245 242.972 295.366 242.825 295.52C242.681 295.674 242.567 295.85 242.484 296.049C242.401 296.246 242.36 296.453 242.36 296.67C242.36 296.959 242.427 297.229 242.562 297.48C242.7 297.731 242.887 297.933 243.123 298.087C243.363 298.241 243.634 298.318 243.937 298.318Z" fill="black"/>
<rect x="263.571" y="289" width="44.7143" height="44" rx="8" fill="#DFDFDF"/>
<path d="M280.681 299V298.361L283.082 295.733C283.364 295.425 283.596 295.158 283.778 294.93C283.96 294.701 284.095 294.485 284.183 294.284C284.273 294.08 284.318 293.867 284.318 293.645C284.318 293.389 284.256 293.168 284.133 292.981C284.012 292.794 283.847 292.649 283.636 292.548C283.425 292.446 283.189 292.395 282.926 292.395C282.646 292.395 282.403 292.453 282.194 292.569C281.988 292.683 281.828 292.842 281.715 293.048C281.604 293.254 281.548 293.496 281.548 293.773H280.71C280.71 293.347 280.808 292.973 281.005 292.651C281.201 292.329 281.469 292.078 281.807 291.898C282.148 291.718 282.53 291.628 282.954 291.628C283.38 291.628 283.758 291.718 284.087 291.898C284.416 292.078 284.674 292.32 284.861 292.626C285.048 292.931 285.142 293.271 285.142 293.645C285.142 293.912 285.093 294.174 284.996 294.43C284.901 294.683 284.736 294.966 284.499 295.278C284.265 295.589 283.939 295.967 283.522 296.415L281.889 298.162V298.219H285.269V299H280.681ZM286.963 299L290.216 292.565V292.509H286.466V291.727H291.125V292.551L287.887 299H286.963Z" fill="black"/>
<path d="M285.929 310.61C288.459 310.61 290.519 312.67 290.519 315.2C290.519 317.74 288.459 319.8 285.929 319.8C283.389 319.8 281.329 317.74 281.329 315.2C281.329 312.67 283.389 310.61 285.929 310.61ZM285.929 311.85C284.069 311.85 282.569 313.35 282.569 315.2C282.569 317.06 284.069 318.56 285.929 318.56C287.779 318.56 289.279 317.06 289.279 315.2C289.279 313.35 287.779 311.85 285.929 311.85Z" fill="black"/>
<path d="M324.896 299V298.361L327.296 295.733C327.578 295.425 327.81 295.158 327.992 294.93C328.175 294.701 328.31 294.485 328.397 294.284C328.487 294.08 328.532 293.867 328.532 293.645C328.532 293.389 328.471 293.168 328.347 292.981C328.227 292.794 328.061 292.649 327.85 292.548C327.64 292.446 327.403 292.395 327.14 292.395C326.861 292.395 326.617 292.453 326.409 292.569C326.203 292.683 326.043 292.842 325.929 293.048C325.818 293.254 325.762 293.496 325.762 293.773H324.924C324.924 293.347 325.022 292.973 325.219 292.651C325.415 292.329 325.683 292.078 326.021 291.898C326.362 291.718 326.745 291.628 327.169 291.628C327.595 291.628 327.972 291.718 328.301 291.898C328.63 292.078 328.888 292.32 329.075 292.626C329.262 292.931 329.356 293.271 329.356 293.645C329.356 293.912 329.307 294.174 329.21 294.43C329.116 294.683 328.95 294.966 328.713 295.278C328.479 295.589 328.153 295.967 327.737 296.415L326.103 298.162V298.219H329.484V299H324.896ZM333.28 299.099C332.792 299.099 332.361 299.013 331.987 298.84C331.616 298.665 331.326 298.425 331.117 298.119C330.909 297.812 330.806 297.461 330.808 297.068C330.806 296.76 330.866 296.476 330.99 296.216C331.113 295.953 331.281 295.734 331.494 295.559C331.709 295.381 331.95 295.269 332.215 295.222V295.179C331.867 295.089 331.59 294.894 331.384 294.593C331.178 294.29 331.076 293.946 331.078 293.56C331.076 293.19 331.169 292.86 331.359 292.569C331.548 292.278 331.809 292.048 332.14 291.88C332.474 291.712 332.854 291.628 333.28 291.628C333.701 291.628 334.078 291.712 334.409 291.88C334.741 292.048 335.001 292.278 335.191 292.569C335.382 292.86 335.479 293.19 335.482 293.56C335.479 293.946 335.374 294.29 335.166 294.593C334.96 294.894 334.686 295.089 334.345 295.179V295.222C334.608 295.269 334.845 295.381 335.056 295.559C335.266 295.734 335.434 295.953 335.56 296.216C335.685 296.476 335.749 296.76 335.752 297.068C335.749 297.461 335.643 297.812 335.432 298.119C335.224 298.425 334.934 298.665 334.562 298.84C334.193 299.013 333.765 299.099 333.28 299.099ZM333.28 298.318C333.609 298.318 333.893 298.265 334.132 298.158C334.371 298.052 334.556 297.902 334.686 297.707C334.816 297.513 334.883 297.286 334.885 297.026C334.883 296.751 334.812 296.508 334.672 296.298C334.532 296.087 334.342 295.921 334.1 295.8C333.861 295.68 333.588 295.619 333.28 295.619C332.97 295.619 332.693 295.68 332.449 295.8C332.208 295.921 332.017 296.087 331.877 296.298C331.74 296.508 331.673 296.751 331.675 297.026C331.673 297.286 331.735 297.513 331.863 297.707C331.993 297.902 332.179 298.052 332.421 298.158C332.662 298.265 332.949 298.318 333.28 298.318ZM333.28 294.866C333.54 294.866 333.771 294.814 333.972 294.71C334.176 294.606 334.336 294.46 334.452 294.273C334.568 294.086 334.627 293.867 334.629 293.616C334.627 293.37 334.569 293.156 334.455 292.974C334.342 292.789 334.184 292.647 333.983 292.548C333.782 292.446 333.548 292.395 333.28 292.395C333.008 292.395 332.77 292.446 332.566 292.548C332.363 292.647 332.205 292.789 332.094 292.974C331.983 293.156 331.928 293.37 331.931 293.616C331.928 293.867 331.984 294.086 332.097 294.273C332.213 294.46 332.373 294.606 332.577 294.71C332.78 294.814 333.015 294.866 333.28 294.866Z" fill="#9747FF"/>
<path d="M56.61 344V343.361L59.0106 340.733C59.2923 340.425 59.5243 340.158 59.7066 339.93C59.8889 339.701 60.0238 339.485 60.1114 339.284C60.2014 339.08 60.2464 338.867 60.2464 338.645C60.2464 338.389 60.1848 338.168 60.0617 337.981C59.941 337.794 59.7753 337.649 59.5646 337.548C59.3539 337.446 59.1171 337.395 58.8543 337.395C58.575 337.395 58.3311 337.453 58.1228 337.569C57.9168 337.683 57.757 337.842 57.6434 338.048C57.5321 338.254 57.4765 338.496 57.4765 338.773H56.6384C56.6384 338.347 56.7367 337.973 56.9332 337.651C57.1297 337.329 57.3972 337.078 57.7357 336.898C58.0766 336.718 58.459 336.628 58.8827 336.628C59.3089 336.628 59.6865 336.718 60.0156 336.898C60.3446 337.078 60.6027 337.32 60.7897 337.626C60.9767 337.931 61.0702 338.271 61.0702 338.645C61.0702 338.912 61.0217 339.174 60.9246 339.43C60.83 339.683 60.6642 339.966 60.4275 340.278C60.1931 340.589 59.8676 340.967 59.4509 341.415L57.8174 343.162V343.219H61.1981V344H56.61ZM64.98 336.628C65.2783 336.63 65.5766 336.687 65.8749 336.798C66.1732 336.91 66.4455 337.094 66.6917 337.352C66.9379 337.608 67.1356 337.957 67.2847 338.4C67.4339 338.843 67.5085 339.398 67.5085 340.065C67.5085 340.712 67.4469 341.286 67.3238 341.788C67.2031 342.287 67.0279 342.709 66.7982 343.052C66.571 343.395 66.294 343.656 65.9673 343.833C65.6429 344.011 65.276 344.099 64.8664 344.099C64.4592 344.099 64.0958 344.019 63.7762 343.858C63.459 343.695 63.1986 343.469 62.995 343.18C62.7937 342.888 62.6647 342.551 62.6079 342.168H63.4744C63.5525 342.501 63.7076 342.777 63.9396 342.995C64.1739 343.21 64.4829 343.318 64.8664 343.318C65.4275 343.318 65.8702 343.073 66.1945 342.583C66.5212 342.093 66.6846 341.401 66.6846 340.506H66.6278C66.4952 340.705 66.3378 340.876 66.1555 341.021C65.9732 341.165 65.7708 341.276 65.5482 341.354C65.3257 341.433 65.0889 341.472 64.838 341.472C64.4213 341.472 64.039 341.369 63.691 341.163C63.3453 340.954 63.0684 340.669 62.86 340.307C62.6541 339.942 62.5511 339.526 62.5511 339.057C62.5511 338.612 62.6505 338.205 62.8494 337.835C63.0506 337.464 63.3323 337.168 63.6945 336.947C64.0591 336.727 64.4876 336.621 64.98 336.628ZM64.98 337.409C64.6818 337.409 64.413 337.484 64.1739 337.633C63.9372 337.78 63.749 337.978 63.6093 338.229C63.472 338.478 63.4033 338.754 63.4033 339.057C63.4033 339.36 63.4696 339.636 63.6022 339.884C63.7371 340.13 63.9206 340.327 64.1526 340.474C64.387 340.618 64.6533 340.69 64.9516 340.69C65.1765 340.69 65.3861 340.647 65.5802 340.559C65.7743 340.469 65.9436 340.347 66.088 340.193C66.2348 340.037 66.3496 339.861 66.4325 339.664C66.5153 339.465 66.5568 339.258 66.5568 339.043C66.5568 338.759 66.4881 338.492 66.3508 338.244C66.2158 337.995 66.0288 337.794 65.7897 337.64C65.553 337.486 65.2831 337.409 64.98 337.409Z" fill="#FF4343"/>
<path d="M103.782 344.099C103.313 344.099 102.895 344.019 102.528 343.858C102.164 343.697 101.873 343.473 101.658 343.187C101.445 342.898 101.329 342.563 101.31 342.182H102.205C102.224 342.416 102.304 342.619 102.446 342.789C102.588 342.957 102.774 343.087 103.004 343.18C103.234 343.272 103.488 343.318 103.767 343.318C104.08 343.318 104.357 343.264 104.598 343.155C104.84 343.046 105.029 342.894 105.167 342.7C105.304 342.506 105.373 342.281 105.373 342.026C105.373 341.758 105.306 341.522 105.174 341.319C105.041 341.113 104.847 340.952 104.591 340.836C104.336 340.72 104.023 340.662 103.654 340.662H103.071V339.881H103.654C103.943 339.881 104.196 339.829 104.414 339.724C104.634 339.62 104.806 339.473 104.929 339.284C105.054 339.095 105.117 338.872 105.117 338.616C105.117 338.37 105.062 338.156 104.954 337.974C104.845 337.791 104.691 337.649 104.492 337.548C104.295 337.446 104.063 337.395 103.796 337.395C103.545 337.395 103.308 337.441 103.086 337.533C102.865 337.623 102.686 337.755 102.546 337.928C102.406 338.098 102.33 338.304 102.319 338.545H101.466C101.481 338.164 101.595 337.83 101.811 337.544C102.026 337.255 102.308 337.03 102.656 336.869C103.006 336.708 103.391 336.628 103.81 336.628C104.26 336.628 104.646 336.719 104.968 336.901C105.29 337.081 105.537 337.319 105.71 337.615C105.883 337.911 105.969 338.231 105.969 338.574C105.969 338.983 105.861 339.333 105.646 339.621C105.433 339.91 105.143 340.11 104.776 340.222V340.278C105.235 340.354 105.594 340.549 105.852 340.864C106.11 341.177 106.239 341.564 106.239 342.026C106.239 342.421 106.131 342.776 105.916 343.091C105.703 343.403 105.412 343.65 105.042 343.83C104.673 344.009 104.253 344.099 103.782 344.099ZM110.064 344.099C109.529 344.099 109.073 343.954 108.696 343.663C108.32 343.369 108.032 342.944 107.833 342.388C107.635 341.829 107.535 341.154 107.535 340.364C107.535 339.578 107.635 338.906 107.833 338.35C108.035 337.791 108.324 337.365 108.7 337.072C109.079 336.776 109.533 336.628 110.064 336.628C110.594 336.628 111.047 336.776 111.424 337.072C111.802 337.365 112.091 337.791 112.29 338.35C112.491 338.906 112.592 339.578 112.592 340.364C112.592 341.154 112.493 341.829 112.294 342.388C112.095 342.944 111.807 343.369 111.431 343.663C111.054 343.954 110.599 344.099 110.064 344.099ZM110.064 343.318C110.594 343.318 111.006 343.062 111.299 342.551C111.593 342.04 111.74 341.311 111.74 340.364C111.74 339.734 111.672 339.198 111.537 338.755C111.405 338.312 111.213 337.975 110.962 337.743C110.713 337.511 110.414 337.395 110.064 337.395C109.538 337.395 109.127 337.654 108.831 338.173C108.535 338.689 108.387 339.419 108.387 340.364C108.387 340.993 108.454 341.528 108.586 341.969C108.719 342.409 108.909 342.744 109.158 342.974C109.409 343.203 109.711 343.318 110.064 343.318Z" fill="black"/>
<path d="M108.625 363.68L104.381 359.444L105.311 358.503L109.559 362.746L108.625 363.68ZM105.311 363.68L104.381 362.746L108.625 358.503L109.559 359.444L105.311 363.68Z" fill="black"/>
<path d="M148.996 344.099C148.527 344.099 148.109 344.019 147.742 343.858C147.378 343.697 147.088 343.473 146.872 343.187C146.659 342.898 146.543 342.563 146.524 342.182H147.419C147.438 342.416 147.519 342.619 147.661 342.789C147.803 342.957 147.989 343.087 148.218 343.18C148.448 343.272 148.702 343.318 148.982 343.318C149.294 343.318 149.571 343.264 149.813 343.155C150.054 343.046 150.244 342.894 150.381 342.7C150.518 342.506 150.587 342.281 150.587 342.026C150.587 341.758 150.521 341.522 150.388 341.319C150.255 341.113 150.061 340.952 149.806 340.836C149.55 340.72 149.237 340.662 148.868 340.662H148.286V339.881H148.868C149.157 339.881 149.41 339.829 149.628 339.724C149.848 339.62 150.02 339.473 150.143 339.284C150.268 339.095 150.331 338.872 150.331 338.616C150.331 338.37 150.277 338.156 150.168 337.974C150.059 337.791 149.905 337.649 149.706 337.548C149.51 337.446 149.278 337.395 149.01 337.395C148.759 337.395 148.523 337.441 148.3 337.533C148.08 337.623 147.9 337.755 147.76 337.928C147.621 338.098 147.545 338.304 147.533 338.545H146.681C146.695 338.164 146.81 337.83 147.025 337.544C147.241 337.255 147.522 337.03 147.87 336.869C148.221 336.708 148.605 336.628 149.024 336.628C149.474 336.628 149.86 336.719 150.182 336.901C150.504 337.081 150.751 337.319 150.924 337.615C151.097 337.911 151.183 338.231 151.183 338.574C151.183 338.983 151.076 339.333 150.86 339.621C150.647 339.91 150.357 340.11 149.99 340.222V340.278C150.45 340.354 150.808 340.549 151.066 340.864C151.324 341.177 151.453 341.564 151.453 342.026C151.453 342.421 151.346 342.776 151.13 343.091C150.917 343.403 150.626 343.65 150.257 343.83C149.887 344.009 149.467 344.099 148.996 344.099ZM155.463 336.727V344H154.582V337.651H154.539L152.764 338.83V337.935L154.582 336.727H155.463Z" fill="black"/>
</g>
<defs>
<filter id="filter0_d_509_260" x="-4" y="0" width="401" height="422" filterUnits="userSpaceOnUse" color-interpolation-filters="sRGB">
<feFlood flood-opacity="0" result="BackgroundImageFix"/>
<feColorMatrix in="SourceAlpha" type="matrix" values="0 0 0 0 0 0 0 0 0 0 0 0 0 0 0 0 0 0 127 0" result="hardAlpha"/>
<feOffset dy="4"/>
<feGaussianBlur stdDeviation="12"/>
<feComposite in2="hardAlpha" operator="out"/>
<feColorMatrix type="matrix" values="0 0 0 0 0 0 0 0 0 0 0 0 0 0 0 0 0 0 0.25 0"/>
<feBlend mode="normal" in2="BackgroundImageFix" result="effect1_dropShadow_509_260"/>
<feBlend mode="normal" in="SourceGraphic" in2="effect1_dropShadow_509_260" result="shape"/>
</filter>
</defs>
</svg>
