<svg width="393" height="127" viewBox="0 0 393 127" fill="none" xmlns="http://www.w3.org/2000/svg">
<rect width="393" height="127" fill="white"/>
<path d="M31.179 42V39.7841L36.3565 34.9901C36.7969 34.5639 37.1662 34.1804 37.4645 33.8395C37.7675 33.4986 37.9972 33.1648 38.1534 32.8381C38.3097 32.5066 38.3878 32.1491 38.3878 31.7656C38.3878 31.3395 38.2907 30.9725 38.0966 30.6648C37.9025 30.3523 37.6373 30.1132 37.3011 29.9474C36.965 29.777 36.5838 29.6918 36.1577 29.6918C35.7126 29.6918 35.3243 29.7817 34.9929 29.9616C34.6615 30.1416 34.4058 30.3996 34.2259 30.7358C34.0459 31.072 33.956 31.4721 33.956 31.9361H31.0369C31.0369 30.9844 31.2524 30.1581 31.6832 29.4574C32.1141 28.7566 32.7178 28.2145 33.4943 27.831C34.2708 27.4474 35.1657 27.2557 36.179 27.2557C37.2206 27.2557 38.1274 27.4403 38.8991 27.8097C39.6757 28.1742 40.2794 28.6809 40.7102 29.3295C41.1411 29.9782 41.3565 30.7216 41.3565 31.5597C41.3565 32.1089 41.2476 32.651 41.0298 33.1861C40.8168 33.7211 40.4356 34.3153 39.8864 34.9688C39.3371 35.6174 38.563 36.3963 37.5639 37.3054L35.4403 39.3864V39.4858H41.5483V42H31.179ZM49.4798 42.3196C48.2582 42.3149 47.207 42.0142 46.3263 41.4176C45.4504 40.821 44.7757 39.9569 44.3022 38.8253C43.8335 37.6937 43.6014 36.3324 43.6062 34.7415C43.6062 33.1553 43.8406 31.8035 44.3093 30.6861C44.7828 29.5687 45.4575 28.7187 46.3335 28.1364C47.2141 27.5492 48.2629 27.2557 49.4798 27.2557C50.6966 27.2557 51.743 27.5492 52.619 28.1364C53.4996 28.7235 54.1767 29.5758 54.6502 30.6932C55.1237 31.8059 55.3581 33.1553 55.3533 34.7415C55.3533 36.3371 55.1166 37.7008 54.6431 38.8324C54.1744 39.964 53.502 40.8281 52.6261 41.4247C51.7501 42.0213 50.7013 42.3196 49.4798 42.3196ZM49.4798 39.7699C50.3131 39.7699 50.9783 39.3509 51.4755 38.5128C51.9727 37.6747 52.2189 36.4176 52.2141 34.7415C52.2141 33.6383 52.1005 32.7197 51.8732 31.9858C51.6507 31.2519 51.3335 30.7003 50.9215 30.331C50.5143 29.9616 50.0337 29.777 49.4798 29.777C48.6512 29.777 47.9883 30.1913 47.4911 31.0199C46.994 31.8485 46.743 33.089 46.7383 34.7415C46.7383 35.8589 46.8496 36.7917 47.0721 37.5398C47.2994 38.2831 47.619 38.8419 48.0309 39.2159C48.4428 39.5852 48.9258 39.7699 49.4798 39.7699ZM57.5462 42V39.7841L62.7237 34.9901C63.1641 34.5639 63.5334 34.1804 63.8317 33.8395C64.1347 33.4986 64.3643 33.1648 64.5206 32.8381C64.6768 32.5066 64.755 32.1491 64.755 31.7656C64.755 31.3395 64.6579 30.9725 64.4638 30.6648C64.2696 30.3523 64.0045 30.1132 63.6683 29.9474C63.3321 29.777 62.951 29.6918 62.5249 29.6918C62.0798 29.6918 61.6915 29.7817 61.3601 29.9616C61.0286 30.1416 60.773 30.3996 60.593 30.7358C60.4131 31.072 60.3232 31.4721 60.3232 31.9361H57.4041C57.4041 30.9844 57.6196 30.1581 58.0504 29.4574C58.4813 28.7566 59.085 28.2145 59.8615 27.831C60.638 27.4474 61.5329 27.2557 62.5462 27.2557C63.5878 27.2557 64.4946 27.4403 65.2663 27.8097C66.0429 28.1742 66.6465 28.6809 67.0774 29.3295C67.5083 29.9782 67.7237 30.7216 67.7237 31.5597C67.7237 32.1089 67.6148 32.651 67.397 33.1861C67.1839 33.7211 66.8028 34.3153 66.2536 34.9688C65.7043 35.6174 64.9302 36.3963 63.9311 37.3054L61.8075 39.3864V39.4858H67.9155V42H57.5462ZM75.5202 42.1989C74.4596 42.1989 73.515 42.0166 72.6864 41.652C71.8626 41.2827 71.2115 40.776 70.7333 40.1321C70.2598 39.4834 70.016 38.7353 70.0018 37.8878H73.0984C73.1173 38.2429 73.2333 38.5554 73.4464 38.8253C73.6642 39.0904 73.953 39.2964 74.3129 39.4432C74.6727 39.59 75.0775 39.6634 75.5273 39.6634C75.9961 39.6634 76.4104 39.5805 76.7702 39.4148C77.1301 39.2491 77.4118 39.0194 77.6154 38.7259C77.819 38.4323 77.9208 38.0937 77.9208 37.7102C77.9208 37.322 77.8119 36.9787 77.5941 36.6804C77.381 36.3774 77.0733 36.1406 76.6708 35.9702C76.2731 35.7997 75.7996 35.7145 75.2504 35.7145H73.8938V33.456H75.2504C75.7144 33.456 76.1239 33.3755 76.479 33.2145C76.8389 33.0535 77.1183 32.831 77.3171 32.5469C77.516 32.258 77.6154 31.9219 77.6154 31.5384C77.6154 31.1738 77.5278 30.8542 77.3526 30.5795C77.1822 30.3002 76.9407 30.0824 76.6282 29.9261C76.3204 29.7699 75.9606 29.6918 75.5487 29.6918C75.132 29.6918 74.7508 29.7675 74.4052 29.919C74.0595 30.0658 73.7826 30.2765 73.5742 30.5511C73.3659 30.8258 73.2546 31.1477 73.2404 31.517H70.293C70.3072 30.679 70.5463 29.9403 71.0103 29.3011C71.4743 28.6619 72.0993 28.1624 72.8853 27.8026C73.676 27.438 74.5685 27.2557 75.5629 27.2557C76.5666 27.2557 77.445 27.438 78.1978 27.8026C78.9506 28.1671 79.5354 28.6596 79.9521 29.2798C80.3735 29.8954 80.5818 30.5866 80.5771 31.3537C80.5818 32.1681 80.3285 32.8475 79.8171 33.392C79.3105 33.9366 78.65 34.2822 77.8356 34.429V34.5426C78.9057 34.6799 79.7201 35.0516 80.2788 35.6577C80.8422 36.259 81.1216 37.0118 81.1168 37.9162C81.1216 38.7448 80.8825 39.4811 80.3995 40.125C79.9213 40.7689 79.2608 41.2756 78.418 41.6449C77.5752 42.0142 76.6093 42.1989 75.5202 42.1989ZM87.1084 24.94L89.5484 25.56C88.4884 28.54 86.7284 31.42 84.9484 33.22C84.4884 32.8 83.4684 32 82.8884 31.66C84.6884 30.1 86.2484 27.54 87.1084 24.94ZM87.5284 27.22H100.248V29.54H86.3684L87.5284 27.22ZM86.1084 31.94H99.7884V34.18H88.5284V38.38H86.1084V31.94ZM82.9484 37.2H101.348V39.52H82.9484V37.2ZM91.9884 28.42H94.4684V43.8H91.9884V28.42ZM109.031 42.3196C107.809 42.3149 106.758 42.0142 105.877 41.4176C105.001 40.821 104.326 39.9569 103.853 38.8253C103.384 37.6937 103.152 36.3324 103.157 34.7415C103.157 33.1553 103.391 31.8035 103.86 30.6861C104.334 29.5687 105.008 28.7187 105.884 28.1364C106.765 27.5492 107.814 27.2557 109.031 27.2557C110.247 27.2557 111.294 27.5492 112.17 28.1364C113.05 28.7235 113.728 29.5758 114.201 30.6932C114.674 31.8059 114.909 33.1553 114.904 34.7415C114.904 36.3371 114.667 37.7008 114.194 38.8324C113.725 39.964 113.053 40.8281 112.177 41.4247C111.301 42.0213 110.252 42.3196 109.031 42.3196ZM109.031 39.7699C109.864 39.7699 110.529 39.3509 111.026 38.5128C111.523 37.6747 111.77 36.4176 111.765 34.7415C111.765 33.6383 111.651 32.7197 111.424 31.9858C111.201 31.2519 110.884 30.7003 110.472 30.331C110.065 29.9616 109.585 29.777 109.031 29.777C108.202 29.777 107.539 30.1913 107.042 31.0199C106.545 31.8485 106.294 33.089 106.289 34.7415C106.289 35.8589 106.4 36.7917 106.623 37.5398C106.85 38.2831 107.17 38.8419 107.582 39.2159C107.994 39.5852 108.477 39.7699 109.031 39.7699ZM122.409 42.1989C121.406 42.1989 120.511 42.0142 119.725 41.6449C118.944 41.2756 118.323 40.7666 117.864 40.1179C117.405 39.4692 117.166 38.7259 117.147 37.8878H120.13C120.163 38.4512 120.4 38.9081 120.84 39.2585C121.28 39.6089 121.803 39.7841 122.409 39.7841C122.892 39.7841 123.319 39.6776 123.688 39.4645C124.062 39.2467 124.353 38.946 124.561 38.5625C124.775 38.1742 124.881 37.7292 124.881 37.2273C124.881 36.7159 124.772 36.2661 124.554 35.8778C124.341 35.4896 124.045 35.1866 123.667 34.9688C123.288 34.7509 122.855 34.6397 122.367 34.6349C121.941 34.6349 121.526 34.7225 121.124 34.8977C120.726 35.0729 120.416 35.312 120.194 35.6151L117.459 35.125L118.148 27.4545H127.04V29.9688H120.684L120.307 33.6122H120.392C120.648 33.2524 121.034 32.9541 121.55 32.7173C122.066 32.4806 122.644 32.3622 123.283 32.3622C124.159 32.3622 124.94 32.5682 125.627 32.9801C126.313 33.392 126.855 33.9579 127.253 34.6776C127.651 35.3925 127.847 36.2164 127.843 37.1491C127.847 38.1293 127.62 39.0005 127.161 39.7628C126.706 40.5204 126.069 41.117 125.25 41.5526C124.436 41.9834 123.489 42.1989 122.409 42.1989ZM134.189 25.96H144.189V28.3H134.189V25.96ZM134.209 30.74H144.289V33.02H134.209V30.74ZM134.109 35.48H144.149V37.8H134.109V35.48ZM132.549 25.96H135.009V32.58C135.009 36.06 134.469 40.96 131.089 43.8C130.729 43.3 129.749 42.4 129.229 42.08C132.269 39.5 132.549 35.64 132.549 32.58V25.96ZM143.069 25.96H145.609V40.76C145.609 42.18 145.269 42.9 144.349 43.3C143.389 43.72 141.969 43.76 139.889 43.76C139.749 43.04 139.289 41.88 138.889 41.24C140.309 41.32 141.969 41.3 142.449 41.3C142.909 41.28 143.069 41.14 143.069 40.72V25.96ZM155.364 42.1989C154.303 42.1989 153.359 42.0166 152.53 41.652C151.706 41.2827 151.055 40.776 150.577 40.1321C150.104 39.4834 149.86 38.7353 149.846 37.8878H152.942C152.961 38.2429 153.077 38.5554 153.29 38.8253C153.508 39.0904 153.797 39.2964 154.157 39.4432C154.516 39.59 154.921 39.6634 155.371 39.6634C155.84 39.6634 156.254 39.5805 156.614 39.4148C156.974 39.2491 157.256 39.0194 157.459 38.7259C157.663 38.4323 157.765 38.0937 157.765 37.7102C157.765 37.322 157.656 36.9787 157.438 36.6804C157.225 36.3774 156.917 36.1406 156.515 35.9702C156.117 35.7997 155.643 35.7145 155.094 35.7145H153.738V33.456H155.094C155.558 33.456 155.968 33.3755 156.323 33.2145C156.683 33.0535 156.962 32.831 157.161 32.5469C157.36 32.258 157.459 31.9219 157.459 31.5384C157.459 31.1738 157.372 30.8542 157.196 30.5795C157.026 30.3002 156.784 30.0824 156.472 29.9261C156.164 29.7699 155.804 29.6918 155.392 29.6918C154.976 29.6918 154.595 29.7675 154.249 29.919C153.903 30.0658 153.626 30.2765 153.418 30.5511C153.21 30.8258 153.098 31.1477 153.084 31.517H150.137C150.151 30.679 150.39 29.9403 150.854 29.3011C151.318 28.6619 151.943 28.1624 152.729 27.8026C153.52 27.438 154.412 27.2557 155.407 27.2557C156.41 27.2557 157.289 27.438 158.042 27.8026C158.794 28.1671 159.379 28.6596 159.796 29.2798C160.217 29.8954 160.426 30.5866 160.421 31.3537C160.426 32.1681 160.172 32.8475 159.661 33.392C159.154 33.9366 158.494 34.2822 157.679 34.429V34.5426C158.749 34.6799 159.564 35.0516 160.123 35.6577C160.686 36.259 160.965 37.0118 160.961 37.9162C160.965 38.7448 160.726 39.4811 160.243 40.125C159.765 40.7689 159.105 41.2756 158.262 41.6449C157.419 42.0142 156.453 42.1989 155.364 42.1989ZM168.874 42.3196C167.653 42.3149 166.602 42.0142 165.721 41.4176C164.845 40.821 164.17 39.9569 163.697 38.8253C163.228 37.6937 162.996 36.3324 163.001 34.7415C163.001 33.1553 163.235 31.8035 163.704 30.6861C164.177 29.5687 164.852 28.7187 165.728 28.1364C166.609 27.5492 167.657 27.2557 168.874 27.2557C170.091 27.2557 171.138 27.5492 172.013 28.1364C172.894 28.7235 173.571 29.5758 174.045 30.6932C174.518 31.8059 174.753 33.1553 174.748 34.7415C174.748 36.3371 174.511 37.7008 174.038 38.8324C173.569 39.964 172.897 40.8281 172.021 41.4247C171.145 42.0213 170.096 42.3196 168.874 42.3196ZM168.874 39.7699C169.708 39.7699 170.373 39.3509 170.87 38.5128C171.367 37.6747 171.613 36.4176 171.609 34.7415C171.609 33.6383 171.495 32.7197 171.268 31.9858C171.045 31.2519 170.728 30.7003 170.316 30.331C169.909 29.9616 169.428 29.777 168.874 29.777C168.046 29.777 167.383 30.1913 166.886 31.0199C166.388 31.8485 166.138 33.089 166.133 34.7415C166.133 35.8589 166.244 36.7917 166.467 37.5398C166.694 38.2831 167.013 38.8419 167.425 39.2159C167.837 39.5852 168.32 39.7699 168.874 39.7699ZM178.822 26.22H192.782V43.54H190.202V28.64H181.302V43.56H178.822V26.22ZM180.522 32.94H191.282V35.32H180.522V32.94ZM180.502 39.84H191.282V42.26H180.502V39.84Z" fill="black"/>
<g filter="url(#filter0_i_683_665)">
<rect x="303" y="20" width="60" height="30" rx="15" fill="white"/>
</g>
<circle cx="318" cy="35" r="10" fill="#D9D9D9"/>
<path d="M29.9226 99.4975C28.9577 101.164 30.1603 103.25 32.0861 103.25H50.9139C52.8398 103.25 54.0424 101.164 53.0775 99.4975L43.6636 83.2372C42.7006 81.5739 40.2994 81.5739 39.3364 83.2372L29.9226 99.4975ZM42.75 98.2501C42.75 98.9405 42.1904 99.5001 41.5 99.5001C40.8096 99.5001 40.25 98.9405 40.25 98.2501C40.25 97.5597 40.8096 97.0001 41.5 97.0001C42.1904 97.0001 42.75 97.5597 42.75 98.2501ZM42.75 93.2501C42.75 93.9405 42.1904 94.5001 41.5 94.5001C40.8096 94.5001 40.25 93.9405 40.25 93.2501V90.7501C40.25 90.0597 40.8096 89.5001 41.5 89.5001C42.1904 89.5001 42.75 90.0597 42.75 90.7501V93.2501Z" fill="#EB3223"/>
<path d="M75.104 80.288C75.992 80.384 77.108 80.432 78.38 80.432C79.556 80.432 80.936 80.36 81.848 80.264V81.86C81.008 81.932 79.532 82.004 78.38 82.004C77.132 82.004 76.088 81.944 75.104 81.872V80.288ZM76.112 85.364C76.004 85.796 75.908 86.18 75.908 86.588C75.908 87.344 76.652 87.908 78.38 87.908C79.988 87.908 81.524 87.728 82.592 87.428L82.604 89.12C81.548 89.36 80.108 89.516 78.428 89.516C75.692 89.516 74.3 88.604 74.3 86.948C74.3 86.264 74.456 85.676 74.54 85.22L76.112 85.364ZM91.592 80.78C91.424 82.004 91.184 83.408 90.764 84.824C90.044 87.248 89.012 88.736 87.704 88.736C86.36 88.736 85.256 87.26 85.256 85.232C85.256 82.472 87.668 80.096 90.776 80.096C93.74 80.096 95.624 82.16 95.624 84.788C95.624 87.308 94.076 89.096 91.052 89.564L90.14 88.148C90.608 88.088 90.944 88.028 91.268 87.956C92.792 87.584 93.992 86.492 93.992 84.728C93.992 82.844 92.816 81.5 90.74 81.5C88.196 81.5 86.804 83.576 86.804 85.088C86.804 86.3 87.284 86.888 87.74 86.888C88.256 86.888 88.712 86.12 89.216 84.5C89.564 83.372 89.828 81.992 89.948 80.732L91.592 80.78ZM98.336 79.532H106.712V89.924H105.164V80.984H99.824V89.936H98.336V79.532ZM99.356 83.564H105.812V84.992H99.356V83.564ZM99.344 87.704H105.812V89.156H99.344V87.704ZM113.18 81.632C113.876 81.704 114.56 81.74 115.292 81.74C116.756 81.74 118.256 81.62 119.504 81.356V82.844C118.244 83.036 116.732 83.132 115.292 83.144C114.584 83.144 113.9 83.12 113.192 83.072L113.18 81.632ZM117.752 79.616C117.716 79.844 117.692 80.132 117.68 80.384C117.656 80.78 117.632 81.608 117.632 82.472C117.632 84.68 117.824 86.24 117.824 87.38C117.824 88.64 117.2 89.552 115.472 89.552C113.804 89.552 112.772 88.868 112.772 87.608C112.772 86.384 113.804 85.544 115.448 85.544C117.704 85.544 119.156 86.672 120.092 87.536L119.276 88.796C117.896 87.512 116.684 86.708 115.328 86.708C114.644 86.708 114.176 86.984 114.176 87.44C114.176 87.932 114.656 88.148 115.304 88.148C116.036 88.148 116.288 87.764 116.288 87.056C116.288 86.228 116.132 84.212 116.132 82.484C116.132 81.572 116.12 80.768 116.108 80.408C116.108 80.216 116.072 79.844 116.036 79.616H117.752ZM111.896 79.736C111.8 79.976 111.656 80.6 111.608 80.816C111.428 81.62 111.032 84.26 111.032 85.46C111.032 85.688 111.044 86 111.08 86.24C111.248 85.82 111.452 85.412 111.62 85.004L112.364 85.592C112.028 86.588 111.632 87.8 111.5 88.46C111.464 88.628 111.428 88.892 111.44 89.012C111.44 89.144 111.44 89.348 111.452 89.516L110.096 89.612C109.856 88.784 109.616 87.404 109.616 85.784C109.616 83.972 109.976 81.704 110.12 80.78C110.168 80.444 110.216 79.976 110.228 79.604L111.896 79.736ZM123.788 83.492V87.908H122.42V84.824H120.884V83.492H123.788ZM123.788 87.344C124.268 88.148 125.096 88.484 126.332 88.532C127.76 88.604 130.616 88.568 132.272 88.436C132.116 88.76 131.9 89.42 131.828 89.84C130.34 89.912 127.784 89.936 126.308 89.864C124.868 89.804 123.908 89.456 123.188 88.532C122.636 89 122.072 89.468 121.388 89.972L120.728 88.544C121.292 88.22 121.964 87.788 122.54 87.344H123.788ZM121.052 79.988L122.048 79.064C122.792 79.568 123.728 80.348 124.16 80.924L123.08 81.956C122.696 81.38 121.796 80.54 121.052 79.988ZM125.912 81.14L126.824 80.372C127.892 80.744 129.404 81.392 130.22 81.86L129.236 82.712C128.504 82.256 127.016 81.572 125.912 81.14ZM124.82 81.824H130.928V82.868H126.176V88.04H124.82V81.824ZM130.256 81.824H131.624V86.792C131.624 87.38 131.528 87.68 131.132 87.872C130.76 88.076 130.232 88.076 129.512 88.076C129.464 87.728 129.308 87.26 129.152 86.948C129.536 86.96 129.956 86.96 130.076 86.96C130.22 86.96 130.256 86.912 130.256 86.78V81.824ZM124.928 79.208H130.652V80.3H124.928V79.208ZM125.576 83.516H130.724V84.512H125.576V83.516ZM125.576 85.196H130.724V86.24H125.576V85.196ZM127.556 82.316H128.84V87.992H127.556V82.316ZM130.136 79.208H130.46L130.748 79.136L131.6 79.832C130.748 80.624 129.56 81.476 128.456 82.004C128.288 81.764 127.94 81.392 127.736 81.2C128.636 80.768 129.68 80.012 130.136 79.46V79.208ZM139.712 78.872H141.116V80.756H139.712V78.872ZM137.048 80.132H143.996V82.496H142.664V81.356H138.32V82.508H137.048V80.132ZM137.936 82.328H143.072V83.564H137.936V82.328ZM137.216 84.428H143.948V85.712H137.216V84.428ZM138.572 85.052H139.94C139.832 87.632 139.472 89.216 136.892 90.08C136.772 89.732 136.412 89.204 136.136 88.94C138.308 88.292 138.5 87.14 138.572 85.052ZM140.78 84.908H142.136V88.316C142.136 88.664 142.16 88.712 142.316 88.712C142.388 88.712 142.64 88.712 142.724 88.712C142.916 88.712 142.952 88.52 142.976 87.296C143.24 87.512 143.816 87.74 144.176 87.824C144.056 89.516 143.72 89.972 142.88 89.972C142.664 89.972 142.268 89.972 142.076 89.972C141.02 89.972 140.78 89.564 140.78 88.328V84.908ZM133.352 79.328H136.184V80.612H134.612V90.092H133.352V79.328ZM135.74 79.328H135.98L136.184 79.28L137.12 79.808C136.808 80.84 136.412 82.148 136.064 83.084C136.808 84.02 136.952 84.824 136.952 85.52C136.952 86.3 136.796 86.804 136.412 87.068C136.22 87.2 135.992 87.284 135.728 87.32C135.512 87.344 135.224 87.356 134.948 87.356C134.936 87.008 134.828 86.468 134.636 86.12C134.852 86.132 135.008 86.144 135.152 86.132C135.284 86.132 135.404 86.108 135.488 86.036C135.632 85.928 135.692 85.688 135.692 85.352C135.692 84.788 135.536 84.044 134.852 83.24C135.188 82.16 135.572 80.504 135.74 79.736V79.328ZM147.608 80.432C147.524 80.852 147.464 81.56 147.464 81.896C147.464 82.676 147.464 83.564 147.536 84.44C147.704 86.168 148.064 87.356 148.82 87.356C149.396 87.356 149.864 85.94 150.092 84.992L151.304 86.444C150.5 88.544 149.756 89.264 148.796 89.264C147.464 89.264 146.324 88.088 145.988 84.872C145.868 83.768 145.856 82.352 145.856 81.62C145.856 81.296 145.844 80.78 145.76 80.408L147.608 80.432ZM153.608 80.696C154.748 82.076 155.672 85.076 155.804 86.912L154.22 87.536C154.04 85.592 153.392 82.688 152.084 81.2L153.608 80.696ZM160.952 79.484C160.88 79.988 160.82 80.612 160.796 81.092C160.736 82.388 160.652 85.064 160.652 86.552C160.652 87.764 161.372 88.16 162.308 88.16C164.288 88.16 165.536 87.02 166.412 85.712L167.504 87.044C166.724 88.196 165.02 89.792 162.284 89.792C160.316 89.792 159.056 88.928 159.056 86.876C159.056 85.268 159.164 82.124 159.164 81.092C159.164 80.516 159.116 79.94 159.02 79.472L160.952 79.484ZM175.664 79.304C175.628 79.544 175.592 79.844 175.58 80.156C175.556 80.768 175.544 82.472 175.544 83.48C175.544 84.8 175.736 86.972 175.736 87.92C175.736 88.952 174.956 89.744 173.384 89.744C171.464 89.744 170.456 89.012 170.456 87.74C170.456 86.528 171.572 85.676 173.408 85.676C176.048 85.676 178.016 86.972 179.012 87.812L178.148 89.156C177.008 88.076 175.268 86.912 173.216 86.912C172.376 86.912 171.908 87.236 171.908 87.656C171.908 88.112 172.328 88.388 173.156 88.388C173.792 88.388 174.224 88.208 174.224 87.512C174.224 86.792 174.092 84.644 174.092 83.48C174.092 82.328 174.104 80.804 174.104 80.12C174.104 79.904 174.08 79.532 174.032 79.304H175.664ZM170.684 80.42C171.536 80.564 172.916 80.684 173.648 80.684C175.28 80.684 176.852 80.6 178.604 80.324L178.592 81.692C177.368 81.86 175.46 82.004 173.66 82.004C172.892 82.004 171.5 81.896 170.708 81.8L170.684 80.42ZM170.612 83.012C171.404 83.156 172.868 83.24 173.504 83.24C175.724 83.24 177.272 83.096 178.748 82.904L178.736 84.32C177.08 84.512 175.772 84.584 173.492 84.584C172.784 84.584 171.428 84.524 170.636 84.428L170.612 83.012ZM189.317 79.592C189.281 79.784 189.257 80.312 189.245 80.624C189.221 81.44 189.221 82.124 189.197 82.736C189.173 83.804 189.137 85.1 189.017 85.712C188.885 86.348 188.573 86.504 187.961 86.504C187.541 86.504 186.569 86.396 186.161 86.324L186.185 85.004C186.557 85.088 187.061 85.148 187.301 85.148C187.529 85.148 187.637 85.112 187.673 84.872C187.733 84.416 187.757 83.552 187.781 82.724C187.781 82.1 187.781 81.404 187.781 80.696C187.781 80.384 187.733 79.82 187.697 79.592H189.317ZM184.589 79.952C184.541 80.348 184.517 80.684 184.517 81.2C184.517 82.292 184.469 85.46 184.493 86.444C184.529 87.632 184.625 87.896 186.425 87.896C187.601 87.896 189.125 87.752 190.013 87.584L189.953 89.228C189.149 89.312 187.685 89.42 186.533 89.42C183.437 89.42 183.053 88.76 183.005 86.684C182.981 85.652 182.993 82.004 182.993 81.284C182.993 80.78 182.957 80.372 182.897 79.952H184.589ZM180.581 82.664C180.917 82.664 181.469 82.64 182.081 82.568C183.293 82.46 187.805 82.016 190.121 81.872C190.445 81.848 190.913 81.812 191.273 81.788V83.252C191.057 83.24 190.421 83.264 190.109 83.264C188.237 83.324 183.569 83.828 182.177 83.984C181.805 84.032 181.061 84.14 180.737 84.188L180.581 82.664ZM199.061 80.096C198.929 80.252 198.809 80.456 198.677 80.66C198.077 81.512 197.237 83.048 196.649 84.116C197.093 83.852 197.561 83.744 198.017 83.744C198.917 83.744 199.457 84.308 199.505 85.316C199.529 85.844 199.505 86.804 199.565 87.308C199.613 87.776 199.937 87.968 200.333 87.968C201.377 87.968 202.025 86.612 202.361 85.124L203.669 86.18C203.033 88.244 201.929 89.612 200.081 89.612C198.749 89.612 198.137 88.808 198.077 87.944C198.041 87.296 198.041 86.324 198.005 85.832C197.969 85.412 197.741 85.16 197.309 85.16C196.493 85.16 195.809 86 195.389 86.972C195.065 87.668 194.657 89.012 194.477 89.648L192.785 89.072C193.661 86.672 196.121 81.776 196.769 80.624C196.913 80.312 197.141 79.916 197.357 79.412L199.061 80.096ZM206.453 86.036C207.533 86.036 208.397 86.9 208.397 87.968C208.397 89.048 207.533 89.912 206.453 89.912C205.385 89.912 204.509 89.048 204.509 87.968C204.509 86.9 205.385 86.036 206.453 86.036ZM206.453 89.048C207.053 89.048 207.533 88.568 207.533 87.968C207.533 87.38 207.053 86.9 206.453 86.9C205.865 86.9 205.373 87.38 205.373 87.968C205.373 88.568 205.865 89.048 206.453 89.048ZM75.788 98.492V102.908H74.42V99.824H72.884V98.492H75.788ZM75.788 102.344C76.268 103.148 77.096 103.484 78.332 103.532C79.76 103.604 82.616 103.568 84.272 103.436C84.116 103.76 83.9 104.42 83.828 104.84C82.34 104.912 79.784 104.936 78.308 104.864C76.868 104.804 75.908 104.456 75.188 103.532C74.636 104 74.072 104.468 73.388 104.972L72.728 103.544C73.292 103.22 73.964 102.788 74.54 102.344H75.788ZM73.052 94.988L74.048 94.064C74.792 94.568 75.728 95.348 76.16 95.924L75.08 96.956C74.696 96.38 73.796 95.54 73.052 94.988ZM77.912 96.14L78.824 95.372C79.892 95.744 81.404 96.392 82.22 96.86L81.236 97.712C80.504 97.256 79.016 96.572 77.912 96.14ZM76.82 96.824H82.928V97.868H78.176V103.04H76.82V96.824ZM82.256 96.824H83.624V101.792C83.624 102.38 83.528 102.68 83.132 102.872C82.76 103.076 82.232 103.076 81.512 103.076C81.464 102.728 81.308 102.26 81.152 101.948C81.536 101.96 81.956 101.96 82.076 101.96C82.22 101.96 82.256 101.912 82.256 101.78V96.824ZM76.928 94.208H82.652V95.3H76.928V94.208ZM77.576 98.516H82.724V99.512H77.576V98.516ZM77.576 100.196H82.724V101.24H77.576V100.196ZM79.556 97.316H80.84V102.992H79.556V97.316ZM82.136 94.208H82.46L82.748 94.136L83.6 94.832C82.748 95.624 81.56 96.476 80.456 97.004C80.288 96.764 79.94 96.392 79.736 96.2C80.636 95.768 81.68 95.012 82.136 94.46V94.208ZM91.712 93.872H93.116V95.756H91.712V93.872ZM89.048 95.132H95.996V97.496H94.664V96.356H90.32V97.508H89.048V95.132ZM89.936 97.328H95.072V98.564H89.936V97.328ZM89.216 99.428H95.948V100.712H89.216V99.428ZM90.572 100.052H91.94C91.832 102.632 91.472 104.216 88.892 105.08C88.772 104.732 88.412 104.204 88.136 103.94C90.308 103.292 90.5 102.14 90.572 100.052ZM92.78 99.908H94.136V103.316C94.136 103.664 94.16 103.712 94.316 103.712C94.388 103.712 94.64 103.712 94.724 103.712C94.916 103.712 94.952 103.52 94.976 102.296C95.24 102.512 95.816 102.74 96.176 102.824C96.056 104.516 95.72 104.972 94.88 104.972C94.664 104.972 94.268 104.972 94.076 104.972C93.02 104.972 92.78 104.564 92.78 103.328V99.908ZM85.352 94.328H88.184V95.612H86.612V105.092H85.352V94.328ZM87.74 94.328H87.98L88.184 94.28L89.12 94.808C88.808 95.84 88.412 97.148 88.064 98.084C88.808 99.02 88.952 99.824 88.952 100.52C88.952 101.3 88.796 101.804 88.412 102.068C88.22 102.2 87.992 102.284 87.728 102.32C87.512 102.344 87.224 102.356 86.948 102.356C86.936 102.008 86.828 101.468 86.636 101.12C86.852 101.132 87.008 101.144 87.152 101.132C87.284 101.132 87.404 101.108 87.488 101.036C87.632 100.928 87.692 100.688 87.692 100.352C87.692 99.788 87.536 99.044 86.852 98.24C87.188 97.16 87.572 95.504 87.74 94.736V94.328ZM104.336 94.328C104.3 94.532 104.264 95.168 104.252 95.36C104.216 96.152 104.24 98.6 104.252 99.56L102.752 99.056C102.752 98.312 102.752 96.008 102.704 95.372C102.668 94.892 102.62 94.484 102.596 94.328H104.336ZM97.544 95.828C99.332 95.828 102.5 95.732 104 95.732C105.224 95.732 107.048 95.72 107.72 95.732L107.696 97.148C106.952 97.112 105.728 97.076 103.964 97.076C101.78 97.076 99.392 97.172 97.58 97.268L97.544 95.828ZM104.048 99.38C104.048 101.336 103.328 102.308 101.948 102.308C101.024 102.308 99.872 101.576 99.872 100.112C99.872 98.756 100.976 97.868 102.272 97.868C103.856 97.868 104.684 99.032 104.684 100.52C104.684 102.092 103.76 104.072 100.832 104.9L99.56 103.628C101.6 103.184 103.196 102.38 103.196 100.28C103.196 99.5 102.776 99.128 102.248 99.128C101.78 99.128 101.312 99.452 101.312 100.088C101.312 100.628 101.756 100.976 102.248 100.976C102.812 100.976 103.304 100.496 102.92 99.068L104.048 99.38ZM111.14 94.868C111.476 94.904 111.884 94.928 112.22 94.928C112.868 94.928 115.424 94.868 116.108 94.808C116.612 94.772 116.888 94.724 117.032 94.676L117.8 95.756C117.524 95.936 117.236 96.104 116.972 96.308C116.324 96.764 115.064 97.82 114.296 98.42C114.704 98.312 115.064 98.288 115.436 98.288C117.476 98.288 119.024 99.56 119.024 101.3C119.024 103.196 117.584 104.696 114.68 104.696C113.012 104.696 111.752 103.94 111.752 102.728C111.752 101.756 112.64 100.868 113.912 100.868C115.556 100.868 116.468 101.972 116.504 103.292L115.1 103.472C115.076 102.608 114.62 102.008 113.912 102.008C113.468 102.008 113.168 102.284 113.168 102.596C113.168 103.04 113.66 103.34 114.392 103.34C116.42 103.34 117.452 102.572 117.452 101.288C117.452 100.196 116.372 99.464 114.968 99.464C113.12 99.464 111.932 100.448 110.648 101.9L109.556 100.772C110.408 100.1 111.86 98.876 112.556 98.288C113.228 97.736 114.488 96.728 115.076 96.2C114.464 96.224 112.808 96.284 112.16 96.332C111.836 96.356 111.464 96.38 111.188 96.428L111.14 94.868ZM127.592 95.78C127.424 97.004 127.184 98.408 126.764 99.824C126.044 102.248 125.012 103.736 123.704 103.736C122.36 103.736 121.256 102.26 121.256 100.232C121.256 97.472 123.668 95.096 126.776 95.096C129.74 95.096 131.624 97.16 131.624 99.788C131.624 102.308 130.076 104.096 127.052 104.564L126.14 103.148C126.608 103.088 126.944 103.028 127.268 102.956C128.792 102.584 129.992 101.492 129.992 99.728C129.992 97.844 128.816 96.5 126.74 96.5C124.196 96.5 122.804 98.576 122.804 100.088C122.804 101.3 123.284 101.888 123.74 101.888C124.256 101.888 124.712 101.12 125.216 99.5C125.564 98.372 125.828 96.992 125.948 95.732L127.592 95.78ZM133.328 95.78C133.796 95.768 134.276 95.744 134.504 95.72C135.5 95.624 137.48 95.456 139.676 95.264C140.924 95.168 142.232 95.084 143.084 95.048L143.096 96.596C142.448 96.596 141.416 96.608 140.768 96.752C139.328 97.136 138.236 98.696 138.236 100.124C138.236 102.092 140.084 102.812 142.112 102.908L141.548 104.552C139.04 104.396 136.664 103.04 136.664 100.436C136.664 98.72 137.636 97.352 138.44 96.74C137.324 96.86 134.864 97.124 133.484 97.424L133.328 95.78ZM141.38 97.772C141.668 98.192 142.1 98.924 142.328 99.404L141.428 99.8C141.116 99.152 140.864 98.672 140.492 98.144L141.38 97.772ZM142.712 97.22C143.024 97.64 143.48 98.348 143.732 98.816L142.832 99.248C142.508 98.6 142.232 98.144 141.848 97.616L142.712 97.22ZM150.335 94.352C150.263 94.58 150.215 94.796 150.167 94.988C149.939 96.104 149.735 97.832 149.735 99.32C149.735 101.216 150.083 102.56 150.479 103.772L149.099 104.18C148.739 103.1 148.391 101.324 148.391 99.56C148.391 97.988 148.607 96.224 148.739 95.036C148.763 94.796 148.787 94.52 148.775 94.304L150.335 94.352ZM148.187 95.672C150.467 95.672 152.279 95.564 154.115 95.12L154.127 96.5C152.483 96.8 149.963 96.98 148.151 96.98C147.515 96.98 146.579 96.92 146.015 96.896L145.979 95.516C146.411 95.576 147.455 95.672 148.187 95.672ZM153.371 97.436C153.275 97.652 153.095 98.204 153.011 98.456C152.327 100.616 151.091 102.236 149.951 103.076C149.171 103.652 148.127 104.18 147.083 104.18C146.207 104.18 145.475 103.652 145.475 102.428C145.475 100.736 146.987 98.972 148.895 98.276C149.687 97.988 150.671 97.808 151.571 97.808C153.815 97.808 155.471 99.104 155.471 100.976C155.471 102.68 154.463 104.324 151.523 104.78L150.719 103.508C153.035 103.256 153.983 102.092 153.983 100.904C153.983 99.884 153.107 99.02 151.487 99.02C150.395 99.02 149.531 99.332 148.943 99.596C147.743 100.16 146.891 101.312 146.891 102.116C146.891 102.512 147.047 102.716 147.443 102.716C148.007 102.716 148.811 102.32 149.543 101.636C150.419 100.832 151.235 99.764 151.715 98.108C151.799 97.856 151.883 97.34 151.895 97.076L153.371 97.436ZM168.083 103.376C167.519 103.892 166.799 104.276 165.815 104.276C164.915 104.276 164.315 103.628 164.315 102.464C164.315 101.156 164.747 99.404 164.747 98.3C164.747 97.712 164.447 97.424 163.931 97.424C162.815 97.424 161.027 99.188 160.067 100.412L160.055 98.564C160.787 97.796 162.791 95.996 164.375 95.996C165.671 95.996 166.259 96.764 166.259 97.772C166.259 99.008 165.863 100.772 165.863 102.02C165.863 102.332 166.031 102.548 166.331 102.548C166.775 102.548 167.339 102.236 167.879 101.696L168.083 103.376ZM159.791 97.664C159.251 97.724 158.111 97.868 157.319 97.988L157.163 96.44C157.499 96.452 157.775 96.452 158.207 96.428C158.963 96.392 160.499 96.164 161.039 95.984L161.519 96.608C161.315 96.884 160.943 97.472 160.739 97.784L160.043 100.04C159.515 100.808 158.447 102.416 157.811 103.292L156.875 101.972C157.631 101.036 159.071 99.14 159.671 98.192L159.695 97.88L159.791 97.664ZM159.647 95.348C159.647 95.012 159.659 94.652 159.587 94.28L161.339 94.328C161.135 95.288 160.739 98.432 160.739 100.58C160.739 101.552 160.739 102.572 160.811 103.688C160.823 103.904 160.871 104.348 160.895 104.612H159.251C159.275 104.336 159.287 103.916 159.287 103.724C159.299 102.56 159.311 101.756 159.347 100.256C159.383 99.188 159.647 95.828 159.647 95.348ZM172.727 96.776C173.423 96.848 174.119 96.884 174.827 96.884C176.303 96.884 177.803 96.752 179.051 96.5V97.988C177.791 98.18 176.291 98.276 174.827 98.276C174.131 98.276 173.447 98.252 172.739 98.204L172.727 96.776ZM177.299 94.748C177.251 94.988 177.227 95.276 177.215 95.528C177.191 95.924 177.179 96.74 177.179 97.616C177.179 99.824 177.371 101.372 177.371 102.512C177.371 103.772 176.747 104.708 175.019 104.708C173.363 104.708 172.331 104 172.331 102.74C172.331 101.528 173.351 100.688 174.983 100.688C177.239 100.688 178.703 101.816 179.627 102.68L178.823 103.94C177.431 102.644 176.231 101.852 174.863 101.852C174.191 101.852 173.723 102.128 173.723 102.584C173.723 103.076 174.215 103.28 174.839 103.28C175.583 103.28 175.835 102.896 175.835 102.188C175.835 101.36 175.679 99.344 175.679 97.616C175.679 96.704 175.667 95.9 175.667 95.54C175.667 95.36 175.619 94.988 175.583 94.748H177.299ZM171.443 94.88C171.347 95.132 171.191 95.732 171.155 95.948C170.975 96.752 170.579 99.404 170.579 100.592C170.579 100.832 170.591 101.132 170.639 101.372C170.795 100.952 170.987 100.544 171.167 100.148L171.911 100.736C171.575 101.72 171.179 102.944 171.035 103.604C170.999 103.772 170.975 104.024 170.975 104.156C170.975 104.276 170.987 104.48 170.999 104.66L169.643 104.756C169.403 103.916 169.175 102.548 169.175 100.916C169.175 99.104 169.535 96.836 169.667 95.912C169.715 95.588 169.775 95.12 169.775 94.736L171.443 94.88ZM178.283 94.268C178.499 94.748 178.775 95.444 178.907 95.912L178.079 96.188C177.899 95.66 177.695 95.012 177.455 94.52L178.283 94.268ZM179.519 93.884C179.747 94.364 180.023 95.06 180.167 95.516L179.339 95.792C179.171 95.264 178.943 94.628 178.703 94.148L179.519 93.884ZM186.035 97.412H191.027V98.864H186.035V97.412ZM180.899 103.04H191.867V104.492H180.899V103.04ZM185.219 93.956H186.767V103.844H185.219V93.956ZM198.767 98.3H202.715V99.656H198.767V98.3ZM198.179 98.3H199.631V103.028C199.631 103.544 199.739 103.616 200.315 103.616C200.579 103.616 201.695 103.616 202.019 103.616C202.559 103.616 202.655 103.34 202.727 101.828C203.051 102.068 203.663 102.308 204.071 102.404C203.891 104.396 203.483 104.984 202.127 104.984C201.791 104.984 200.447 104.984 200.135 104.984C198.635 104.984 198.179 104.564 198.179 103.028V98.3ZM198.143 94.412H203.423V100.268H201.971V95.78H198.143V94.412ZM193.319 97.496H197.195V98.576H193.319V97.496ZM193.391 94.184H197.231V95.276H193.391V94.184ZM193.319 99.128H197.195V100.22H193.319V99.128ZM192.731 95.804H197.675V96.944H192.731V95.804ZM193.979 100.796H197.159V104.444H193.979V103.304H195.899V101.936H193.979V100.796ZM193.283 100.796H194.531V104.924H193.283V100.796ZM211.475 95.78C211.307 97.004 211.067 98.408 210.647 99.824C209.927 102.248 208.895 103.736 207.587 103.736C206.243 103.736 205.139 102.26 205.139 100.232C205.139 97.472 207.551 95.096 210.659 95.096C213.623 95.096 215.507 97.16 215.507 99.788C215.507 102.308 213.959 104.096 210.935 104.564L210.023 103.148C210.491 103.088 210.827 103.028 211.151 102.956C212.675 102.584 213.875 101.492 213.875 99.728C213.875 97.844 212.699 96.5 210.623 96.5C208.079 96.5 206.687 98.576 206.687 100.088C206.687 101.3 207.167 101.888 207.623 101.888C208.139 101.888 208.595 101.12 209.099 99.5C209.447 98.372 209.711 96.992 209.831 95.732L211.475 95.78ZM225.563 94.304C225.863 94.736 226.247 95.432 226.475 95.876L225.515 96.284C225.263 95.792 224.939 95.156 224.615 94.688L225.563 94.304ZM227.123 93.956C227.435 94.412 227.843 95.096 228.059 95.516L227.099 95.924C226.847 95.42 226.499 94.796 226.175 94.352L227.123 93.956ZM223.295 94.532C223.259 94.7 223.187 95.288 223.187 95.588C223.187 96.296 223.187 97.316 223.187 98.012C223.187 98.984 223.187 102.56 223.187 103.568C223.187 104.264 222.779 104.696 221.927 104.696C221.291 104.696 220.583 104.672 219.983 104.6L219.839 103.112C220.343 103.208 220.871 103.244 221.171 103.244C221.483 103.244 221.591 103.136 221.603 102.824C221.615 102.368 221.615 98.576 221.615 98.012C221.615 97.592 221.615 96.308 221.615 95.576C221.615 95.264 221.555 94.748 221.519 94.532H223.295ZM217.415 96.452C217.775 96.5 218.195 96.536 218.567 96.536C219.299 96.536 225.119 96.536 225.983 96.536C226.319 96.536 226.835 96.5 227.159 96.464V98.036C226.787 98 226.319 97.988 225.995 97.988C225.131 97.988 219.359 97.988 218.567 97.988C218.207 97.988 217.751 98 217.415 98.036V96.452ZM220.475 99.704C219.923 100.76 218.807 102.332 218.159 103.04L216.851 102.164C217.655 101.396 218.615 100.076 219.107 99.056L220.475 99.704ZM225.623 99.02C226.235 99.788 227.195 101.3 227.675 102.176L226.271 102.956C225.755 101.924 224.903 100.472 224.315 99.728L225.623 99.02ZM233.519 98.384C234.995 99.236 237.215 100.772 238.331 101.66L237.179 103.028C236.135 102.044 233.855 100.364 232.451 99.476L233.519 98.384ZM239.171 96.344C239.027 96.572 238.871 96.908 238.763 97.208C238.403 98.312 237.671 99.848 236.591 101.18C235.463 102.584 233.927 103.928 231.635 104.792L230.243 103.592C232.751 102.812 234.179 101.552 235.211 100.352C236.015 99.404 236.759 98.024 236.987 97.088H232.931L233.483 95.732H236.903C237.275 95.732 237.671 95.672 237.947 95.588L239.171 96.344ZM235.199 94.496C234.911 94.916 234.599 95.468 234.455 95.72C233.651 97.172 232.115 99.008 230.387 100.196L229.103 99.2C231.203 97.904 232.307 96.26 232.919 95.216C233.099 94.928 233.351 94.376 233.459 93.956L235.199 94.496ZM243.275 94.88C244.103 95.444 245.663 96.692 246.371 97.424L245.147 98.672C244.523 98 243.011 96.692 242.135 96.092L243.275 94.88ZM241.763 102.872C243.647 102.608 245.195 101.996 246.359 101.312C248.411 100.088 249.971 98.264 250.739 96.644L251.663 98.324C250.763 99.956 249.167 101.612 247.235 102.776C246.011 103.508 244.463 104.168 242.783 104.456L241.763 102.872ZM258.215 94.376C258.119 94.82 257.963 95.528 257.627 96.392C257.375 96.98 257.027 97.664 256.691 98.144C257.015 98 257.651 97.916 258.059 97.916C259.055 97.916 259.811 98.504 259.811 99.62C259.811 100.268 259.847 101.576 259.859 102.332H258.419C258.467 101.768 258.491 100.748 258.479 100.1C258.479 99.332 257.999 99.08 257.495 99.08C256.835 99.08 256.079 99.476 255.623 99.908C255.263 100.268 254.927 100.7 254.519 101.228L253.235 100.268C254.771 98.852 255.695 97.556 256.199 96.236C256.439 95.588 256.595 94.856 256.631 94.244L258.215 94.376ZM253.691 95.492C254.303 95.576 255.191 95.624 255.803 95.624C257.387 95.624 259.559 95.54 261.299 95.228L261.287 96.62C259.595 96.86 257.183 96.968 255.719 96.968C255.227 96.968 254.351 96.944 253.691 96.884V95.492ZM263.195 98.9C262.823 99.008 262.175 99.248 261.767 99.404C260.987 99.704 259.907 100.136 258.779 100.712C257.687 101.276 257.099 101.792 257.099 102.452C257.099 103.112 257.675 103.292 258.839 103.292C259.859 103.292 261.203 103.16 262.259 102.944L262.211 104.492C261.407 104.6 259.943 104.708 258.803 104.708C256.931 104.708 255.527 104.24 255.527 102.692C255.527 101.024 257.243 100.04 258.683 99.32C259.787 98.744 260.543 98.456 261.263 98.12C261.731 97.916 262.151 97.724 262.607 97.496L263.195 98.9ZM269.831 94.616C269.759 94.928 269.687 95.312 269.627 95.612C269.507 96.152 269.363 96.896 269.231 97.508C268.835 99.2 267.875 102.62 266.615 104.648L265.043 104.024C266.471 102.104 267.371 98.936 267.707 97.424C267.935 96.344 268.067 95.324 268.055 94.424L269.831 94.616ZM273.971 95.816C274.703 96.86 275.711 99.092 276.083 100.232L274.559 100.94C274.247 99.608 273.395 97.496 272.531 96.428L273.971 95.816ZM264.971 97.076C265.403 97.1 265.811 97.088 266.255 97.076C267.215 97.052 269.495 96.788 270.383 96.788C271.655 96.788 272.555 97.352 272.555 99.092C272.555 100.508 272.375 102.452 271.871 103.484C271.475 104.324 270.803 104.588 269.903 104.588C269.435 104.588 268.871 104.516 268.463 104.42L268.199 102.836C268.667 102.968 269.351 103.088 269.663 103.088C270.071 103.088 270.383 102.968 270.563 102.572C270.899 101.9 271.055 100.436 271.055 99.26C271.055 98.3 270.647 98.156 269.891 98.156C269.183 98.156 267.107 98.42 266.447 98.504C266.099 98.552 265.475 98.636 265.115 98.696L264.971 97.076ZM273.755 94.16C274.055 94.592 274.475 95.36 274.703 95.804L273.743 96.212C273.491 95.72 273.119 95.012 272.795 94.544L273.755 94.16ZM275.171 93.608C275.483 94.064 275.927 94.832 276.143 95.252L275.183 95.66C274.943 95.156 274.547 94.46 274.223 94.004L275.171 93.608ZM281.087 94.496H287.639V101.552H286.187V95.816H282.479V101.564H281.087V94.496ZM281.963 97.088H286.715V98.384H281.963V97.088ZM281.963 99.692H286.715V101H281.963V99.692ZM283.667 95.012H285.023V105.08H283.667V95.012ZM276.707 99.908C277.727 99.692 279.191 99.344 280.583 98.984L280.763 100.304C279.515 100.652 278.159 101.012 277.079 101.288L276.707 99.908ZM276.863 96.092H280.715V97.436H276.863V96.092ZM278.183 93.812H279.563V103.496C279.563 104.168 279.443 104.504 279.059 104.72C278.675 104.936 278.135 104.972 277.343 104.972C277.295 104.624 277.115 104.048 276.959 103.7C277.379 103.712 277.835 103.7 277.979 103.7C278.135 103.7 278.183 103.652 278.183 103.496V93.812ZM292.835 94.484C292.763 94.988 292.703 95.612 292.679 96.092C292.619 97.388 292.535 100.064 292.535 101.552C292.535 102.764 293.255 103.16 294.191 103.16C296.171 103.16 297.419 102.02 298.295 100.712L299.387 102.044C298.607 103.196 296.903 104.792 294.167 104.792C292.199 104.792 290.939 103.928 290.939 101.876C290.939 100.268 291.047 97.124 291.047 96.092C291.047 95.516 290.999 94.94 290.903 94.472L292.835 94.484ZM300.872 95.756C301.34 95.744 301.82 95.72 302.048 95.696C303.056 95.6 305.024 95.432 307.232 95.24C308.468 95.132 309.776 95.06 310.628 95.024L310.64 96.572C309.992 96.572 308.96 96.584 308.312 96.728C306.872 97.112 305.78 98.672 305.78 100.088C305.78 102.068 307.628 102.776 309.656 102.884L309.104 104.528C306.584 104.372 304.208 103.016 304.208 100.412C304.208 98.684 305.18 97.328 305.996 96.716C304.868 96.836 302.42 97.088 301.028 97.4L300.872 95.756ZM320.464 95.36C320.08 95.636 319.684 95.948 319.408 96.176C318.628 96.8 317.044 98.024 316.24 98.72C315.604 99.26 315.616 99.404 316.264 99.968C317.164 100.724 319.444 102.512 320.668 103.7L319.276 104.996C318.94 104.612 318.58 104.24 318.22 103.88C317.5 103.124 315.736 101.612 314.632 100.688C313.444 99.668 313.54 99.02 314.74 98.024C315.676 97.256 317.332 95.924 318.136 95.132C318.484 94.796 318.868 94.4 319.06 94.112L320.464 95.36ZM328.972 94.568C328.888 94.892 328.768 95.432 328.708 95.696C328.54 96.512 328.252 97.988 327.928 99.2C327.496 100.88 326.692 103.34 326.032 104.756L324.352 104.192C325.072 102.992 325.984 100.472 326.428 98.792C326.74 97.664 327.016 96.356 327.1 95.636C327.16 95.192 327.172 94.7 327.136 94.424L328.972 94.568ZM325.912 96.356C327.376 96.356 329.068 96.14 330.628 95.768V97.268C329.14 97.616 327.256 97.808 325.9 97.808C325.312 97.808 324.868 97.784 324.448 97.76L324.4 96.272C325.024 96.344 325.42 96.356 325.912 96.356ZM329.68 98.204C330.352 98.132 331.204 98.072 331.996 98.072C332.68 98.072 333.4 98.108 334.096 98.18L334.072 99.62C333.46 99.548 332.728 99.476 332.008 99.476C331.168 99.476 330.436 99.512 329.68 99.608V98.204ZM330.328 101.216C330.244 101.552 330.172 101.948 330.172 102.212C330.172 102.74 330.52 103.136 331.816 103.136C332.608 103.136 333.448 103.04 334.3 102.884L334.24 104.42C333.568 104.504 332.764 104.6 331.804 104.6C329.776 104.6 328.696 103.892 328.696 102.68C328.696 102.128 328.792 101.552 328.9 101.072L330.328 101.216ZM332.812 94.916C333.124 95.348 333.544 96.116 333.772 96.56L332.812 96.968C332.56 96.476 332.188 95.768 331.864 95.3L332.812 94.916ZM334.24 94.364C334.552 94.82 334.996 95.576 335.212 96.008L334.252 96.416C334.012 95.912 333.616 95.216 333.292 94.76L334.24 94.364ZM341.728 95.492C341.644 95.216 341.5 94.784 341.356 94.388L342.976 94.196C343.156 95.12 343.444 96.068 343.732 96.836C344.104 97.844 344.668 98.876 345.064 99.428C345.268 99.728 345.484 99.98 345.7 100.232L344.968 101.3C344.296 101.168 342.772 101.012 341.764 100.928L341.884 99.656C342.472 99.716 343.264 99.776 343.636 99.812C343.204 99.104 342.676 98.096 342.304 97.1C342.04 96.44 341.872 95.888 341.728 95.492ZM337.36 96.056C339.604 96.32 341.428 96.308 342.868 96.152C343.936 96.02 344.992 95.816 345.94 95.528L346.12 97.028C345.328 97.256 344.296 97.436 343.336 97.544C341.74 97.736 339.844 97.784 337.384 97.58L337.36 96.056ZM339.772 100.136C339.376 100.712 339.184 101.24 339.184 101.756C339.184 102.776 340.084 103.196 341.728 103.208C343.036 103.208 344.092 103.076 344.932 102.908L344.848 104.432C344.164 104.552 343.084 104.708 341.632 104.708C339.172 104.708 337.636 103.76 337.636 102.02C337.636 101.288 337.864 100.604 338.272 99.788L339.772 100.136ZM350.764 95.432C350.68 95.852 350.62 96.56 350.62 96.896C350.62 97.676 350.62 98.564 350.692 99.44C350.86 101.168 351.22 102.356 351.976 102.356C352.552 102.356 353.02 100.94 353.248 99.992L354.46 101.444C353.656 103.544 352.912 104.264 351.952 104.264C350.62 104.264 349.48 103.088 349.144 99.872C349.024 98.768 349.012 97.352 349.012 96.62C349.012 96.296 349 95.78 348.916 95.408L350.764 95.432ZM356.764 95.696C357.904 97.076 358.828 100.076 358.96 101.912L357.376 102.536C357.196 100.592 356.548 97.688 355.24 96.2L356.764 95.696ZM361.972 101.036C363.052 101.036 363.916 101.9 363.916 102.968C363.916 104.048 363.052 104.912 361.972 104.912C360.904 104.912 360.028 104.048 360.028 102.968C360.028 101.9 360.904 101.036 361.972 101.036ZM361.972 104.048C362.572 104.048 363.052 103.568 363.052 102.968C363.052 102.38 362.572 101.9 361.972 101.9C361.384 101.9 360.892 102.38 360.892 102.968C360.892 103.568 361.384 104.048 361.972 104.048Z" fill="black"/>
<defs>
<filter id="filter0_i_683_665" x="303" y="20" width="60" height="30" filterUnits="userSpaceOnUse" color-interpolation-filters="sRGB">
<feFlood flood-opacity="0" result="BackgroundImageFix"/>
<feBlend mode="normal" in="SourceGraphic" in2="BackgroundImageFix" result="shape"/>
<feColorMatrix in="SourceAlpha" type="matrix" values="0 0 0 0 0 0 0 0 0 0 0 0 0 0 0 0 0 0 127 0" result="hardAlpha"/>
<feOffset/>
<feGaussianBlur stdDeviation="4"/>
<feComposite in2="hardAlpha" operator="arithmetic" k2="-1" k3="1"/>
<feColorMatrix type="matrix" values="0 0 0 0 0 0 0 0 0 0 0 0 0 0 0 0 0 0 0.25 0"/>
<feBlend mode="normal" in2="shape" result="effect1_innerShadow_683_665"/>
</filter>
</defs>
</svg>
