<svg width="24" height="24" viewBox="0 0 24 24" fill="none" xmlns="http://www.w3.org/2000/svg">
<g clip-path="url(#clip0_273_224)">
<path d="M23.3484 0.262557C23.8219 0.590682 24.0703 1.15787 23.9813 1.72506L20.9813 21.2251C20.9109 21.6797 20.6344 22.0782 20.2313 22.3032C19.8281 22.5282 19.3453 22.5563 18.9188 22.3782L13.3125 20.0485L10.1016 23.5219C9.68437 23.9766 9.02813 24.1266 8.45156 23.9016C7.875 23.6766 7.5 23.1188 7.5 22.5001V18.5813C7.5 18.3938 7.57031 18.2157 7.69688 18.0797L15.5531 9.50631C15.825 9.21099 15.8156 8.75631 15.5344 8.47506C15.2531 8.19381 14.7984 8.17506 14.5031 8.44225L4.96875 16.9126L0.829687 14.8407C0.332812 14.5922 0.0140624 14.0954 -5.25615e-08 13.5422C-0.0140626 12.9891 0.276563 12.4735 0.754687 12.1969L21.7547 0.196932C22.2563 -0.0890053 22.875 -0.0608803 23.3484 0.262557Z" fill="black"/>
</g>
<defs>
<clipPath id="clip0_273_224">
<rect width="24" height="24" fill="white"/>
</clipPath>
</defs>
</svg>
