<svg width="50" height="50" viewBox="0 0 50 50" fill="none" xmlns="http://www.w3.org/2000/svg">
<g clip-path="url(#clip0_278_586)">
<path d="M18.75 43.75C18.75 44.8958 19.6875 45.8333 20.8333 45.8333H29.1667C30.3125 45.8333 31.25 44.8958 31.25 43.75V41.6667H18.75V43.75ZM25 4.16666C16.9583 4.16666 10.4167 10.7083 10.4167 18.75C10.4167 23.7083 12.8958 28.0625 16.6667 30.7083V35.4167C16.6667 36.5625 17.6042 37.5 18.75 37.5H31.25C32.3958 37.5 33.3333 36.5625 33.3333 35.4167V30.7083C37.1042 28.0625 39.5833 23.7083 39.5833 18.75C39.5833 10.7083 33.0417 4.16666 25 4.16666ZM29.1667 28.5417V33.3333H20.8333V28.5417C17.6667 26.3125 14.5833 24.0208 14.5833 18.75C14.5833 13 19.25 8.33332 25 8.33332C30.75 8.33332 35.4167 13 35.4167 18.75C35.4167 23.9375 32.2708 26.3542 29.1667 28.5417Z" fill="black"/>
<path d="M29.1667 28.5417V33.3333H20.8333V28.5417C17.6667 26.3125 14.5833 24.0208 14.5833 18.75C14.5833 13 19.25 8.33332 25 8.33332C30.75 8.33332 35.4167 13 35.4167 18.75C35.4167 23.9375 32.2708 26.3542 29.1667 28.5417Z" fill="#EBFF00"/>
</g>
<defs>
<clipPath id="clip0_278_586">
<rect width="50" height="50" fill="white"/>
</clipPath>
</defs>
</svg>
