<svg width="40" height="29" viewBox="0 0 40 29" fill="none" xmlns="http://www.w3.org/2000/svg">
<path d="M10.3226 8.64516C10.9386 8.64516 11.5293 8.40046 11.9649 7.96489C12.4005 7.52933 12.6452 6.93857 12.6452 6.32258C12.6452 5.70659 12.4005 5.11584 11.9649 4.68027C11.5293 4.2447 10.9386 4 10.3226 4C9.70659 4 9.11584 4.2447 8.68027 4.68027C8.2447 5.11584 8 5.70659 8 6.32258C8 6.93857 8.2447 7.52933 8.68027 7.96489C9.11584 8.40046 9.70659 8.64516 10.3226 8.64516ZM16.5161 4.77419C15.6597 4.77419 14.9677 5.46613 14.9677 6.32258C14.9677 7.17903 15.6597 7.87097 16.5161 7.87097H30.4516C31.3081 7.87097 32 7.17903 32 6.32258C32 5.46613 31.3081 4.77419 30.4516 4.77419H16.5161ZM16.5161 12.5161C15.6597 12.5161 14.9677 13.2081 14.9677 14.0645C14.9677 14.921 15.6597 15.6129 16.5161 15.6129H30.4516C31.3081 15.6129 32 14.921 32 14.0645C32 13.2081 31.3081 12.5161 30.4516 12.5161H16.5161ZM16.5161 20.2581C15.6597 20.2581 14.9677 20.95 14.9677 21.8065C14.9677 22.6629 15.6597 23.3548 16.5161 23.3548H30.4516C31.3081 23.3548 32 22.6629 32 21.8065C32 20.95 31.3081 20.2581 30.4516 20.2581H16.5161ZM10.3226 24.129C10.9386 24.129 11.5293 23.8843 11.9649 23.4488C12.4005 23.0132 12.6452 22.4224 12.6452 21.8065C12.6452 21.1905 12.4005 20.5997 11.9649 20.1641C11.5293 19.7286 10.9386 19.4839 10.3226 19.4839C9.70659 19.4839 9.11584 19.7286 8.68027 20.1641C8.2447 20.5997 8 21.1905 8 21.8065C8 22.4224 8.2447 23.0132 8.68027 23.4488C9.11584 23.8843 9.70659 24.129 10.3226 24.129ZM12.6452 14.0645C12.6452 13.7595 12.5851 13.4575 12.4684 13.1757C12.3516 12.8939 12.1806 12.6379 11.9649 12.4222C11.7492 12.2065 11.4932 12.0355 11.2114 11.9187C10.9296 11.802 10.6276 11.7419 10.3226 11.7419C10.0176 11.7419 9.71556 11.802 9.43377 11.9187C9.15198 12.0355 8.89594 12.2065 8.68027 12.4222C8.4646 12.6379 8.29352 12.8939 8.1768 13.1757C8.06008 13.4575 8 13.7595 8 14.0645C8 14.3695 8.06008 14.6715 8.1768 14.9533C8.29352 15.2351 8.4646 15.4912 8.68027 15.7068C8.89594 15.9225 9.15198 16.0936 9.43377 16.2103C9.71556 16.327 10.0176 16.3871 10.3226 16.3871C10.6276 16.3871 10.9296 16.327 11.2114 16.2103C11.4932 16.0936 11.7492 15.9225 11.9649 15.7068C12.1806 15.4912 12.3516 15.2351 12.4684 14.9533C12.5851 14.6715 12.6452 14.3695 12.6452 14.0645Z" fill="black"/>
</svg>
