<svg width="432" height="192" viewBox="0 0 432 192" fill="none" xmlns="http://www.w3.org/2000/svg">
<path d="M64.4469 36H110.927C110.927 40.704 110.927 45.408 110.927 50.112C110.927 54.816 110.927 59.52 110.927 64.224C110.927 68.928 110.927 73.6693 110.927 78.448C110.927 85.3173 110.927 92.224 110.927 99.168C110.927 106.112 110.927 113.056 110.927 120H64.4469C64.4469 115.445 64.4469 110.891 64.4469 106.336C64.4469 101.781 64.4469 97.2267 64.4469 92.672C64.4469 92.5973 64.4095 92.56 64.3349 92.56C64.3349 92.4853 64.2975 92.448 64.2229 92.448H48.8789C48.8042 92.448 48.7669 92.4853 48.7669 92.56C48.7669 92.56 48.7669 92.5973 48.7669 92.672C48.7669 97.2267 48.7669 101.781 48.7669 106.336C48.7669 110.891 48.7669 115.445 48.7669 120H2.28688C2.28688 115.52 2.28688 111.04 2.28688 106.56C2.28688 102.08 2.28688 97.6 2.28688 93.12C2.28688 88.64 2.28688 84.16 2.28688 79.68C2.28688 75.2 2.28688 70.72 2.28688 66.24C2.28688 61.76 2.28688 57.28 2.28688 52.8C2.28688 49.9627 2.28688 47.1627 2.28688 44.4C2.28688 41.5627 2.28688 38.7627 2.28688 36H48.7669C48.7669 39.584 48.7669 43.2053 48.7669 46.864C48.7669 50.5227 48.7669 54.1813 48.7669 57.84C48.7669 61.424 48.7669 65.0453 48.7669 68.704C48.7669 68.7787 48.7669 68.8533 48.7669 68.928C48.7669 68.928 48.8042 68.928 48.8789 68.928H64.2229C64.2975 68.928 64.3349 68.928 64.3349 68.928C64.4095 68.8533 64.4469 68.7787 64.4469 68.704C64.4469 63.2533 64.4469 57.8027 64.4469 52.352C64.4469 46.9013 64.4469 41.4507 64.4469 36ZM211.573 64.224H162.853C162.778 64.224 162.741 64.224 162.741 64.224V70.384C162.741 70.4587 162.741 70.5333 162.741 70.608C162.815 70.608 162.853 70.608 162.853 70.608H209.893V86.4H162.853C162.853 86.4 162.815 86.4 162.741 86.4C162.741 86.4 162.741 86.4373 162.741 86.512C162.741 86.512 162.741 86.5493 162.741 86.624V92.896C162.815 92.896 162.853 92.896 162.853 92.896H212.245V120H117.381C117.381 115.595 117.381 111.189 117.381 106.784C117.381 102.304 117.381 97.8613 117.381 93.456C117.381 89.0507 117.381 84.6453 117.381 80.24C117.381 75.76 117.381 71.3173 117.381 66.912C117.381 62.432 117.381 57.9893 117.381 53.584C117.381 50.672 117.381 47.76 117.381 44.848C117.381 41.8613 117.381 38.912 117.381 36H211.573V64.224ZM330.823 36C329.181 41.6 327.501 47.2 325.784 52.8C324.141 58.4 322.461 64 320.744 69.6C319.101 75.2 317.421 80.8 315.704 86.4C314.061 92 312.381 97.6 310.664 103.2C309.021 108.8 307.341 114.4 305.624 120H240.776C238.013 110.667 235.213 101.333 232.376 92C229.613 82.6667 226.85 73.3333 224.088 64C221.325 54.6667 218.525 45.3333 215.688 36H265.64C266.088 38.912 266.536 41.824 266.984 44.736C267.506 47.5733 267.992 50.448 268.44 53.36C268.888 56.272 269.336 59.184 269.784 62.096C270.232 65.008 270.68 67.92 271.128 70.832C271.576 73.744 272.024 76.656 272.472 79.568C272.994 82.4053 273.48 85.28 273.928 88.192C274.002 88.192 274.04 88.192 274.04 88.192C274.114 88.192 274.152 88.192 274.152 88.192C274.525 85.728 274.898 83.264 275.272 80.8C275.72 78.2613 276.13 75.76 276.504 73.296C276.877 70.832 277.25 68.368 277.624 65.904C278.072 63.3653 278.482 60.864 278.856 58.4C279.304 55.8613 279.714 53.36 280.088 50.896C280.461 48.432 280.834 45.968 281.208 43.504C281.656 40.9653 282.066 38.464 282.44 36H330.823ZM429.291 64.224H380.571C380.497 64.224 380.459 64.224 380.459 64.224V70.384C380.459 70.4587 380.459 70.5333 380.459 70.608C380.534 70.608 380.571 70.608 380.571 70.608H427.611V86.4H380.571C380.571 86.4 380.534 86.4 380.459 86.4C380.459 86.4 380.459 86.4373 380.459 86.512C380.459 86.512 380.459 86.5493 380.459 86.624V92.896C380.534 92.896 380.571 92.896 380.571 92.896H429.963V120H335.099C335.099 115.595 335.099 111.189 335.099 106.784C335.099 102.304 335.099 97.8613 335.099 93.456C335.099 89.0507 335.099 84.6453 335.099 80.24C335.099 75.76 335.099 71.3173 335.099 66.912C335.099 62.432 335.099 57.9893 335.099 53.584C335.099 50.672 335.099 47.76 335.099 44.848C335.099 41.8613 335.099 38.912 335.099 36H429.291V64.224Z" fill="black"/>
<path d="M89.85 164.19L92.7 165.69C92.52 166.02 92.25 166.14 91.53 165.99C89.58 168.75 86.04 172.59 82.23 175.17L81.87 174.81C85.05 171.84 88.29 167.31 89.85 164.19ZM89.67 157.95L92.34 159.51C92.16 159.81 91.89 159.9 91.2 159.78C89.37 161.91 86.1 164.79 82.77 166.65L82.44 166.26C85.2 164.01 88.17 160.41 89.67 157.95ZM87 170.16L87.99 168.87L89.85 169.62C89.76 169.86 89.46 170.07 88.95 170.13V184.71C88.92 184.89 88.11 185.37 87.36 185.37H87V170.16ZM93.93 160.65H104.79L106.17 158.88C106.17 158.88 107.79 160.14 108.72 161.04C108.66 161.37 108.36 161.52 107.97 161.52H94.14L93.93 160.65ZM92.28 167.55H106.05L107.46 165.78C107.46 165.78 109.08 167.01 110.04 167.94C109.98 168.27 109.71 168.42 109.29 168.42H92.52L92.28 167.55ZM102.3 167.79H104.28V182.19C104.28 183.78 103.86 184.95 100.62 185.25C100.56 184.62 100.29 184.08 99.78 183.78C99.21 183.42 98.19 183.15 96.39 182.94V182.49C96.39 182.49 100.62 182.79 101.46 182.79C102.12 182.79 102.3 182.61 102.3 182.13V167.79ZM115.53 160.71L115.95 160.26C116.67 160.59 117.06 160.83 117.54 161.16C118.17 161.64 119.61 163.11 119.61 164.43C119.61 165.12 119.13 165.96 118.68 166.89C117.81 168.84 116.7 171.75 116.7 174.36C116.7 176.04 117.03 177.15 117.36 177.81C117.6 178.29 117.81 178.29 118.08 177.84C118.56 176.94 119.94 173.61 120.78 171.54L121.47 171.84C120.72 173.91 119.67 177 119.37 178.02C119.16 178.71 119.01 179.37 119.01 180.03C119.01 180.93 119.46 181.32 119.46 182.31C119.46 182.85 119.1 183.15 118.59 183.15C117.99 183.15 117.54 182.67 117.15 182.07C116.34 180.75 115.35 178.47 115.35 174.54C115.35 170.73 117.33 166.05 117.33 163.95C117.33 162.84 116.64 161.91 115.53 160.71ZM123.33 166.59L123.75 166.08C125.37 167.19 126.72 167.7 128.37 167.7C130.62 167.7 133.65 166.92 135.24 166.26C136.41 165.81 136.74 165.48 136.98 165.48C137.58 165.48 138.51 165.78 138.51 166.38C138.51 166.86 138.27 167.13 137.64 167.4C135.93 168.18 132.15 169.35 128.31 169.35C126.54 169.35 124.89 168.66 123.33 166.59ZM128.79 161.19L128.73 160.56C129.36 160.32 130.38 160.05 130.95 160.05C132.09 160.05 133.95 160.86 133.95 161.64C133.95 162.12 133.5 162.66 133.47 163.71C133.44 164.67 133.5 166.47 133.59 168.09C133.74 171.24 134.19 176.46 132.78 179.4C131.4 182.37 128.85 183.81 125.67 184.92L125.34 184.29C128.01 182.85 129.93 181.38 131.07 178.53C132.21 175.83 131.94 171.33 131.79 168.36C131.7 166.47 131.55 163.47 131.46 162.45C131.37 161.82 131.19 161.64 130.77 161.52C130.26 161.34 129.45 161.28 128.79 161.19ZM160.32 165.63V164.91C161.79 164.67 163.32 164.79 164.49 165.24C166.29 165.93 167.22 167.13 167.22 168.33C167.22 168.99 166.95 169.41 166.38 169.41C165.66 169.41 165.15 168.9 163.86 168.99C162.84 169.11 161.76 169.5 161.1 170.16C160.44 170.85 160.29 171.78 160.35 172.89C160.41 174.3 161.16 178.38 161.16 180.39C161.16 182.88 159.33 184.35 156.27 184.35C153.15 184.35 151.47 182.79 151.47 181.05C151.47 178.77 153.9 177.12 157.86 177.12C161.25 177.12 163.92 178.38 165.57 179.55C167.04 180.48 167.67 181.32 167.67 182.07C167.67 182.67 167.37 183.06 166.89 183.06C166.35 183.06 165.96 182.52 165.33 181.95C163.32 180 160.68 178.5 156.78 178.5C154.05 178.5 152.61 179.64 152.61 180.69C152.61 181.74 153.6 182.58 155.79 182.58C158.67 182.58 159.33 181.14 159.33 179.37C159.36 177.39 159 175.14 159 173.34C159 171.63 159.45 170.52 160.41 169.56C161.37 168.6 162.72 168.09 163.77 167.64C164.37 167.34 164.28 166.95 163.74 166.53C162.9 165.9 161.7 165.63 160.32 165.63ZM144.54 163.59C145.8 164.7 146.49 165.33 148.53 165.33C149.91 165.33 151.35 165 152.13 164.76C155.61 163.77 156.27 162.93 156.87 162.93C157.53 162.93 157.98 163.35 157.98 163.86C157.98 164.37 157.32 164.79 156.96 164.97C155.4 165.78 151.47 166.98 148.23 166.98C145.98 166.98 144.96 166.14 144 164.01L144.54 163.59ZM149.58 160.23V159.75C150.09 159.54 150.81 159.36 151.38 159.36C152.13 159.36 153.03 159.57 153.54 159.87C154.08 160.23 153.9 160.8 152.58 165.39C151.74 168.3 149.34 174.78 146.58 178.83C146.13 179.46 145.77 179.91 145.23 179.91C144.63 179.91 144.36 179.31 144.36 178.77C144.36 178.26 144.48 177.84 144.87 177.33C146.82 174.75 149.49 170.79 150.81 166.11C151.2 164.7 151.59 162.78 151.62 161.76C151.65 161.13 151.53 160.89 151.02 160.68C150.57 160.47 150 160.32 149.58 160.23ZM175.89 166.92C175.89 165.3 175.65 164.55 173.52 163.02L173.82 162.57C174.54 162.69 175.11 162.78 175.68 163.05C176.76 163.53 178.32 164.88 178.32 166.11C178.32 167.46 177.3 169.35 177.3 172.41C177.3 176.22 179.04 178.2 180.33 178.86C180.78 179.07 181.11 179.04 181.38 178.62C182.31 177.21 183.33 175.02 184.17 173.16L184.98 173.52C184.26 175.47 183.3 178.02 183.12 178.95C182.85 180.27 183.36 180.42 183.36 181.05C183.36 181.89 182.55 182.37 181.29 181.83C178.95 180.81 175.86 178.23 175.74 172.47C175.68 170.31 175.89 168.24 175.89 166.92ZM189.87 166.17L190.11 165.45C192.96 165.96 194.4 166.98 195.78 168.39C197.46 170.16 198.36 173.13 198.36 175.14C198.36 176.34 197.97 176.85 197.19 176.85C196.71 176.85 196.35 176.49 196.2 175.77C196.02 174.48 195.78 171.9 194.52 169.77C193.47 168 191.85 166.92 189.87 166.17ZM205.98 162.66C207.18 163.92 207.72 164.55 209.94 164.55C212.64 164.52 216.45 163.32 218.31 162.51C219.57 161.97 219.81 161.7 220.26 161.7C220.89 161.7 221.55 161.91 221.55 162.51C221.55 162.9 221.25 163.14 220.71 163.41C218.91 164.31 213.48 166.05 209.55 166.05C207.06 166.05 206.58 165.39 205.38 163.02L205.98 162.66ZM217.65 178.89C217.65 179.61 217.32 180.03 216.72 180.03C216.21 180.03 215.7 179.73 215.7 178.89C215.7 178.02 215.91 175.71 215.85 173.76C215.76 171.03 215.22 170.01 213.57 170.01C211.92 170.01 209.94 171.69 208.68 173.04C207.6 174.15 206.76 175.59 206.04 175.59C205.47 175.62 205.05 175.14 205.05 174.42C205.05 173.58 206.13 172.83 207.51 171.42C210.42 168.51 213.03 164.13 213.6 161.61C213.72 161.07 213.63 160.83 213.06 160.59C212.7 160.44 212.07 160.26 211.38 160.17V159.6C211.95 159.45 212.61 159.27 213.06 159.3C213.99 159.3 215.97 159.84 215.97 160.56C215.97 160.98 215.7 161.16 215.4 161.85C215.1 162.48 214.53 163.65 214.02 164.61C213.18 166.14 212.28 167.73 210.57 169.86C210.45 170.04 210.54 170.19 210.78 170.07C211.71 169.56 212.85 169.02 214.08 169.02C216.06 169.02 217.26 170.49 217.47 173.01C217.65 174.78 217.65 177.69 217.65 178.89ZM223.74 166.5C224.82 166.71 225.42 166.89 225.96 167.28C226.71 167.79 227.55 168.81 227.55 169.62C227.55 170.19 227.28 170.25 226.08 170.61C223.47 171.42 219.21 173.04 216.39 174.63C213.24 176.4 210.84 178.41 210.84 180.27C210.84 181.95 212.76 182.7 215.64 182.7C220.05 182.7 221.82 181.74 223.23 181.74C224.31 181.74 224.82 182.1 224.82 182.67C224.82 183.15 224.7 183.51 223.71 183.78C222.75 184.05 219.57 184.59 216.99 184.59C211.44 184.59 209.61 182.85 209.61 180.51C209.61 177.96 212.7 175.41 216.48 173.1C219 171.6 222.63 170.13 224.7 169.05C225.18 168.81 225.24 168.51 224.85 168.03C224.55 167.67 223.95 167.31 223.38 167.01L223.74 166.5ZM250.32 165.63V164.91C251.79 164.67 253.32 164.79 254.49 165.24C256.29 165.93 257.22 167.13 257.22 168.33C257.22 168.99 256.95 169.41 256.38 169.41C255.66 169.41 255.15 168.9 253.86 168.99C252.84 169.11 251.76 169.5 251.1 170.16C250.44 170.85 250.29 171.78 250.35 172.89C250.41 174.3 251.16 178.38 251.16 180.39C251.16 182.88 249.33 184.35 246.27 184.35C243.15 184.35 241.47 182.79 241.47 181.05C241.47 178.77 243.9 177.12 247.86 177.12C251.25 177.12 253.92 178.38 255.57 179.55C257.04 180.48 257.67 181.32 257.67 182.07C257.67 182.67 257.37 183.06 256.89 183.06C256.35 183.06 255.96 182.52 255.33 181.95C253.32 180 250.68 178.5 246.78 178.5C244.05 178.5 242.61 179.64 242.61 180.69C242.61 181.74 243.6 182.58 245.79 182.58C248.67 182.58 249.33 181.14 249.33 179.37C249.36 177.39 249 175.14 249 173.34C249 171.63 249.45 170.52 250.41 169.56C251.37 168.6 252.72 168.09 253.77 167.64C254.37 167.34 254.28 166.95 253.74 166.53C252.9 165.9 251.7 165.63 250.32 165.63ZM234.54 163.59C235.8 164.7 236.49 165.33 238.53 165.33C239.91 165.33 241.35 165 242.13 164.76C245.61 163.77 246.27 162.93 246.87 162.93C247.53 162.93 247.98 163.35 247.98 163.86C247.98 164.37 247.32 164.79 246.96 164.97C245.4 165.78 241.47 166.98 238.23 166.98C235.98 166.98 234.96 166.14 234 164.01L234.54 163.59ZM239.58 160.23V159.75C240.09 159.54 240.81 159.36 241.38 159.36C242.13 159.36 243.03 159.57 243.54 159.87C244.08 160.23 243.9 160.8 242.58 165.39C241.74 168.3 239.34 174.78 236.58 178.83C236.13 179.46 235.77 179.91 235.23 179.91C234.63 179.91 234.36 179.31 234.36 178.77C234.36 178.26 234.48 177.84 234.87 177.33C236.82 174.75 239.49 170.79 240.81 166.11C241.2 164.7 241.59 162.78 241.62 161.76C241.65 161.13 241.53 160.89 241.02 160.68C240.57 160.47 240 160.32 239.58 160.23ZM276.3 159.66L276.66 159.12C277.35 159.27 277.92 159.39 278.49 159.72C279.54 160.32 280.65 161.55 280.65 162.3C280.65 162.9 280.14 163.14 279.12 163.92C277.11 165.57 273.12 169.2 271.89 170.46C271.02 171.36 270.84 171.69 270.84 172.02C270.84 172.44 271.17 172.8 271.83 173.34C274.95 175.8 277.56 177.72 279.69 180.45C280.5 181.5 281.16 182.67 281.16 183.54C281.16 184.35 280.77 184.86 280.02 184.86C279.54 184.86 279.15 184.53 278.94 184.11C278.64 183.51 278.34 182.76 277.53 181.53C276.12 179.37 273.93 177.24 270.3 174.15C269.55 173.49 269.13 172.86 269.13 172.2C269.13 171.69 269.46 171.15 269.91 170.64C271.44 168.84 275.85 164.55 277.23 162.87C277.74 162.24 277.92 161.97 277.92 161.61C277.92 161.1 277.53 160.5 276.3 159.66ZM301.11 162.24C302.19 162.24 306.42 161.19 307.77 160.8C308.79 160.5 308.82 160.08 309.36 160.08C310.14 160.08 311.97 161.37 311.97 162.21C311.97 162.84 311.25 162.78 310.47 163.56C307.26 166.8 304.95 168.69 301.32 172.14C301.17 172.26 301.23 172.38 301.41 172.35C304.38 171.48 308.79 170.16 310.83 169.71C312.99 169.17 314.16 168.9 315 168.9C316.11 168.9 317.31 169.47 317.31 170.25C317.31 170.76 316.92 171.06 315.78 171.06C315.15 171.06 314.46 171 313.17 171.06C310.65 171.18 307.89 171.96 306.57 172.98C305.16 174.03 303.75 175.53 303.78 178.08C303.78 180.48 305.61 181.71 308.31 182.1C309.93 182.34 311.07 182.13 311.79 182.25C312.33 182.34 313.02 182.94 313.02 183.54C313.02 184.14 312.42 184.44 311.1 184.44C310.17 184.44 308.61 184.32 307.47 184.05C304.68 183.39 302.34 181.71 302.34 178.5C302.34 175.68 304.05 173.82 305.49 172.62C305.79 172.35 305.73 172.23 305.34 172.32C303.15 172.98 300.63 173.88 299.16 174.69C297.27 175.74 296.58 176.43 295.71 176.43C295.17 176.43 294.42 175.83 294.42 175.17C294.42 174.69 294.66 174.36 295.2 174.18C295.92 173.91 296.94 173.64 297.78 173.22C299.01 172.65 299.97 171.93 301.29 170.61C303.09 168.9 307.59 164.31 308.79 162.18C309.06 161.76 308.91 161.73 308.55 161.85C307.08 162.21 304.98 162.93 303.63 163.44C302.34 163.98 302.1 164.43 301.38 164.43C300.66 164.43 298.95 163.11 298.86 161.85C298.83 161.46 298.92 160.83 299.04 160.41L299.46 160.29C300 161.22 300.51 162.21 301.11 162.24ZM328.26 167.43C328.77 168.63 329.31 169.29 330 169.29C331.29 169.29 335.22 166.86 338.46 166.86C341.61 166.86 343.68 169.35 343.68 173.31C343.68 179.94 338.52 183.63 330.45 184.92L330.18 184.2C337.5 182.43 341.52 178.92 341.52 172.98C341.52 169.77 340.14 168 338.25 168C336.24 168 333.39 169.83 332.22 170.61C331.59 171.03 331.02 171.66 330.3 171.66C329.31 171.66 328.17 170.46 327.84 169.68C327.57 169.02 327.66 168.42 327.72 167.58L328.26 167.43ZM330.6 159.24L330.96 158.79C333.09 160.23 334.92 160.5 336.66 160.5C337.53 160.5 338.55 160.26 339.06 160.26C340.14 160.26 341.4 160.77 341.4 161.55C341.4 161.97 341.04 162.18 340.38 162.21C339.87 162.21 339.06 162.27 338.22 162.51C336.72 162.9 334.23 163.95 332.76 164.55L332.46 163.98C333.75 163.29 335.1 162.51 335.97 161.94C334.98 161.79 332.46 161.55 330.6 159.24Z" fill="black"/>
</svg>
